<svg xmlns="http://www.w3.org/2000/svg" viewBox="0 0 17 17"><defs><style>.cls-1{fill:#fff;}.cls-2{fill:#0db22a;}</style></defs><title>icon__correct</title><g id="Layer_2" data-name="Layer 2"><circle class="cls-1" cx="8.5" cy="8.5" r="8.5"/><path class="cls-2" d="M8.5,2A6.5,6.5,0,1,1,2,8.5,6.51,6.51,0,0,1,8.5,2m0-2A8.5,8.5,0,1,0,17,8.5,8.51,8.51,0,0,0,8.5,0Z"/><path class="cls-2" d="M7.65,11.31a.5.5,0,0,1-.31-.1l-1.7-1.13a.57.57,0,0,1,.62-.95L7.55,10,10.62,6.4a.58.58,0,0,1,.8-.06.57.57,0,0,1,.06.8l-3.4,4A.57.57,0,0,1,7.65,11.31Z"/></g></svg>