<svg id="Layer_1" data-name="Layer 1" xmlns="http://www.w3.org/2000/svg" viewBox="0 0 80 70"><defs><style>.cls-1{fill:#fff;}.cls-2{fill:#298ee9;}.cls-3{fill:#e8e8e8;}.cls-4{fill:#464646;}.cls-5{fill:#e1443d;}.cls-6{fill:#9b9b9b;}</style></defs><title>illustration__link</title><rect class="cls-1" x="43" y="5" width="35" height="27"/><path class="cls-2" d="M76,7V30H45V7H76m2-2H43V32H78V5Z"/><rect class="cls-3" x="45" y="7" width="31" height="4"/><rect class="cls-1" x="2" y="5" width="35" height="27"/><path class="cls-4" d="M35,7V30H4V7H35m2-2H2V32H37V5Z"/><rect class="cls-3" x="4" y="7" width="31" height="4"/><rect class="cls-1" x="43" y="38" width="35" height="27"/><path class="cls-4" d="M76,40V63H45V40H76m2-2H43V65H78V38Z"/><rect class="cls-3" x="45" y="40" width="31" height="4"/><rect class="cls-1" x="52.43" y="30" width="17.14" height="10" rx="5" transform="translate(26 96) rotate(-90)"/><path class="cls-5" d="M61,40.79a2.22,2.22,0,0,1-2.21-2.22V35.71H57.43v2.86a3.57,3.57,0,0,0,7.14,0V35.71H63.21v2.86A2.22,2.22,0,0,1,61,40.79Zm.71-2.93V32.14H60.29v5.72Zm-4.28-6.43v2.86h1.36V31.43a2.21,2.21,0,1,1,4.42,0v2.86h1.36V31.43a3.57,3.57,0,1,0-7.14,0Z"/><path class="cls-6" d="M27.5,16h-16a.5.5,0,0,1,0-1h16a.5.5,0,0,1,0,1Z"/><path class="cls-5" d="M22,19H17a.5.5,0,0,1,0-1h5a.5.5,0,0,1,0,1Z"/><path class="cls-6" d="M14.5,19h-3a.5.5,0,0,1,0-1h3a.5.5,0,0,1,0,1Z"/><path class="cls-6" d="M27.15,19H24.69a.5.5,0,1,1,0-1h2.46a.5.5,0,0,1,0,1Z"/><path class="cls-6" d="M27.5,22h-16a.5.5,0,0,1,0-1h16a.5.5,0,0,1,0,1Z"/><path class="cls-6" d="M17.5,25h-6a.5.5,0,0,1,0-1h6a.5.5,0,0,1,0,1Z"/><path class="cls-6" d="M68.5,49h-16a.5.5,0,0,1,0-1h16a.5.5,0,0,1,0,1Z"/><path class="cls-6" d="M68.5,52h-16a.5.5,0,0,1,0-1h16a.5.5,0,0,1,0,1Z"/><path class="cls-6" d="M68.5,55h-16a.5.5,0,0,1,0-1h16a.5.5,0,0,1,0,1Z"/><path class="cls-5" d="M56.5,58h-4a.5.5,0,0,1,0-1h4a.5.5,0,0,1,0,1Z"/><rect class="cls-1" x="31.43" y="14" width="17.14" height="10" rx="5"/><path class="cls-5" d="M34.21,19a2.22,2.22,0,0,1,2.22-2.21h2.86V15.43H36.43a3.57,3.57,0,1,0,0,7.14h2.86V21.21H36.43A2.22,2.22,0,0,1,34.21,19Zm2.93.71h5.72V18.29H37.14Zm6.43-4.28H40.71v1.36h2.86a2.21,2.21,0,1,1,0,4.42H40.71v1.36h2.86a3.57,3.57,0,1,0,0-7.14Z"/></svg>