<?xml version="1.0" encoding="UTF-8"?>
<svg width="50px" height="50px" viewBox="0 0 50 50" version="1.1" xmlns="http://www.w3.org/2000/svg" xmlns:xlink="http://www.w3.org/1999/xlink">
    <!-- Generator: Sketch 55.2 (78181) - https://sketchapp.com -->
    <title>icon__notification--promo</title>
    <desc>Created with Sketch.</desc>
    <g id="Page-1" stroke="none" stroke-width="1" fill="none" fill-rule="evenodd">
        <g id="hothx--approve-all" transform="translate(-76.000000, -1083.000000)">
            <g id="upsell" transform="translate(75.000000, 1083.000000)">
                <g id="specials" transform="translate(1.000000, 0.000000)">
                    <g id="icon__notification--promo">
                        <path d="M40.3183787,10.6799414 L45.8026565,11.8857046 C46.1591132,11.9634157 46.4663331,12.1877127 46.6489313,12.5035581 C46.8315294,12.8194035 46.8726057,13.1975649 46.7620809,13.5452496 L45.0636403,18.8998754 C44.9331786,19.365931 45.0731563,19.8658513 45.4266658,20.196395 L49.5755284,23.9822321 C49.8458712,24.2279543 50,24.5763285 50,24.9416566 C50,25.3069847 49.8458712,25.6553589 49.5755284,25.9010811 L45.4266658,29.6869182 C45.0731563,30.0174619 44.9331786,30.5173822 45.0636403,30.9834378 L46.7620809,36.3380636 C46.939031,36.7063211 46.9320464,37.1364431 46.7432328,37.4987611 C46.5544192,37.8610791 46.2058679,38.1132016 45.8026565,38.1791214 L40.3183787,39.3719194 C39.8177104,39.4784438 39.426583,39.8695712 39.3200586,40.3702395 L38.1791214,45.8026565 C38.1019004,46.1622026 37.8756263,46.4720414 37.5566389,46.6550264 C37.2376515,46.8380114 36.8559635,46.8769261 36.5066112,46.7620809 L31.1519853,45.0636403 C30.6859298,44.9331786 30.1860094,45.0731563 29.8554658,45.4266658 L26.0696286,49.5755284 C25.8239065,49.8458712 25.4755323,50 25.1102042,50 C24.7448761,50 24.3965019,49.8458712 24.1507797,49.5755284 L20.3649425,45.4266658 C20.0343989,45.0731563 19.5344785,44.9331786 19.068423,45.0636403 L13.5452496,46.7620809 C13.1975649,46.8726057 12.8194035,46.8315294 12.5035581,46.6489313 C12.1877127,46.4663331 11.9634157,46.1591132 11.8857046,45.8026565 L10.6799414,40.3183787 C10.5695587,39.8103484 10.1663841,39.4173807 9.65569092,39.3200586 L4.19734354,38.1791214 C3.83779743,38.1019004 3.52795861,37.8756263 3.34497358,37.5566389 C3.16198856,37.2376515 3.12307395,36.8559635 3.23791906,36.5066112 L4.94932489,31.1519853 C5.07978656,30.6859298 4.93980886,30.1860094 4.58629941,29.8554658 L0.424471601,25.9659071 C0.154128811,25.7201849 0,25.3718107 0,25.0064826 C0,24.6411545 0.154128811,24.2927803 0.424471601,24.0470581 L4.58629941,20.261221 C4.93980886,19.9306773 5.07978656,19.430757 4.94932489,18.9647014 L3.23791906,13.5452496 C3.1273943,13.1975649 3.1684706,12.8194035 3.35106873,12.5035581 C3.53366687,12.1877127 3.84088682,11.9634157 4.19734354,11.8857046 L9.65569092,10.6799414 C10.1737774,10.5788604 10.5788604,10.1737774 10.6799414,9.65569092 L11.8857046,4.15844795 C11.9724112,3.80914235 12.200413,3.51159584 12.5151435,3.33701877 C12.829874,3.1624417 13.2030096,3.12654478 13.5452496,3.23791906 L18.8998754,4.94932489 C19.365931,5.07978656 19.8658513,4.93980886 20.196395,4.58629941 L24.0470581,0.424471601 C24.2927803,0.154128811 24.6411545,0 25.0064826,0 C25.3718107,0 25.7201849,0.154128811 25.9659071,0.424471601 L29.7517442,4.58629941 C30.0822879,4.93980886 30.5822082,5.07978656 31.0482638,4.94932489 L36.4028896,3.23791906 C36.7645461,3.08625203 37.1754175,3.10643298 37.5204701,3.29281175 C37.8655227,3.47919051 38.1076716,3.81173589 38.1791214,4.19734354 L39.3200586,9.65569092 C39.4173807,10.1663841 39.8103484,10.5695587 40.3183787,10.6799414 Z" id="Path" fill="#298EE9" fill-rule="nonzero"></path>
                        <polygon id="Path" points="10 9 41 9 41 40 10 40"></polygon>
                        <polygon id="Path" points="10 10 41 10 41 41 10 41"></polygon>
                        <path d="M26.1612091,18.9833333 C28.5151134,18.9833333 29.3879093,20.0694444 29.4672544,21.6666667 L32.3897985,21.6666667 C32.3210948,19.2866101 30.5606562,17.2676517 28.1448363,16.7983333 L28.1448363,14 L24.1775819,14 L24.1775819,16.76 C23.4963321,16.9048677 22.8381319,17.136915 22.220403,17.45 L24.1775819,19.3283333 C24.8090629,19.0890439 25.483008,18.9718288 26.1612091,18.9833333 L26.1612091,18.9833333 Z M16.679471,15.3544444 L15,16.9772222 L19.5491184,21.3727778 C19.5491184,24.0305556 21.6120907,25.4744444 24.7197733,26.3688889 L29.361461,30.8538889 C28.5588222,31.7282446 27.361218,32.1633814 26.1612091,32.0166667 C23.4370277,32.0166667 22.365869,30.8411111 22.1939547,29.3333333 L19.2846348,29.3333333 C19.4433249,32.1316667 21.6120907,33.7033333 24.1511335,34.2272222 L24.1511335,37 L28.1183879,37 L28.1183879,34.2527778 C29.313526,34.0711278 30.434177,33.5761236 31.3583123,32.8216667 L34.320529,35.7222222 L36,34.0994444 L16.679471,15.3544444 Z" id="Shape" fill="#FFFFFF" fill-rule="nonzero"></path>
                    </g>
                </g>
            </g>
        </g>
    </g>
</svg>