<svg id="Layer_1" data-name="Layer 1" xmlns="http://www.w3.org/2000/svg" viewBox="0 0 80 80"><defs><style>.cls-1{fill:#fff;}.cls-2{fill:#464646;}.cls-3{fill:#9b9b9b;}.cls-4{fill:#298ee9;}.cls-5{fill:#eaeaea;}.cls-6{fill:#ebc950;}</style></defs><title>icon__doc-waiting</title><rect class="cls-1" x="23" y="14" width="38" height="50"/><path class="cls-2" d="M59,16V62H25V16H59m2-2H23V64H61V14Z"/><path class="cls-2" d="M47,22H29a1,1,0,0,1,0-2H47a1,1,0,0,1,0,2Z"/><path class="cls-3" d="M55,41H29a1,1,0,0,1,0-2H55a1,1,0,0,1,0,2Z"/><rect class="cls-4" x="28" y="25" width="28" height="9"/><path class="cls-3" d="M55,46H29a1,1,0,0,1,0-2H55a1,1,0,0,1,0,2Z"/><path class="cls-3" d="M47,51H29a1,1,0,0,1,0-2H47a1,1,0,0,1,0,2Z"/><path class="cls-5" d="M61,66H23a1,1,0,0,1,0-2H61a1,1,0,0,1,0,2Z"/><circle class="cls-1" cx="60" cy="61" r="11.5"/><path class="cls-6" d="M60,50.5A10.5,10.5,0,1,1,49.5,61,10.51,10.51,0,0,1,60,50.5m0-2A12.5,12.5,0,1,0,72.5,61,12.5,12.5,0,0,0,60,48.5Z"/><rect class="cls-6" x="59" y="55" width="2" height="8" rx="1"/><circle class="cls-6" cx="60" cy="66" r="1"/></svg>