<svg xmlns="http://www.w3.org/2000/svg" viewBox="0 0 32 32"><defs><style>.cls-1{fill:#fff;}.cls-2{fill:#464646;}.cls-3{fill:#298ee9;}.cls-4{fill:#9b9b9b;}</style></defs><title>favicon__research-report</title><g id="Layer_2" data-name="Layer 2"><rect class="cls-1" x="1" width="27" height="30"/><path class="cls-2" d="M26,2V28H3V2H26m2-2H1V30H28V0Z"/><rect class="cls-3" x="20" y="15" width="4" height="15"/><path class="cls-1" d="M24,15V30H20V15h4m2-2H18V30h8V13Z"/><rect class="cls-3" x="14" y="20" width="4" height="10"/><path class="cls-1" d="M18,20V30H14V20h4m2-1H12V30h8V19Z"/><rect class="cls-3" x="8" y="25" width="4" height="5"/><path class="cls-1" d="M12,25v5H8V25h4m2-2H6v7h8V23Z"/><rect class="cls-2" x="6" y="6" width="14" height="2" rx="1"/><rect class="cls-4" x="6" y="11" width="9" height="2" rx="1"/><path class="cls-1" d="M30,10V30H26V10h4M28,8H24V30h4V8Z"/><rect class="cls-3" x="26" y="10" width="4" height="20"/></g></svg>