<?xml version="1.0" encoding="UTF-8"?>
<svg width="44px" height="44px" viewBox="0 0 44 44" version="1.1" xmlns="http://www.w3.org/2000/svg" xmlns:xlink="http://www.w3.org/1999/xlink">
    <!-- Generator: Sketch 52.4 (67378) - http://www.bohemiancoding.com/sketch -->
    <title>icon--campaign-research</title>
    <desc>Created with Sketch.</desc>
    <g id="Page-1" stroke="none" stroke-width="1" fill="none" fill-rule="evenodd">
        <g id="Desktop-HD" transform="translate(-459.000000, -2648.000000)">
            <g id="section__timeline" transform="translate(455.000000, 2534.000000)">
                <g id="item__campaign-research" transform="translate(4.000000, 114.000000)">
                    <g id="icon--campaign-research">
                        <circle id="Oval" stroke="#FFDAD9" stroke-width="2" fill="#FFFFFF" fill-rule="nonzero" cx="22" cy="22" r="19"></circle>
                        <path d="M41,22 C41,11.5065898 32.4934102,3 22,3" id="Oval" stroke="#D4403B" stroke-width="2" fill-rule="nonzero"></path>
                        <g id="baseline-search-24px" transform="translate(10.000000, 10.000000)">
                            <path d="M15.5,14 L14.71,14 L14.43,13.73 C15.41,12.59 16,11.11 16,9.5 C16,5.91 13.09,3 9.5,3 C5.91,3 3,5.91 3,9.5 C3,13.09 5.91,16 9.5,16 C11.11,16 12.59,15.41 13.73,14.43 L14,14.71 L14,15.5 L19,20.49 L20.49,19 L15.5,14 Z M9.5,14 C7.01,14 5,11.99 5,9.5 C5,7.01 7.01,5 9.5,5 C11.99,5 14,7.01 14,9.5 C14,11.99 11.99,14 9.5,14 Z" id="Shape" fill="#D4403B" fill-rule="nonzero"></path>
                            <polygon id="Path" points="0 0 24 0 24 24 0 24"></polygon>
                        </g>
                        <g id="dividers" fill-rule="nonzero" stroke="#FFFFFF" stroke-linecap="square">
                            <path d="M37.5,22 L43.1804104,22" id="Line-6"></path>
                            <path d="M0.5,22 L6.18041039,22" id="Line-6"></path>
                            <path d="M22,0.5 L22,7.02983026" id="Line-7"></path>
                            <path d="M22,36.5 L22,43.0298303" id="Line-7"></path>
                        </g>
                    </g>
                </g>
            </g>
        </g>
    </g>
</svg>