<svg xmlns="http://www.w3.org/2000/svg" viewBox="0 0 32 32"><defs><style>.cls-1{fill:#fff;}.cls-2{fill:#464646;}.cls-3{fill:#298ee9;}.cls-4{fill:#0db22a;}</style></defs><title>icon__report-done</title><g id="Layer_2" data-name="Layer 2"><path class="cls-1" d="M27,30H5a1,1,0,0,1-1-1V3A1,1,0,0,1,5,2H18.59a1,1,0,0,1,.7.29l8.42,8.42a1,1,0,0,1,.29.7V29A1,1,0,0,1,27,30Z"/><path class="cls-2" d="M18.17,4,26,11.83V28H6V4H18.17m.42-2H5A1,1,0,0,0,4,3V29a1,1,0,0,0,1,1H27a1,1,0,0,0,1-1V11.41a1,1,0,0,0-.29-.7L19.29,2.29a1,1,0,0,0-.7-.29Z"/><path class="cls-2" d="M27,13H18a1,1,0,0,1-1-1V3a1,1,0,0,1,2,0v8h8a1,1,0,0,1,0,2Z"/><rect class="cls-3" x="9" y="17" width="3" height="5"/><rect class="cls-3" x="14" y="14" width="3" height="8"/><rect class="cls-3" x="19" y="13" width="3" height="9"/></g><g id="Layer_1" data-name="Layer 1"><circle class="cls-1" cx="23.5" cy="23.5" r="8.5"/><path class="cls-4" d="M23.5,17.43a6.07,6.07,0,1,1-6.07,6.07,6.07,6.07,0,0,1,6.07-6.07m0-2.43A8.5,8.5,0,1,0,32,23.5,8.51,8.51,0,0,0,23.5,15Z"/><path class="cls-4" d="M22.61,26.3a.55.55,0,0,1-.32-.1L20.54,25a.58.58,0,0,1,.65-1L22.5,25l3.16-3.68a.58.58,0,0,1,.88.76L23.05,26.1A.59.59,0,0,1,22.61,26.3Z"/></g></svg>