<svg xmlns="http://www.w3.org/2000/svg" viewBox="0 0 200 50"><defs><style>.cls-1{fill:#fff;}.cls-2{fill:#464646;}.cls-3{fill:#e1443d;}.cls-4{fill:#ededed;}.cls-5{fill:none;stroke:#ededed;stroke-miterlimit:10;}.cls-6{fill:#0db22a;}.cls-7{fill:#9b9b9b;}.cls-8{fill:#8bc4ef;}</style></defs><title>hothx--m-2</title><g id="Layer_2" data-name="Layer 2"><rect class="cls-1" x="58" y="8" width="34" height="34"/><path class="cls-2" d="M91,9V41H59V9H91m2-2H57V43H93V7Z"/><rect class="cls-3" x="59" y="9" width="32" height="8"/><path class="cls-4" d="M88,20V38H62V20H88m1-1H61V39H89V19Z"/><line class="cls-5" x1="68.5" y1="20" x2="68.5" y2="39"/><line class="cls-5" x1="82.5" y1="20" x2="82.5" y2="39"/><line class="cls-5" x1="75.5" y1="20" x2="75.5" y2="39"/><line class="cls-5" x1="61.5" y1="24.5" x2="88.5" y2="24.5"/><line class="cls-5" x1="61.5" y1="29.5" x2="88.5" y2="29.5"/><line class="cls-5" x1="61.5" y1="34.5" x2="88.5" y2="34.5"/><circle class="cls-1" cx="88.5" cy="38.5" r="7.5"/><path class="cls-6" d="M88.5,32A6.5,6.5,0,1,1,82,38.5,6.51,6.51,0,0,1,88.5,32m0-2A8.5,8.5,0,1,0,97,38.5,8.51,8.51,0,0,0,88.5,30Z"/><path class="cls-6" d="M87.65,41.31a.5.5,0,0,1-.31-.1l-1.7-1.13a.57.57,0,0,1,.62-.95l1.29.86,3.07-3.59a.58.58,0,0,1,.8-.06.57.57,0,0,1,.06.8l-3.4,4A.57.57,0,0,1,87.65,41.31Z"/><rect class="cls-1" x="8" y="8" width="34" height="34"/><path class="cls-2" d="M41,9V41H9V9H41m2-2H7V43H43V7Z"/><rect class="cls-3" x="9" y="9" width="32" height="8"/><path class="cls-4" d="M38,20V38H12V20H38m1-1H11V39H39V19Z"/><line class="cls-5" x1="18.5" y1="20" x2="18.5" y2="39"/><line class="cls-5" x1="32.5" y1="20" x2="32.5" y2="39"/><line class="cls-5" x1="25.5" y1="20" x2="25.5" y2="39"/><line class="cls-5" x1="11.5" y1="24.5" x2="38.5" y2="24.5"/><line class="cls-5" x1="11.5" y1="29.5" x2="38.5" y2="29.5"/><line class="cls-5" x1="11.5" y1="34.5" x2="38.5" y2="34.5"/><circle class="cls-1" cx="38.5" cy="38.5" r="7.5"/><path class="cls-6" d="M38.5,32A6.5,6.5,0,1,1,32,38.5,6.51,6.51,0,0,1,38.5,32m0-2A8.5,8.5,0,1,0,47,38.5,8.51,8.51,0,0,0,38.5,30Z"/><path class="cls-6" d="M37.65,41.31a.5.5,0,0,1-.31-.1l-1.7-1.13a.57.57,0,0,1,.62-.95l1.29.86,3.07-3.59a.58.58,0,0,1,.8-.06.57.57,0,0,1,.06.8l-3.4,4A.57.57,0,0,1,37.65,41.31Z"/><path class="cls-7" d="M191,9V41H159V9h32m2-2H157V43h36V7Z"/><rect class="cls-8" x="176" y="22" width="4" height="15"/><rect class="cls-8" x="170" y="27" width="4" height="10"/><rect class="cls-8" x="164" y="32" width="4" height="5"/><rect class="cls-8" x="182" y="17" width="4" height="20"/><path class="cls-7" d="M141,9V41H109V9h32m2-2H107V43h36V7Z"/><rect class="cls-4" x="109" y="9" width="32" height="8"/><path class="cls-4" d="M138,20V38H112V20h26m1-1H111V39h28V19Z"/><line class="cls-5" x1="118.5" y1="19.5" x2="118.5" y2="38.5"/><line class="cls-5" x1="132.5" y1="19.5" x2="132.5" y2="38.5"/><line class="cls-5" x1="125.5" y1="19.5" x2="125.5" y2="38.5"/><line class="cls-5" x1="111.5" y1="24.5" x2="138.5" y2="24.5"/><line class="cls-5" x1="111.5" y1="29.5" x2="138.5" y2="29.5"/><line class="cls-5" x1="111.5" y1="34.5" x2="138.5" y2="34.5"/></g></svg>