<svg id="Layer_1" data-name="Layer 1" xmlns="http://www.w3.org/2000/svg" viewBox="0 0 24 24"><defs><style>.cls-1{fill:#fff;}.cls-2{fill:#3bd48d;}</style></defs><title>icon__checkmark__outline</title><circle class="cls-1" cx="12" cy="12" r="12"/><path class="cls-2" d="M12,2A10,10,0,1,1,2,12,10,10,0,0,1,12,2m0-2A12,12,0,1,0,24,12,12,12,0,0,0,12,0Z"/><path class="cls-2" d="M10.8,16.46a1,1,0,0,1-.54-.16L7.35,14.36a1,1,0,1,1,1.08-1.61l2.19,1.46,5.26-6.13a1,1,0,1,1,1.47,1.26l-5.81,6.78A1,1,0,0,1,10.8,16.46Z"/></svg>