<svg xmlns="http://www.w3.org/2000/svg" viewBox="0 0 80 80"><defs><style>.cls-1{isolation:isolate;}.cls-2{fill:#fff;}.cls-3{fill:#464646;}.cls-4,.cls-5{fill:#e1443d;}.cls-5{opacity:0.19;mix-blend-mode:multiply;}.cls-6{fill:#eaeaea;}</style></defs><title>icon__pr</title><g class="cls-1"><g id="Layer_2" data-name="Layer 2"><rect class="cls-2" x="9" y="17.41" width="62" height="46.59"/><path class="cls-3" d="M69,19.41v43H11v-43Zm2-2H9v47H71v-47Z"/><rect class="cls-4" x="13" y="21.41" width="54" height="39"/><rect class="cls-5" x="13" y="40.41" width="54" height="20"/><path class="cls-2" d="M40.5,30.41a9.5,9.5,0,1,0,9.5,9.5A9.5,9.5,0,0,0,40.5,30.41Zm4.43,10.41-6.74,3.87a.92.92,0,0,1-1.37-.8v-8a.92.92,0,0,1,1.37-.8l6.74,4.1A.91.91,0,0,1,44.93,40.82Z"/><rect class="cls-6" x="7" y="64.41" width="66" height="2" rx="1"/></g></g></svg>