<svg xmlns="http://www.w3.org/2000/svg" viewBox="0 0 17 17"><defs><style>.cls-1{fill:#fff;}.cls-2{fill:#e1443d;}</style></defs><title>icon__wrong</title><g id="Layer_2" data-name="Layer 2"><circle class="cls-1" cx="8.5" cy="8.5" r="8.5"/><path class="cls-2" d="M8.5,2A6.5,6.5,0,1,1,2,8.5,6.51,6.51,0,0,1,8.5,2m0-2A8.5,8.5,0,1,0,17,8.5,8.51,8.51,0,0,0,8.5,0Z"/><path class="cls-2" d="M10.5,11a.47.47,0,0,1-.35-.15l-4-4a.49.49,0,0,1,.7-.7l4,4a.48.48,0,0,1,0,.7A.47.47,0,0,1,10.5,11Z"/><path class="cls-2" d="M6.5,11a.47.47,0,0,1-.35-.15.48.48,0,0,1,0-.7l4-4a.49.49,0,0,1,.7.7l-4,4A.47.47,0,0,1,6.5,11Z"/></g></svg>