<svg xmlns="http://www.w3.org/2000/svg" viewBox="0 0 40 40"><defs><style>.cls-1{fill:#298ee9;}.cls-2{fill:none;}.cls-3{fill:#fff;}</style></defs><title>icon__notification--promo</title><g id="Layer_2" data-name="Layer 2"><path class="cls-1" d="M31.65,8.79l4.23.93A1,1,0,0,1,36.62,11l-1.31,4.13a1,1,0,0,0,.28,1l3.2,2.92a1,1,0,0,1,0,1.48l-3.2,2.92a1,1,0,0,0-.28,1l1.31,4.13A1,1,0,0,1,35.88,30l-4.23.92a1,1,0,0,0-.77.77L30,35.88a1,1,0,0,1-1.29.74l-4.13-1.31a1,1,0,0,0-1,.28l-2.92,3.2a1,1,0,0,1-1.48,0l-2.92-3.2a1,1,0,0,0-1-.28L11,36.62a1,1,0,0,1-1.28-.74l-.93-4.23A1,1,0,0,0,8,30.88L3.79,30a1,1,0,0,1-.74-1.29l1.32-4.13a1,1,0,0,0-.28-1L.88,20.58a1,1,0,0,1,0-1.48l3.21-2.92a1,1,0,0,0,.28-1L3.05,11a1,1,0,0,1,.74-1.28L8,8.79A1,1,0,0,0,8.79,8l.93-4.24A1,1,0,0,1,11,3.05l4.13,1.32a1,1,0,0,0,1-.28L19.1.88a1,1,0,0,1,1.48,0L23.5,4.09a1,1,0,0,0,1,.28l4.13-1.32A1,1,0,0,1,30,3.79L30.88,8A1,1,0,0,0,31.65,8.79Z"/><path class="cls-2" d="M8,7H32V31H8Z"/><path class="cls-2" d="M8,8H32V32H8Z"/><path class="cls-3" d="M20.5,14.9c1.78,0,2.44.85,2.5,2.1h2.21A4,4,0,0,0,22,13.19V11H19v2.16a5.93,5.93,0,0,0-1.48.54L19,15.17A3.92,3.92,0,0,1,20.5,14.9Zm-7.17-2.84-1.27,1.27,3.44,3.44c0,2.08,1.56,3.21,3.91,3.91l3.51,3.51a2.77,2.77,0,0,1-2.42.91c-2.06,0-2.87-.92-3-2.1h-2.2c.12,2.19,1.76,3.42,3.68,3.83V29h3V26.85a5,5,0,0,0,2.45-1.12L26.67,28l1.27-1.27Z"/></g></svg>