<?xml version="1.0" encoding="UTF-8"?>
<svg width="43px" height="43px" viewBox="0 0 43 43" version="1.1" xmlns="http://www.w3.org/2000/svg" xmlns:xlink="http://www.w3.org/1999/xlink">
    <!-- Generator: Sketch 54.1 (76490) - https://sketchapp.com -->
    <title>Group 4</title>
    <desc>Created with Sketch.</desc>
    <g id="Page-1" stroke="none" stroke-width="1" fill="none" fill-rule="evenodd">
        <g id="Desktop-Copy-2" transform="translate(-1040.000000, -251.000000)">
            <g id="MegaMenu" transform="translate(0.000000, -0.000000)">
                <g id="Slider" transform="translate(1034.004000, 245.002000)">
                    <g id="Group-4" transform="translate(27.500000, 27.500000) scale(-1, 1) translate(-27.500000, -27.500000) ">
                        <rect id="Rectangle" fill-opacity="0" fill="#FFFFFF" x="0.498472727" y="0.249" width="54" height="54"></rect>
                        <circle id="Oval" fill="#2D7DEA" transform="translate(27.498473, 27.249000) scale(-1, 1) translate(-27.498473, -27.249000) " cx="27.4984727" cy="27.249" r="20.9984727"></circle>
                        <path d="M34.4621091,23.4532781 L34.4621091,31.0447219 C34.4621091,31.6897433 33.939216,32.2126364 33.2941947,32.2126364 C32.6491733,32.2126364 32.1262802,31.6897433 32.1262802,31.0447219 L32.1262802,24.6211925 L25.7027508,24.6211925 C25.0577295,24.6211925 24.5348364,24.0982994 24.5348364,23.4532781 C24.5348364,22.8082567 25.0577295,22.2853636 25.7027508,22.2853636 L33.2941947,22.2853636 C33.939216,22.2853636 34.4621091,22.8082567 34.4621091,23.4532781 Z" id="Combined-Shape" fill="#FFFFFF" transform="translate(29.498473, 27.249000) scale(-1, 1) rotate(-315.000000) translate(-29.498473, -27.249000) "></path>
                    </g>
                </g>
            </g>
        </g>
    </g>
</svg>