<svg id="Layer_2" data-name="Layer 2" xmlns="http://www.w3.org/2000/svg" viewBox="0 0 80 80"><defs><style>.cls-1{fill:#fff;}</style></defs><title>illustrations__multiple-domains</title><polygon class="cls-1" points="68 60.41 64.1 60.41 64.1 58.41 66 58.41 66 21.41 15 21.41 15 23.41 13 23.41 13 19.41 68 19.41 68 60.41"/><path class="cls-1" d="M60,27.41v37H9v-37H60m2-2H7v41H62v-41Z"/><path class="cls-1" d="M35,35.41a10.5,10.5,0,1,1-10.5,10.5A10.51,10.51,0,0,1,35,35.41m0-2a12.5,12.5,0,1,0,12.5,12.5A12.5,12.5,0,0,0,35,33.41Z"/><rect class="cls-1" x="34.5" y="34.91" width="1" height="22"/><rect class="cls-1" x="23.5" y="42.41" width="22" height="1"/><rect class="cls-1" x="24.5" y="48.41" width="22" height="1"/><path class="cls-1" d="M33.4,58a17.1,17.1,0,0,1,0-24.19l.71.71a16.09,16.09,0,0,0,0,22.77Z"/><path class="cls-1" d="M37.1,57.5l-.71-.71a15.39,15.39,0,0,0,0-21.77l.71-.71a16.4,16.4,0,0,1,0,23.19Z"/><polygon class="cls-1" points="74 54.41 70 54.41 70 52.41 72 52.41 72 15.4 21 15.4 21 17.41 19 17.41 19 13.4 74 13.4 74 54.41"/></svg>