<svg xmlns="http://www.w3.org/2000/svg" viewBox="0 0 80 55"><defs><style>.cls-1{fill:#fff;}.cls-2{fill:none;stroke:#464646;stroke-linecap:round;stroke-miterlimit:10;stroke-width:2px;}.cls-3{fill:#298ee9;}.cls-4{fill:gray;}.cls-5{fill:#464646;}.cls-6{fill:#727272;}</style></defs><title>illustration__blogger--titles</title><g id="Layer_1" data-name="Layer 1"><rect class="cls-1" x="6" y="4" width="68" height="47"/><line class="cls-2" x1="5" y1="4" x2="5" y2="51"/><path class="cls-3" d="M80,13V24H13V13H80m1-1H12V25H81V12Z"/><path class="cls-4" d="M14.4,6h-.87V8.36H13V6h-.86V5.52H14.4Z"/><path class="cls-4" d="M14.9,5.7A.24.24,0,0,1,15,5.5a.3.3,0,0,1,.23-.09.29.29,0,0,1,.23.09.25.25,0,0,1,.09.2.29.29,0,0,1-.09.22.34.34,0,0,1-.23.08A.36.36,0,0,1,15,5.92.29.29,0,0,1,14.9,5.7Zm.6,2.66h-.57V6.25h.57Z"/><path class="cls-4" d="M16.84,5.73v.52h.36v.42h-.36v1a.27.27,0,0,0,0,.17.25.25,0,0,0,.17.05l.17,0v.43a1,1,0,0,1-.34.05.54.54,0,0,1-.61-.6V6.67H16V6.25h.31V5.73Z"/><path class="cls-4" d="M18.31,8.36h-.57v-3h.57Z"/><path class="cls-4" d="M19.94,8.4a1,1,0,0,1-1-1V7.3A1.32,1.32,0,0,1,19,6.73a.92.92,0,0,1,.35-.38,1,1,0,0,1,.51-.14.84.84,0,0,1,.68.28,1.08,1.08,0,0,1,.25.77v.23H19.47a.52.52,0,0,0,.16.33A.48.48,0,0,0,20,8a.6.6,0,0,0,.51-.24l.28.31a.81.81,0,0,1-.35.28A1.06,1.06,0,0,1,19.94,8.4Zm-.06-1.73a.37.37,0,0,0-.27.11.59.59,0,0,0-.14.33h.79V7.06a.44.44,0,0,0-.1-.29A.37.37,0,0,0,19.88,6.67Z"/><path class="cls-5" d="M21.5,20.61h-1V18.48h-2v2.13h-1v-5h1v2h2v-2h1Z"/><path class="cls-5" d="M22.53,18.73a2.21,2.21,0,0,1,.21-1,1.59,1.59,0,0,1,.61-.67,1.86,1.86,0,0,1,.93-.23,1.68,1.68,0,0,1,1.22.46A1.87,1.87,0,0,1,26,18.55v.25a2,2,0,0,1-.47,1.37,1.66,1.66,0,0,1-1.28.51A1.64,1.64,0,0,1,23,20.17a2,2,0,0,1-.48-1.39Zm1,.07a1.35,1.35,0,0,0,.2.81.7.7,0,0,0,1.12,0,1.47,1.47,0,0,0,.2-.88,1.32,1.32,0,0,0-.2-.8.65.65,0,0,0-.56-.29.63.63,0,0,0-.56.29A1.47,1.47,0,0,0,23.52,18.8Z"/><path class="cls-5" d="M30.21,19.27l.48-2.35h1l-.95,3.69h-.82l-.7-2.32-.71,2.32h-.82l-.94-3.69h.95l.48,2.35.68-2.35h.71Z"/><path class="cls-5" d="M35.76,16v.91h.63v.72h-.63v1.85a.46.46,0,0,0,.08.29.38.38,0,0,0,.3.09,1.23,1.23,0,0,0,.29,0v.75a2,2,0,0,1-.6.09,1,1,0,0,1-1.06-1.05v-2h-.54v-.72h.54V16Z"/><path class="cls-5" d="M37,18.73a2.21,2.21,0,0,1,.21-1,1.52,1.52,0,0,1,.61-.67,1.82,1.82,0,0,1,.92-.23,1.69,1.69,0,0,1,1.23.46,1.82,1.82,0,0,1,.52,1.24v.25a2,2,0,0,1-.47,1.37,1.86,1.86,0,0,1-2.56,0A2,2,0,0,1,37,18.78Zm1,.07a1.42,1.42,0,0,0,.2.81.68.68,0,0,0,.57.28.66.66,0,0,0,.56-.28,1.47,1.47,0,0,0,.2-.88,1.32,1.32,0,0,0-.2-.8.65.65,0,0,0-.57-.29.66.66,0,0,0-.56.29A1.55,1.55,0,0,0,38,18.8Z"/><path class="cls-5" d="M44.52,16.92l0,.41a1.3,1.3,0,0,1,1.06-.48,1,1,0,0,1,1,.56,1.28,1.28,0,0,1,1.11-.56,1.1,1.1,0,0,1,.9.35,1.57,1.57,0,0,1,.29,1.05v2.36h-1V18.26a.7.7,0,0,0-.12-.46.53.53,0,0,0-.43-.15.61.61,0,0,0-.62.43v2.53h-1V18.26a.73.73,0,0,0-.13-.47.58.58,0,0,0-.43-.14.65.65,0,0,0-.61.35v2.61h-1V16.92Z"/><path class="cls-5" d="M52.15,20.61a.86.86,0,0,1-.1-.33,1.19,1.19,0,0,1-.94.4,1.31,1.31,0,0,1-.9-.31,1,1,0,0,1-.36-.79,1.05,1.05,0,0,1,.44-.91,2.2,2.2,0,0,1,1.26-.32H52v-.21a.59.59,0,0,0-.13-.41.5.5,0,0,0-.41-.15.57.57,0,0,0-.39.12.4.4,0,0,0-.15.33h-1a.94.94,0,0,1,.2-.6A1.31,1.31,0,0,1,50.7,17a2.09,2.09,0,0,1,.81-.15,1.59,1.59,0,0,1,1.08.34,1.2,1.2,0,0,1,.41,1v1.6a1.85,1.85,0,0,0,.14.8v.05Zm-.82-.68a.91.91,0,0,0,.4-.1.62.62,0,0,0,.27-.26v-.64h-.36c-.5,0-.76.17-.79.52v.05a.42.42,0,0,0,.13.31A.52.52,0,0,0,51.33,19.93Z"/><path class="cls-5" d="M55.45,19.13l-.36.36v1.12h-1V15.36h1v2.91l.19-.24.95-1.11h1.19l-1.34,1.54,1.45,2.15H56.4Z"/><path class="cls-5" d="M59.83,20.68a1.8,1.8,0,0,1-1.33-.5A1.76,1.76,0,0,1,58,18.85v-.09a2.16,2.16,0,0,1,.22-1,1.61,1.61,0,0,1,.61-.68,1.77,1.77,0,0,1,.9-.23,1.53,1.53,0,0,1,1.19.48,1.94,1.94,0,0,1,.44,1.35v.41H59a1,1,0,0,0,.29.58.91.91,0,0,0,.61.22,1.08,1.08,0,0,0,.9-.42l.48.55a1.53,1.53,0,0,1-.6.49A2.07,2.07,0,0,1,59.83,20.68Zm-.11-3a.63.63,0,0,0-.48.2,1.15,1.15,0,0,0-.24.57h1.38v-.08a.78.78,0,0,0-.18-.51A.63.63,0,0,0,59.72,17.64Z"/><rect class="cls-1" x="79" y="13" width="3" height="11"/><path class="cls-4" d="M80,39V50H13V39H80m1-1H12V51H81V38Z"/><path class="cls-6" d="M13,31.52l.73,2.06.72-2.06h.77v2.84h-.58v-.77l.05-1.34L14,34.36h-.41l-.76-2.11.06,1.34v.77h-.59V31.52Z"/><path class="cls-6" d="M16.9,34.4a1,1,0,0,1-1-1V33.3a1.2,1.2,0,0,1,.13-.57.9.9,0,0,1,.34-.38,1,1,0,0,1,.52-.14.84.84,0,0,1,.68.28,1.08,1.08,0,0,1,.25.77v.23H16.42a.53.53,0,0,0,.17.33.48.48,0,0,0,.35.13.6.6,0,0,0,.51-.24l.28.31a.81.81,0,0,1-.35.28A1.06,1.06,0,0,1,16.9,34.4Zm-.06-1.73a.39.39,0,0,0-.28.11.59.59,0,0,0-.13.33h.79v0a.45.45,0,0,0-.11-.29A.33.33,0,0,0,16.84,32.67Z"/><path class="cls-6" d="M19,31.73v.52h.36v.42H19v1a.27.27,0,0,0,0,.17.25.25,0,0,0,.17,0l.17,0v.43a1,1,0,0,1-.34,0,.54.54,0,0,1-.61-.6V32.67h-.31v-.42h.31v-.52Z"/><path class="cls-6" d="M21.07,34.36a.47.47,0,0,1-.06-.19.66.66,0,0,1-.53.23.77.77,0,0,1-.52-.18.59.59,0,0,1-.2-.45.61.61,0,0,1,.25-.52,1.19,1.19,0,0,1,.72-.18H21V33a.34.34,0,0,0-.08-.23.3.3,0,0,0-.24-.09.31.31,0,0,0-.22.07.24.24,0,0,0-.08.19h-.56a.51.51,0,0,1,.11-.34.68.68,0,0,1,.32-.25,1.14,1.14,0,0,1,.46-.09.92.92,0,0,1,.62.2.66.66,0,0,1,.23.55v.92a.89.89,0,0,0,.09.45v0ZM20.6,34a.59.59,0,0,0,.23,0,.46.46,0,0,0,.16-.15V33.4h-.21c-.29,0-.44.1-.46.3v0a.21.21,0,0,0,.08.17A.26.26,0,0,0,20.6,34Z"/><path class="cls-6" d="M23.28,33.37h-1.1v-.45h1.1Z"/><path class="cls-6" d="M24,34.36V31.52h.88a1.36,1.36,0,0,1,.67.17,1.12,1.12,0,0,1,.46.48,1.49,1.49,0,0,1,.17.71V33a1.57,1.57,0,0,1-.16.7,1.18,1.18,0,0,1-.46.48,1.29,1.29,0,0,1-.67.17ZM24.56,32v1.89h.28a.64.64,0,0,0,.53-.22,1,1,0,0,0,.18-.64v-.15a1.11,1.11,0,0,0-.17-.66.64.64,0,0,0-.53-.22Z"/><path class="cls-6" d="M27.71,34.4a1,1,0,0,1-1.05-1V33.3a1.32,1.32,0,0,1,.12-.57.95.95,0,0,1,.87-.52.85.85,0,0,1,.68.28,1.08,1.08,0,0,1,.25.77v.23H27.23a.53.53,0,0,0,.17.33.48.48,0,0,0,.35.13.63.63,0,0,0,.51-.24l.27.31a.78.78,0,0,1-.34.28A1.06,1.06,0,0,1,27.71,34.4Zm-.06-1.73a.38.38,0,0,0-.28.11.59.59,0,0,0-.13.33H28v0a.39.39,0,0,0-.1-.29A.33.33,0,0,0,27.65,32.67Z"/><path class="cls-6" d="M30.24,33.78a.17.17,0,0,0-.1-.16,1.14,1.14,0,0,0-.33-.11c-.5-.1-.75-.32-.75-.64a.6.6,0,0,1,.23-.47.93.93,0,0,1,.61-.19,1.09,1.09,0,0,1,.65.19.6.6,0,0,1,.24.49h-.57a.26.26,0,0,0-.08-.2.33.33,0,0,0-.24-.08.34.34,0,0,0-.22.07.21.21,0,0,0-.08.16.16.16,0,0,0,.09.15.74.74,0,0,0,.3.1,2.28,2.28,0,0,1,.36.1.59.59,0,0,1,.44.57.52.52,0,0,1-.25.46,1,1,0,0,1-.64.18,1.19,1.19,0,0,1-.47-.09.75.75,0,0,1-.32-.26.6.6,0,0,1-.12-.36h.54a.27.27,0,0,0,.11.23.52.52,0,0,0,.52,0A.17.17,0,0,0,30.24,33.78Z"/><path class="cls-6" d="M32.23,34a.37.37,0,0,0,.26-.09.31.31,0,0,0,.1-.23h.53A.7.7,0,0,1,33,34a.68.68,0,0,1-.31.27,1,1,0,0,1-.45.1.91.91,0,0,1-.71-.28,1.18,1.18,0,0,1-.26-.8v0a1.12,1.12,0,0,1,.26-.78,1,1,0,0,1,1.35-.06.78.78,0,0,1,.24.6h-.53a.41.41,0,0,0-.1-.27.39.39,0,0,0-.56,0,.91.91,0,0,0-.1.47v.06a.94.94,0,0,0,.1.47A.36.36,0,0,0,32.23,34Z"/><path class="cls-6" d="M34.83,32.78l-.2,0a.41.41,0,0,0-.42.22v1.38h-.57V32.25h.53l0,.25a.53.53,0,0,1,.47-.29.57.57,0,0,1,.18,0Z"/><path class="cls-6" d="M35.3,31.7a.28.28,0,0,1,.08-.2.32.32,0,0,1,.23-.09.29.29,0,0,1,.23.09.25.25,0,0,1,.09.2.29.29,0,0,1-.09.22.34.34,0,0,1-.23.08.36.36,0,0,1-.23-.08A.33.33,0,0,1,35.3,31.7Zm.6,2.66h-.57V32.25h.57Z"/><path class="cls-6" d="M38.46,33.33a1.26,1.26,0,0,1-.22.78.69.69,0,0,1-.6.29.64.64,0,0,1-.51-.22v1h-.57V32.25h.52l0,.21a.66.66,0,0,1,.54-.25.74.74,0,0,1,.61.29,1.33,1.33,0,0,1,.21.8Zm-.56,0a.84.84,0,0,0-.11-.46.32.32,0,0,0-.3-.16.36.36,0,0,0-.36.2v.87a.37.37,0,0,0,.37.21C37.76,34,37.9,33.73,37.9,33.29Z"/><path class="cls-6" d="M39.69,31.73v.52h.36v.42h-.36v1a.27.27,0,0,0,0,.17.26.26,0,0,0,.18,0l.16,0v.43a1,1,0,0,1-.34,0,.54.54,0,0,1-.61-.6V32.67h-.3v-.42h.3v-.52Z"/><path class="cls-6" d="M40.56,31.7a.25.25,0,0,1,.09-.2.29.29,0,0,1,.23-.09.32.32,0,0,1,.23.09.24.24,0,0,1,.08.2.29.29,0,0,1-.08.22.36.36,0,0,1-.23.08.34.34,0,0,1-.23-.08A.29.29,0,0,1,40.56,31.7Zm.6,2.66h-.57V32.25h.57Z"/><path class="cls-6" d="M41.74,33.29a1.25,1.25,0,0,1,.12-.56.86.86,0,0,1,.35-.38,1,1,0,0,1,.53-.14,1,1,0,0,1,.69.26,1.11,1.11,0,0,1,.31.71v.15a1.12,1.12,0,0,1-.27.78.94.94,0,0,1-.73.29.92.92,0,0,1-.73-.29,1.12,1.12,0,0,1-.27-.8Zm.56,0a.76.76,0,0,0,.12.46.35.35,0,0,0,.32.16.36.36,0,0,0,.32-.16.82.82,0,0,0,.11-.5.77.77,0,0,0-.11-.46.38.38,0,0,0-.32-.16.35.35,0,0,0-.32.16A.84.84,0,0,0,42.3,33.33Z"/><path class="cls-6" d="M44.81,32.25v.25a.76.76,0,0,1,.61-.29.61.61,0,0,1,.5.2.9.9,0,0,1,.17.59v1.36h-.56V33a.29.29,0,0,0-.34-.34.4.4,0,0,0-.36.2v1.49h-.56V32.25Z"/><rect class="cls-1" x="79" y="39" width="3" height="11"/></g></svg>