<?xml version="1.0" encoding="UTF-8"?>
<svg width="77px" height="60px" viewBox="0 0 77 60" version="1.1" xmlns="http://www.w3.org/2000/svg" xmlns:xlink="http://www.w3.org/1999/xlink">
    <!-- Generator: Sketch 54.1 (76490) - https://sketchapp.com -->
    <title>Group 39</title>
    <desc>Created with Sketch.</desc>
    <g id="Page-1" stroke="none" stroke-width="1" fill="none" fill-rule="evenodd">
        <g id="Desktop-Copy-2" transform="translate(-315.000000, -104.000000)">
            <g id="MegaMenu" transform="translate(0.000000, -0.000000)">
                <g id="cat-1" transform="translate(34.004000, 104.000000)">
                    <g id="Group-39" transform="translate(319.000000, 30.000000) scale(-1, 1) translate(-319.000000, -30.000000) translate(281.000000, 0.000000)">
                        <polygon id="Fill-1" fill="#FFFFFF" points="41 27 75.999 27 75.999 0 41 0"></polygon>
                        <path d="M41,27 L75.999,27 L75.999,0 L41,0 L41,27 Z M43,24.999 L74,24.999 L74,2 L43,2 L43,24.999 Z" id="Fill-2" fill="#298EE9"></path>
                        <polygon id="Fill-3" fill="#E8E8E8" points="43 6 74 6 74 2 43 2"></polygon>
                        <polygon id="Fill-4" fill="#FFFFFF" points="0 27 35 27 35 0 0 0"></polygon>
                        <path d="M0,27 L35,27 L35,0 L0,0 L0,27 Z M2,24.999 L33.001,24.999 L33.001,2 L2,2 L2,24.999 Z" id="Fill-5" fill="#464646"></path>
                        <polygon id="Fill-6" fill="#E8E8E8" points="2 6 33 6 33 2 2 2"></polygon>
                        <polygon id="Fill-7" fill="#FFFFFF" points="41 60 75.999 60 75.999 33 41 33"></polygon>
                        <path d="M41,60 L75.999,60 L75.999,33 L41,33 L41,60 Z M43,58 L74,58 L74,35 L43,35 L43,58 Z" id="Fill-8" fill="#464646"></path>
                        <polygon id="Fill-9" fill="#E8E8E8" points="43 39 74 39 74 35 43 35"></polygon>
                        <g id="Group-38" transform="translate(9.000000, 9.000000)">
                            <path d="M55,17.4287 L55,24.5717 C55,27.3327 52.762,29.5717 50,29.5717 C47.238,29.5717 45,27.3327 45,24.5717 L45,17.4287 C45,14.6667 47.238,12.4287 50,12.4287 C52.762,12.4287 55,14.6667 55,17.4287" id="Fill-10" fill="#FFFFFF"></path>
                            <path d="M46.4287,17.4287 L46.4287,20.2857 L47.7857,20.2857 L47.7857,17.4287 C47.7857,16.2067 48.7787,15.2137 49.9997,15.2137 C51.2217,15.2137 52.2137,16.2067 52.2137,17.4287 L52.2137,20.2857 L53.5717,20.2857 L53.5717,17.4287 C53.5717,15.4567 51.9717,13.8577 49.9997,13.8577 C48.0287,13.8577 46.4287,15.4567 46.4287,17.4287 L46.4287,17.4287 Z M49.2857,23.8577 L50.7137,23.8577 L50.7137,18.1427 L49.2857,18.1427 L49.2857,23.8577 Z M49.9997,26.7857 C48.7787,26.7857 47.7857,25.7927 47.7857,24.5717 L47.7857,21.7137 L46.4287,21.7137 L46.4287,24.5717 C46.4287,26.5427 48.0287,28.1427 49.9997,28.1427 C51.9717,28.1427 53.5717,26.5427 53.5717,24.5717 L53.5717,21.7137 L52.2137,21.7137 L52.2137,24.5717 C52.2137,25.7927 51.2217,26.7857 49.9997,26.7857 L49.9997,26.7857 Z" id="Fill-12" fill="#E1443D"></path>
                            <path d="M16.5,2 L0.5,2 C0.224,2 0,1.776 0,1.5 C0,1.224 0.224,1 0.5,1 L16.5,1 C16.776,1 17,1.224 17,1.5 C17,1.776 16.776,2 16.5,2" id="Fill-14" fill="#9B9B9B"></path>
                            <path d="M11,5 L6,5 C5.724,5 5.5,4.776 5.5,4.5 C5.5,4.224 5.724,4 6,4 L11,4 C11.276,4 11.5,4.224 11.5,4.5 C11.5,4.776 11.276,5 11,5" id="Fill-16" fill="#E1443D"></path>
                            <path d="M3.5,5 L0.5,5 C0.224,5 0,4.776 0,4.5 C0,4.224 0.224,4 0.5,4 L3.5,4 C3.776,4 4,4.224 4,4.5 C4,4.776 3.776,5 3.5,5" id="Fill-18" fill="#9B9B9B"></path>
                            <path d="M16.1504,5 L13.6884,5 C13.4124,5 13.1884,4.776 13.1884,4.5 C13.1884,4.224 13.4124,4 13.6884,4 L16.1504,4 C16.4264,4 16.6504,4.224 16.6504,4.5 C16.6504,4.776 16.4264,5 16.1504,5" id="Fill-20" fill="#9B9B9B"></path>
                            <path d="M16.5,8 L0.5,8 C0.224,8 0,7.776 0,7.5 C0,7.224 0.224,7 0.5,7 L16.5,7 C16.776,7 17,7.224 17,7.5 C17,7.776 16.776,8 16.5,8" id="Fill-22" fill="#9B9B9B"></path>
                            <path d="M6.5,11 L0.5,11 C0.224,11 0,10.776 0,10.5 C0,10.224 0.224,10 0.5,10 L6.5,10 C6.776,10 7,10.224 7,10.5 C7,10.776 6.776,11 6.5,11" id="Fill-24" fill="#9B9B9B"></path>
                            <path d="M57.5,35 L41.5,35 C41.224,35 41,34.776 41,34.5 C41,34.224 41.224,34 41.5,34 L57.5,34 C57.776,34 58,34.224 58,34.5 C58,34.776 57.776,35 57.5,35" id="Fill-26" fill="#9B9B9B"></path>
                            <path d="M57.5,38 L41.5,38 C41.224,38 41,37.776 41,37.5 C41,37.224 41.224,37 41.5,37 L57.5,37 C57.776,37 58,37.224 58,37.5 C58,37.776 57.776,38 57.5,38" id="Fill-28" fill="#9B9B9B"></path>
                            <path d="M57.5,41 L41.5,41 C41.224,41 41,40.776 41,40.5 C41,40.224 41.224,40 41.5,40 L57.5,40 C57.776,40 58,40.224 58,40.5 C58,40.776 57.776,41 57.5,41" id="Fill-30" fill="#9B9B9B"></path>
                            <path d="M45.5,44 L41.5,44 C41.224,44 41,43.776 41,43.5 C41,43.224 41.224,43 41.5,43 L45.5,43 C45.776,43 46,43.224 46,43.5 C46,43.776 45.776,44 45.5,44" id="Fill-32" fill="#E1443D"></path>
                            <path d="M32.5713,10 L25.4283,10 C22.6673,10 20.4283,7.762 20.4283,5 C20.4283,2.238 22.6673,0 25.4283,0 L32.5713,0 C35.3333,0 37.5713,2.238 37.5713,5 C37.5713,7.762 35.3333,10 32.5713,10" id="Fill-34" fill="#FFFFFF"></path>
                            <path d="M32.5713,1.4287 L29.7143,1.4287 L29.7143,2.7857 L32.5713,2.7857 C33.7933,2.7857 34.7863,3.7787 34.7863,4.9997 C34.7863,6.2217 33.7933,7.2137 32.5713,7.2137 L29.7143,7.2137 L29.7143,8.5717 L32.5713,8.5717 C34.5433,8.5717 36.1423,6.9717 36.1423,4.9997 C36.1423,3.0287 34.5433,1.4287 32.5713,1.4287 L32.5713,1.4287 Z M26.1423,5.7137 L31.8573,5.7137 L31.8573,4.2857 L26.1423,4.2857 L26.1423,5.7137 Z M23.2143,4.9997 C23.2143,3.7787 24.2073,2.7857 25.4283,2.7857 L28.2863,2.7857 L28.2863,1.4287 L25.4283,1.4287 C23.4573,1.4287 21.8573,3.0287 21.8573,4.9997 C21.8573,6.9717 23.4573,8.5717 25.4283,8.5717 L28.2863,8.5717 L28.2863,7.2137 L25.4283,7.2137 C24.2073,7.2137 23.2143,6.2217 23.2143,4.9997 L23.2143,4.9997 Z" id="Fill-36" fill="#E1443D"></path>
                        </g>
                    </g>
                </g>
            </g>
        </g>
    </g>
</svg>