<?xml version="1.0" encoding="UTF-8"?>
<svg width="75px" height="73px" viewBox="0 0 75 73" version="1.1" xmlns="http://www.w3.org/2000/svg" xmlns:xlink="http://www.w3.org/1999/xlink">
    <!-- Generator: Sketch 54.1 (76490) - https://sketchapp.com -->
    <title>Group 35</title>
    <desc>Created with Sketch.</desc>
    <defs>
        <polygon id="path-1" points="0 73 75 73 75 0 0 0"></polygon>
    </defs>
    <g id="Page-1" stroke="none" stroke-width="1" fill="none" fill-rule="evenodd">
        <g id="Desktop-Copy-2" transform="translate(-76.000000, -91.000000)">
            <g id="MegaMenu" transform="translate(0.000000, -0.000000)">
                <g id="cat-1" transform="translate(76.004000, 91.000000)">
                    <g id="Group-35">
                        <polygon id="Fill-1" fill="#E8C58B" points="16.5 71 58.5 71 58.5 43 16.5 43"></polygon>
                        <path d="M16.5,71 L58.5,71 L58.5,43 L16.5,43 L16.5,71 Z M18.5,69 L56.5,69 L56.5,45 L18.5,45 L18.5,69 Z" id="Fill-2" fill="#464646"></path>
                        <g id="Group-34">
                            <path d="M58.5,73 L16.5,73 C15.948,73 15.5,72.553 15.5,72 C15.5,71.447 15.948,71 16.5,71 L58.5,71 C59.052,71 59.5,71.447 59.5,72 C59.5,72.553 59.052,73 58.5,73" id="Fill-3" fill="#EAEAEA"></path>
                            <path d="M62.8003,27.9736 L67.7973,34.1146 C69.7283,36.4886 69.3703,39.9786 66.9963,41.9106 C64.6223,43.8416 61.1313,43.4836 59.1993,41.1096 L54.2033,34.9686 C52.2713,32.5946 52.6303,29.1046 55.0043,27.1726 C57.3783,25.2416 60.8683,25.5996 62.8003,27.9736" id="Fill-5" fill="#FFFFFF"></path>
                            <path d="M55.4312,33.9697 L57.4302,36.4257 L58.5972,35.4767 L56.5982,33.0207 C55.7432,31.9707 55.9032,30.4217 56.9522,29.5677 C58.0032,28.7127 59.5512,28.8717 60.4052,29.9227 L62.4042,32.3787 L63.5712,31.4297 L61.5722,28.9727 C60.1932,27.2787 57.6982,27.0227 56.0032,28.4017 C54.3082,29.7807 54.0522,32.2747 55.4312,33.9697 L55.4312,33.9697 Z M63.6132,36.4977 L59.6152,31.5857 L58.3872,32.5847 L62.3852,37.4977 L63.6132,36.4977 Z M65.0472,39.5157 C63.9972,40.3697 62.4492,40.2107 61.5952,39.1607 L59.5962,36.7047 L58.4292,37.6547 L60.4282,40.1107 C61.8072,41.8047 64.3022,42.0617 65.9962,40.6827 C67.6912,39.3027 67.9482,36.8087 66.5692,35.1137 L64.5702,32.6577 L63.4032,33.6067 L65.4022,36.0637 C66.2562,37.1137 66.0972,38.6607 65.0472,39.5157 L65.0472,39.5157 Z" id="Fill-7" fill="#464646"></path>
                            <polygon id="Fill-9" fill="#298EE9" points="52.1182 19.5625 54.1142 21.2415 50.5362 25.4945 47.0512 22.5615 41.6192 29.0275 42.8482 30.0605 47.2462 24.8325 50.7322 27.7645 55.3512 22.2825 57.3472 23.9605 56.9312 19.1475"></polygon>
                            <path d="M15.4307,33.1025 L16.7787,31.1165 L21.0347,34.0045 L19.6857,35.9905 L15.4307,33.1025 Z M7.0617,33.2235 L8.4097,31.2385 L18.3387,37.9765 L16.9907,39.9615 L7.0617,33.2235 Z M7.3447,39.2165 L8.7887,37.0885 L15.7397,41.8065 L14.2957,43.9335 L7.3447,39.2165 Z" id="Fill-11" fill="#E1443D"></path>
                            <path d="M32.1924,11.7441 L17.7124,17.5471 L24.4074,34.2561 L38.8884,28.4531 L32.1924,11.7441 Z M31.0804,14.3451 L36.2874,27.3401 L25.5204,31.6551 L20.3124,18.6601 L31.0804,14.3451 Z" id="Fill-13" fill="#464646"></path>
                            <path d="M22.5635,20.5244 C22.3655,20.5244 22.1775,20.4054 22.0995,20.2104 C21.9965,19.9544 22.1215,19.6634 22.3775,19.5604 L27.0185,17.7014 C27.2755,17.5984 27.5655,17.7224 27.6685,17.9794 C27.7715,18.2354 27.6465,18.5264 27.3905,18.6284 L22.7495,20.4884 C22.6885,20.5124 22.6255,20.5244 22.5635,20.5244" id="Fill-15" fill="#464646"></path>
                            <path d="M23.6792,23.3096 C23.4812,23.3096 23.2932,23.1906 23.2152,22.9956 C23.1122,22.7396 23.2372,22.4486 23.4932,22.3456 L29.9912,19.7426 C30.2462,19.6396 30.5372,19.7636 30.6412,20.0206 C30.7432,20.2766 30.6192,20.5676 30.3632,20.6696 L23.8652,23.2736 C23.8042,23.2976 23.7412,23.3096 23.6792,23.3096" id="Fill-17" fill="#808080"></path>
                            <path d="M24.7949,26.0937 C24.5969,26.0937 24.4089,25.9747 24.3309,25.7797 C24.2279,25.5237 24.3529,25.2327 24.6089,25.1297 L31.1069,22.5267 C31.3629,22.4227 31.6539,22.5487 31.7569,22.8047 C31.8599,23.0607 31.7349,23.3517 31.4789,23.4537 L24.9809,26.0577 C24.9199,26.0817 24.8569,26.0937 24.7949,26.0937" id="Fill-19" fill="#808080"></path>
                            <mask id="mask-2" fill="white">
                                <use xlink:href="#path-1"></use>
                            </mask>
                            <g id="Clip-22"></g>
                            <polygon id="Fill-21" fill="#D1B27F" mask="url(#mask-2)" points="18.5 57 56.5 57 56.5 55 18.5 55"></polygon>
                            <polygon id="Fill-23" fill="#E5CCA8" mask="url(#mask-2)" points="16.5 43 11.5 55 63.5 55 58.5 43"></polygon>
                            <path d="M58.5,43 L16.5,43 L11.5,55 L63.5,55 L58.5,43 Z M57.167,45 L60.5,53 L14.5,53 L17.833,45 L57.167,45 Z" id="Fill-24" fill="#464646" mask="url(#mask-2)"></path>
                            <polygon id="Fill-25" fill="#808080" mask="url(#mask-2)" points="28.5 66.5 25 66.5 21.5 66.5 25 66.5"></polygon>
                            <polygon id="Fill-26" fill="#464646" mask="url(#mask-2)" points="21.5 67 28.5 67 28.5 66 21.5 66"></polygon>
                            <path d="M12.4819,24.0059 C11.5409,24.2999 10.5449,23.7769 10.2509,22.8369 C9.9579,21.8959 10.4799,20.8999 11.4199,20.6059 C12.3609,20.3129 13.3579,20.8349 13.6509,21.7759 C13.9449,22.7159 13.4219,23.7129 12.4819,24.0059 L12.4819,24.0059 Z M14.7489,23.2989 L14.4499,23.3919 L14.3129,23.3229 C14.5479,22.7769 14.5969,22.1489 14.4069,21.5399 C13.9839,20.1839 12.5409,19.4269 11.1849,19.8509 C9.8289,20.2739 9.0719,21.7159 9.4949,23.0719 C9.9189,24.4289 11.3609,25.1859 12.7179,24.7619 C13.3259,24.5719 13.8149,24.1749 14.1309,23.6699 L14.2659,23.7439 L14.3589,24.0419 L16.8359,25.3379 L17.2239,24.5999 L14.7489,23.2989 Z" id="Fill-27" fill="#464646" mask="url(#mask-2)"></path>
                            <path d="M43.8198,7.9189 C41.0098,7.5719 38.4508,9.5689 38.1038,12.3799 L37.6158,16.3369 C37.4998,17.2749 38.1638,18.1269 39.1028,18.2419 L40.7988,18.4509 L41.3568,13.9289 L39.0948,13.6489 L39.2348,12.5199 C39.5048,10.3309 41.4918,8.7799 43.6798,9.0499 C45.8678,9.3189 47.4198,11.3079 47.1498,13.4949 L47.0098,14.6259 L44.7488,14.3469 L44.1908,18.8699 L46.4528,19.1479 L46.3828,19.7139 L42.4248,19.2269 L42.2858,20.3569 L45.6778,20.7749 C46.6158,20.8909 47.4668,20.2269 47.5828,19.2879 L48.2798,13.6349 C48.6268,10.8249 46.6298,8.2659 43.8198,7.9189" id="Fill-28" fill="#464646" mask="url(#mask-2)"></path>
                            <path d="M74,44.5 L69,44.5 C68.448,44.5 68,44.053 68,43.5 C68,42.947 68.448,42.5 69,42.5 L74,42.5 C74.552,42.5 75,42.947 75,43.5 C75,44.053 74.552,44.5 74,44.5" id="Fill-29" fill="#FFC957" mask="url(#mask-2)"></path>
                            <path d="M6,45.5 L1,45.5 C0.448,45.5 0,45.053 0,44.5 C0,43.947 0.448,43.5 1,43.5 L6,43.5 C6.552,43.5 7,43.947 7,44.5 C7,45.053 6.552,45.5 6,45.5" id="Fill-30" fill="#FFC957" mask="url(#mask-2)"></path>
                            <path d="M37.5,7 C36.948,7 36.5,6.553 36.5,6 L36.5,1 C36.5,0.447 36.948,0 37.5,0 C38.052,0 38.5,0.447 38.5,1 L38.5,6 C38.5,6.553 38.052,7 37.5,7" id="Fill-31" fill="#FFC957" mask="url(#mask-2)"></path>
                            <path d="M14.7676,17.2676 C14.5116,17.2676 14.2556,17.1696 14.0606,16.9746 L10.5256,13.4396 C10.1346,13.0486 10.1346,12.4156 10.5256,12.0256 C10.9156,11.6346 11.5486,11.6346 11.9396,12.0256 L15.4746,15.5606 C15.8656,15.9516 15.8656,16.5836 15.4746,16.9746 C15.2796,17.1696 15.0236,17.2676 14.7676,17.2676" id="Fill-32" fill="#FFC957" mask="url(#mask-2)"></path>
                            <path d="M59.2324,17.2676 C58.9764,17.2676 58.7204,17.1696 58.5254,16.9746 C58.1344,16.5836 58.1344,15.9516 58.5254,15.5606 L62.0604,12.0256 C62.4514,11.6346 63.0844,11.6346 63.4744,12.0256 C63.8654,12.4156 63.8654,13.0486 63.4744,13.4396 L59.9394,16.9746 C59.7444,17.1696 59.4884,17.2676 59.2324,17.2676" id="Fill-33" fill="#FFC957" mask="url(#mask-2)"></path>
                        </g>
                    </g>
                </g>
            </g>
        </g>
    </g>
</svg>