<svg xmlns="http://www.w3.org/2000/svg" viewBox="0 0 80 55"><defs><style>.cls-1{fill:#298ee9;}.cls-2{fill:#464646;}.cls-3{fill:#eaeaea;}.cls-4{fill:#fff;}</style></defs><title>illustration__blogger--new-post</title><g id="Layer_1" data-name="Layer 1"><rect class="cls-1" x="4" y="8" width="70" height="25"/><path class="cls-2" d="M72,10V31H6V10H72m2-2H4V33H74V8Z"/><path class="cls-3" d="M68.08,35H3.92a1,1,0,0,1,0-2H68.08a1,1,0,0,1,0,2Z"/><path class="cls-4" d="M53,45H51V39a1,1,0,0,1,.55-.89L55,36.38V27a1,1,0,0,1,1-1h8a1,1,0,0,1,1,1v6h6a1,1,0,0,1,.45.11l4,2-.9,1.78L70.76,35H64a1,1,0,0,1-1-1V29H57v8a1,1,0,0,1-.55.89L53,39.62Z"/><polygon class="cls-4" points="58 38 58 29 62 29 62 36 67 36 71 38 71 49 58.03 49 55 46 55 40 58 38 58 38"/><path class="cls-2" d="M72,50H57.61L54,46.42v-7l3-2V29a1,1,0,0,1,1-1h4a1,1,0,0,1,1,1v6h4.24L72,37.38ZM58.44,48H70V38.62L66.76,37H61V30H59v8.54l-3,2v5Z"/><rect class="cls-2" x="61" y="36" width="1" height="5"/><rect class="cls-2" x="64" y="36" width="1" height="5"/><rect class="cls-2" x="67" y="36" width="1" height="5"/><rect class="cls-2" x="58" y="38" width="1" height="5"/><path class="cls-4" d="M26.59,23.3H25.41l-2.28-3.74V23.3H22V17.62h1.17l2.29,3.75V17.62h1.17Z"/><path class="cls-4" d="M29.88,23.38a2.07,2.07,0,0,1-1.51-.57,2,2,0,0,1-.59-1.52v-.11A2.65,2.65,0,0,1,28,20a1.8,1.8,0,0,1,.7-.77,2,2,0,0,1,1-.27,1.76,1.76,0,0,1,1.36.54,2.27,2.27,0,0,1,.5,1.56v.46H28.93a1,1,0,0,0,.33.66,1,1,0,0,0,.7.25A1.21,1.21,0,0,0,31,22l.56.62a1.66,1.66,0,0,1-.69.56A2.32,2.32,0,0,1,29.88,23.38Zm-.13-3.47a.68.68,0,0,0-.54.23,1.15,1.15,0,0,0-.27.65h1.57V20.7a.89.89,0,0,0-.2-.59A.77.77,0,0,0,29.75,19.91Z"/><path class="cls-4" d="M36.34,21.77l.55-2.69H38L36.9,23.3H36l-.8-2.66-.81,2.66h-.94l-1.07-4.22h1.09L34,21.76l.77-2.68h.82Z"/><path class="cls-4" d="M42.58,21.3v2H41.41V17.62h2.21a2.51,2.51,0,0,1,1.13.23,1.75,1.75,0,0,1,.75.67,1.86,1.86,0,0,1,.26,1,1.63,1.63,0,0,1-.57,1.32,2.4,2.4,0,0,1-1.59.48Zm0-.95h1a1,1,0,0,0,.71-.22.76.76,0,0,0,.25-.62.92.92,0,0,0-.25-.68.94.94,0,0,0-.68-.27H42.58Z"/><path class="cls-4" d="M46.66,21.15A2.53,2.53,0,0,1,46.91,20a1.76,1.76,0,0,1,.69-.76A2.06,2.06,0,0,1,48.66,19a1.93,1.93,0,0,1,1.4.52,2.09,2.09,0,0,1,.6,1.42v.29a2.21,2.21,0,0,1-.54,1.56,1.91,1.91,0,0,1-1.46.59,1.86,1.86,0,0,1-1.46-.59,2.26,2.26,0,0,1-.55-1.59Zm1.13.08a1.58,1.58,0,0,0,.23.92.76.76,0,0,0,.65.32.74.74,0,0,0,.64-.31,1.77,1.77,0,0,0,.23-1,1.6,1.6,0,0,0-.23-.92.76.76,0,0,0-.65-.32.74.74,0,0,0-.64.32A1.78,1.78,0,0,0,47.79,21.23Z"/><path class="cls-4" d="M54.05,22.13a.37.37,0,0,0-.2-.32,2.32,2.32,0,0,0-.66-.21c-1-.22-1.51-.64-1.51-1.29a1.16,1.16,0,0,1,.47-.93A1.84,1.84,0,0,1,53.37,19a2,2,0,0,1,1.29.38,1.19,1.19,0,0,1,.48,1H54a.54.54,0,0,0-.16-.4.66.66,0,0,0-.48-.16.75.75,0,0,0-.45.13.43.43,0,0,0-.15.33.34.34,0,0,0,.18.3,1.52,1.52,0,0,0,.59.2,5.63,5.63,0,0,1,.72.19,1.17,1.17,0,0,1,.89,1.14,1.1,1.1,0,0,1-.5.93,2.11,2.11,0,0,1-1.28.36,2.16,2.16,0,0,1-.94-.19,1.54,1.54,0,0,1-.65-.52,1.25,1.25,0,0,1-.23-.71h1.07a.58.58,0,0,0,.22.46.87.87,0,0,0,.56.16.84.84,0,0,0,.49-.12A.38.38,0,0,0,54.05,22.13Z"/><path class="cls-4" d="M57.63,18v1h.72v.82h-.72V22a.51.51,0,0,0,.09.34.43.43,0,0,0,.34.1,1.55,1.55,0,0,0,.33,0v.86a2.24,2.24,0,0,1-.68.1,1.08,1.08,0,0,1-1.21-1.2V19.9h-.62v-.82h.62V18Z"/></g></svg>