<svg xmlns="http://www.w3.org/2000/svg" viewBox="0 0 80 55"><defs><style>.cls-1{fill:#fff;}.cls-2{fill:#298ee9;}.cls-3{fill:#464646;}.cls-4{fill:#bcbcbc;}.cls-5{fill:none;stroke:#464646;stroke-linecap:round;stroke-miterlimit:10;stroke-width:2px;}</style></defs><title>illustration__blogger--paste</title><g id="Layer_1" data-name="Layer 1"><rect class="cls-1" x="6" y="4" width="68" height="47"/><rect class="cls-2" x="6" y="20" width="68" height="16"/><path class="cls-1" d="M51,48H49V42a1,1,0,0,1,.55-.89L52,39.38V30a1,1,0,0,1,1-1h8a1,1,0,0,1,1,1v6h6a1,1,0,0,1,.45.11l4,2-.9,1.78L67.76,38H61a1,1,0,0,1-1-1V32H54v8a1,1,0,0,1-.55.89L51,42.62Z"/><polygon class="cls-1" points="55 41 55 32 59 32 59 39 64 39 68 41 68 52 55.03 52 52 49 52 43 55 41 55 41"/><path class="cls-3" d="M68,53H55a1,1,0,0,1-.71-.29l-3-3A1,1,0,0,1,51,49V43a1,1,0,0,1,.45-.83L54,40.46V32a1,1,0,0,1,1-1h4a1,1,0,0,1,1,1v6h4a1,1,0,0,1,.45.11l4,2A1,1,0,0,1,69,41V52A1,1,0,0,1,68,53ZM55.44,51H67V41.62L63.76,40H58V33H56v8.54l-3,2v5Z"/><rect class="cls-3" x="58" y="39" width="1" height="5"/><rect class="cls-3" x="61" y="39" width="1" height="5"/><rect class="cls-3" x="64" y="39" width="1" height="5"/><rect class="cls-3" x="55" y="41" width="1" height="5"/><path class="cls-1" d="M14.43,29.15v2H13.26V25.46h2.22a2.54,2.54,0,0,1,1.13.24,1.79,1.79,0,0,1,.75.66,1.92,1.92,0,0,1,.26,1A1.64,1.64,0,0,1,17,28.67a2.37,2.37,0,0,1-1.58.48Zm0-.95h1.05a1.06,1.06,0,0,0,.71-.22.82.82,0,0,0,.24-.63.88.88,0,0,0-.92-.94H14.43Z"/><path class="cls-1" d="M21.15,31.15a1.22,1.22,0,0,1-.11-.38,1.35,1.35,0,0,1-1.07.46,1.52,1.52,0,0,1-1-.36,1.16,1.16,0,0,1-.4-.91,1.2,1.2,0,0,1,.49-1,2.47,2.47,0,0,1,1.44-.36H21v-.24a.7.7,0,0,0-.15-.47.58.58,0,0,0-.47-.18.69.69,0,0,0-.45.14.46.46,0,0,0-.16.37H18.63a1.16,1.16,0,0,1,.23-.68A1.54,1.54,0,0,1,19.5,27a2.45,2.45,0,0,1,.93-.17,1.86,1.86,0,0,1,1.24.39,1.39,1.39,0,0,1,.46,1.1v1.83a2.09,2.09,0,0,0,.16.91v.07Zm-.93-.78a.9.9,0,0,0,.46-.12A.67.67,0,0,0,21,30v-.73h-.42c-.56,0-.86.19-.9.59v.06a.45.45,0,0,0,.14.35A.6.6,0,0,0,20.22,30.37Z"/><path class="cls-1" d="M25.68,30a.37.37,0,0,0-.2-.32,2.63,2.63,0,0,0-.66-.22c-1-.21-1.51-.63-1.51-1.28a1.17,1.17,0,0,1,.47-.94A1.89,1.89,0,0,1,25,26.85a2,2,0,0,1,1.29.38,1.19,1.19,0,0,1,.48,1H25.64a.54.54,0,0,0-.16-.4.62.62,0,0,0-.48-.16.69.69,0,0,0-.45.13.43.43,0,0,0-.15.33.35.35,0,0,0,.18.3,1.71,1.71,0,0,0,.59.2,5.63,5.63,0,0,1,.72.19,1.17,1.17,0,0,1,.89,1.14,1.11,1.11,0,0,1-.5.93,2.11,2.11,0,0,1-1.28.36,2.16,2.16,0,0,1-.94-.19,1.62,1.62,0,0,1-.65-.52,1.25,1.25,0,0,1-.23-.71h1.07a.58.58,0,0,0,.22.46.87.87,0,0,0,.56.16.84.84,0,0,0,.49-.12A.39.39,0,0,0,25.68,30Z"/><path class="cls-1" d="M29.26,25.89v1H30v.83h-.72v2.11a.51.51,0,0,0,.09.34.43.43,0,0,0,.34.1,1.55,1.55,0,0,0,.33,0v.86a2.2,2.2,0,0,1-.68.1A1.08,1.08,0,0,1,28.13,30V27.75h-.62v-.83h.62v-1Z"/><path class="cls-1" d="M33,31.23a2.09,2.09,0,0,1-1.52-.57,2,2,0,0,1-.58-1.52V29a2.64,2.64,0,0,1,.24-1.14,1.87,1.87,0,0,1,.7-.77,2,2,0,0,1,1-.27,1.79,1.79,0,0,1,1.37.54,2.25,2.25,0,0,1,.49,1.55v.47H32a1.1,1.1,0,0,0,.33.66,1,1,0,0,0,.7.25,1.24,1.24,0,0,0,1-.47l.55.62a1.71,1.71,0,0,1-.68.56A2.32,2.32,0,0,1,33,31.23Zm-.13-3.47a.71.71,0,0,0-.55.22,1.21,1.21,0,0,0-.27.66h1.57v-.09a.83.83,0,0,0-.2-.59A.74.74,0,0,0,32.83,27.76Z"/><path class="cls-4" d="M16.73,13.26a2,2,0,0,1-.68,1.44,2.4,2.4,0,0,1-1.61.53,2.13,2.13,0,0,1-1.72-.74,3,3,0,0,1-.63-2v-.35a3.46,3.46,0,0,1,.29-1.44,2.12,2.12,0,0,1,.83-1,2.3,2.3,0,0,1,1.24-.33A2.33,2.33,0,0,1,16,9.91a2.16,2.16,0,0,1,.69,1.48H15.56a1.25,1.25,0,0,0-.3-.8,1.19,1.19,0,0,0-.81-.24,1,1,0,0,0-.87.42,2.25,2.25,0,0,0-.3,1.3v.43a2.52,2.52,0,0,0,.28,1.35,1,1,0,0,0,.88.42,1.14,1.14,0,0,0,.81-.25,1.07,1.07,0,0,0,.3-.76Z"/><path class="cls-4" d="M17.65,13a2.52,2.52,0,0,1,.24-1.12,1.72,1.72,0,0,1,.7-.76,2,2,0,0,1,1.05-.27,1.93,1.93,0,0,1,1.4.52,2.09,2.09,0,0,1,.6,1.42v.29a2.21,2.21,0,0,1-.54,1.56,2.1,2.1,0,0,1-2.92,0,2.25,2.25,0,0,1-.54-1.59Zm1.12.08A1.58,1.58,0,0,0,19,14a.81.81,0,0,0,1.29,0,1.73,1.73,0,0,0,.23-1,1.6,1.6,0,0,0-.23-.92.76.76,0,0,0-.65-.32.73.73,0,0,0-.64.32A1.76,1.76,0,0,0,18.77,13.08Z"/><path class="cls-4" d="M26.55,13.08a2.55,2.55,0,0,1-.44,1.56,1.44,1.44,0,0,1-1.2.59,1.33,1.33,0,0,1-1-.45v2H22.75V10.92h1l0,.42a1.31,1.31,0,0,1,1.07-.49,1.45,1.45,0,0,1,1.22.57,2.62,2.62,0,0,1,.43,1.6ZM25.42,13a1.69,1.69,0,0,0-.21-.92.69.69,0,0,0-.61-.32.75.75,0,0,0-.73.41V13.9a.76.76,0,0,0,.74.42Q25.42,14.32,25.42,13Z"/><path class="cls-4" d="M29.18,13.55,30,10.92h1.21l-1.7,4.89-.1.22a1.29,1.29,0,0,1-1.25.83,1.8,1.8,0,0,1-.5-.08v-.85h.18a.84.84,0,0,0,.47-.1.59.59,0,0,0,.25-.32l.14-.35-1.49-4.24H28.4Z"/><path class="cls-4" d="M16.73,45.26a2,2,0,0,1-.68,1.44,2.4,2.4,0,0,1-1.61.53,2.13,2.13,0,0,1-1.72-.74,3,3,0,0,1-.63-2v-.35a3.46,3.46,0,0,1,.29-1.44,2.12,2.12,0,0,1,.83-1,2.3,2.3,0,0,1,1.24-.33,2.33,2.33,0,0,1,1.59.52,2.16,2.16,0,0,1,.69,1.48H15.56a1.25,1.25,0,0,0-.3-.8,1.19,1.19,0,0,0-.81-.24,1,1,0,0,0-.87.42,2.25,2.25,0,0,0-.3,1.3v.43a2.52,2.52,0,0,0,.28,1.35,1,1,0,0,0,.88.42,1.14,1.14,0,0,0,.81-.25,1.07,1.07,0,0,0,.3-.76Z"/><path class="cls-4" d="M20.35,46.72a1.41,1.41,0,0,1-1.15.51,1.34,1.34,0,0,1-1-.39,1.68,1.68,0,0,1-.37-1.15V42.92h1.13v2.74q0,.66.6.66a.8.8,0,0,0,.79-.4v-3h1.14v4.23H20.38Z"/><path class="cls-4" d="M24.05,41.89v1h.72v.83h-.72v2.11a.51.51,0,0,0,.09.34.43.43,0,0,0,.34.1,1.72,1.72,0,0,0,.34,0v.86a2.3,2.3,0,0,1-.69.1A1.08,1.08,0,0,1,22.92,46V43.75H22.3v-.83h.62v-1Z"/><line class="cls-5" x1="5" y1="4" x2="5" y2="51"/><line class="cls-5" x1="75" y1="4" x2="75" y2="51"/></g></svg>