<?xml version="1.0" encoding="UTF-8"?>
<svg width="441px" height="189px" viewBox="0 0 441 189" version="1.1" xmlns="http://www.w3.org/2000/svg" xmlns:xlink="http://www.w3.org/1999/xlink">
    <!-- Generator: Sketch 52.4 (67378) - http://www.bohemiancoding.com/sketch -->
    <title>graph</title>
    <desc>Created with Sketch.</desc>
    <defs>
        <linearGradient x1="50%" y1="0%" x2="50%" y2="100%" id="linearGradient-1">
            <stop stop-color="#3EAFE6" stop-opacity="0.270465353" offset="0%"></stop>
            <stop stop-color="#1D77C9" stop-opacity="0.0540930707" offset="100%"></stop>
        </linearGradient>
        <path d="M12,-3.2720493e-12 L35,-3.37330164e-12 C41.627417,-3.37451907e-12 47,5.372583 47,12 L47,12 C47,18.627417 41.627417,24 35,24 L27,24 L24.0148605,27 L20.9715841,24 L12,24 C5.372583,24 6.07103486e-13,18.627417 0,12 L-2.16360263e-12,12 C-2.77070612e-12,5.372583 5.372583,-3.76232853e-12 12,-4.36983782e-12 Z" id="path-2"></path>
        <filter x="-51.1%" y="-77.8%" width="202.1%" height="277.8%" filterUnits="objectBoundingBox" id="filter-3">
            <feOffset dx="0" dy="3" in="SourceAlpha" result="shadowOffsetOuter1"></feOffset>
            <feGaussianBlur stdDeviation="7.5" in="shadowOffsetOuter1" result="shadowBlurOuter1"></feGaussianBlur>
            <feColorMatrix values="0 0 0 0 0   0 0 0 0 0   0 0 0 0 0  0 0 0 0.0842957428 0" type="matrix" in="shadowBlurOuter1"></feColorMatrix>
        </filter>
        <path d="M12,-3.26494387e-12 L35,-3.47988305e-12 C41.627417,-3.48110049e-12 47,5.372583 47,12 L47,12 C47,18.627417 41.627417,24 35,24 L27,24 L24.0148605,27 L20.9715841,24 L12,24 C5.372583,24 3.53084458e-13,18.627417 -2.54019028e-13,12 L-2.1938007e-12,12 C-2.80090418e-12,5.372583 5.372583,-3.7552231e-12 12,-4.3627324e-12 Z" id="path-4"></path>
        <filter x="-51.1%" y="-77.8%" width="202.1%" height="277.8%" filterUnits="objectBoundingBox" id="filter-5">
            <feOffset dx="0" dy="3" in="SourceAlpha" result="shadowOffsetOuter1"></feOffset>
            <feGaussianBlur stdDeviation="7.5" in="shadowOffsetOuter1" result="shadowBlurOuter1"></feGaussianBlur>
            <feColorMatrix values="0 0 0 0 0   0 0 0 0 0   0 0 0 0 0  0 0 0 0.08 0" type="matrix" in="shadowBlurOuter1"></feColorMatrix>
        </filter>
    </defs>
    <g id="Page-1" stroke="none" stroke-width="1" fill="none" fill-rule="evenodd">
        <g id="Desktop-HD" transform="translate(-789.000000, -2073.000000)">
            <g id="section__rank-tracker" transform="translate(0.000000, 1889.000000)">
                <g id="graph" transform="translate(786.000000, 196.000000)">
                    <path d="M53.0043476,173.128886 L53.0043476,84.154099 C70.0578571,64.0057271 92.4805355,48.9367773 120.272383,38.9472495 C126,36.8885095 171.680373,36.8885095 178.049459,38.9472495 C184.418545,41.0059896 216.401232,52.8260803 238.609069,68.5932446 C238.837077,68.755126 275.360821,98.4565127 298.18041,98.4565127 C321,98.4565127 348.122598,65.7161717 358,38.9472495 C359.366107,35.24494 379.69944,38.5841487 419,48.9648758 L419,173.128886 L53.0043476,173.128886 Z" id="Path-3" fill="url(#linearGradient-1)" fill-rule="nonzero"></path>
                    <path d="M59,78.4211854 C73.518491,61.9006055 94.2032396,48.6082287 121.054246,38.544055 C134,33.6917854 168.302427,36.485315 178.831322,38.544055 C189.360216,40.6027951 217.183094,52.4228858 239.390931,68.1900501 C239.618939,68.3519315 277.924546,98.0533182 298.962273,98.0533182 C320,98.0533182 342.862474,73.8585259 358.781863,38.544055 C360.624213,34.4571122 380.957546,37.796321 419.781863,48.5616813" id="Path-3" stroke="#FFFFFF" stroke-width="2" fill-rule="nonzero"></path>
                    <g id="y-axis" transform="translate(53.000000, 27.000000)" fill-rule="nonzero" stroke="#FFFFFF" stroke-linecap="round">
                        <path d="M0,146.5 L390,146.5" id="Line-4"></path>
                        <path d="M0,120.5 L390,120.5" id="Line-4" stroke-opacity="0.0999490489"></path>
                        <path d="M0,90.5 L390,90.5" id="Line-4" stroke-opacity="0.0999490489"></path>
                        <path d="M0,60.5 L390,60.5" id="Line-4" stroke-opacity="0.0999490489"></path>
                        <path d="M0,30.5 L390,30.5" id="Line-4" stroke-opacity="0.0999490489"></path>
                        <path d="M0,0.5 L390,0.5" id="Line-4" stroke-opacity="0.0999490489"></path>
                    </g>
                    <g id="points" transform="translate(56.000000, 36.000000)" fill="#FFFFFF" fill-rule="nonzero" stroke="#145FA4" stroke-width="4">
                        <circle id="Oval" cx="2.5" cy="42.5" r="4.5"></circle>
                        <circle id="Oval" cx="64.5" cy="2.5" r="4.5"></circle>
                        <circle id="Oval" cx="122.5" cy="2.5" r="4.5"></circle>
                        <circle id="Oval" cx="182.5" cy="32.5" r="4.5"></circle>
                        <circle id="Oval" cx="242.5" cy="62.5" r="4.5"></circle>
                        <circle id="Oval" cx="302.5" cy="2.5" r="4.5"></circle>
                        <circle id="Oval" cx="362.5" cy="12.5" r="4.5"></circle>
                    </g>
                    <polygon id="Line-5" fill="#FFFFFF" fill-rule="nonzero" points="52.5 26.5 53.5 26.5 53.5 174 52.5 174"></polygon>
                    <g id="y-axis-labels" transform="translate(0.000000, 52.000000)" fill="#FFFFFF">
                        <path d="M34.31,96.29 C34.31,95.44 35,94.83 35.81,94.56 C35.06,94.32 34.42,93.83 34.42,92.98 C34.42,91.75 35.68,91.23 36.87,91.23 C38.04,91.23 39.32,91.75 39.32,92.98 C39.32,93.83 38.67,94.32 37.92,94.56 C38.73,94.83 39.42,95.44 39.42,96.29 C39.42,97.48 38.23,98.12 36.87,98.12 C35.5,98.12 34.31,97.49 34.31,96.29 Z M38.13,93.16 C38.13,92.6 37.58,92.27 36.87,92.27 C36.14,92.27 35.6,92.6 35.6,93.16 C35.6,93.79 36.46,94.03 36.87,94.1 C37.28,94.03 38.13,93.79 38.13,93.16 Z M38.24,96.14 C38.24,95.45 37.28,95.14 36.87,95.09 C36.45,95.14 35.49,95.45 35.49,96.14 C35.49,96.72 36.11,97.08 36.87,97.08 C37.61,97.08 38.24,96.72 38.24,96.14 Z M40.25,94.67 C40.25,92.99 41.05,91.23 42.92,91.23 C44.79,91.23 45.59,92.99 45.59,94.67 C45.59,96.35 44.79,98.12 42.92,98.12 C41.05,98.12 40.25,96.35 40.25,94.67 Z M44.4,94.67 C44.4,93.4 44.01,92.27 42.92,92.27 C41.83,92.27 41.44,93.4 41.44,94.67 C41.44,95.94 41.83,97.08 42.92,97.08 C44.01,97.08 44.4,95.94 44.4,94.67 Z" id="80" fill-opacity="0.75"></path>
                        <path d="M26.78,124 L26.78,118.85 L25.69,119.98 L25.01,119.27 L26.93,117.33 L27.95,117.33 L27.95,124 L26.78,124 Z M29.07,120.67 C29.07,118.99 29.87,117.23 31.74,117.23 C33.61,117.23 34.41,118.99 34.41,120.67 C34.41,122.35 33.61,124.12 31.74,124.12 C29.87,124.12 29.07,122.35 29.07,120.67 Z M33.22,120.67 C33.22,119.4 32.83,118.27 31.74,118.27 C30.65,118.27 30.26,119.4 30.26,120.67 C30.26,121.94 30.65,123.08 31.74,123.08 C32.83,123.08 33.22,121.94 33.22,120.67 Z M35.23,120.67 C35.23,118.99 36.03,117.23 37.9,117.23 C39.77,117.23 40.57,118.99 40.57,120.67 C40.57,122.35 39.77,124.12 37.9,124.12 C36.03,124.12 35.23,122.35 35.23,120.67 Z M39.38,120.67 C39.38,119.4 38.99,118.27 37.9,118.27 C36.81,118.27 36.42,119.4 36.42,120.67 C36.42,121.94 36.81,123.08 37.9,123.08 C38.99,123.08 39.38,121.94 39.38,120.67 Z M43.86,120.97 L43.86,123.04 L43.12,123.04 L43.12,120.97 L41.27,120.97 L41.27,120.29 L43.12,120.29 L43.12,118.29 L43.86,118.29 L43.86,120.29 L45.71,120.29 L45.71,120.97 L43.86,120.97 Z" id="100+" fill-opacity="0.75"></path>
                        <path d="M34.24,64.68 C34.24,62.75 35.25,61.23 37.18,61.23 C38.01,61.23 38.65,61.53 39.1,61.97 L38.55,62.86 C38.2,62.49 37.82,62.27 37.18,62.27 C36.07,62.27 35.42,63.3 35.42,64.47 C35.42,64.54 35.42,64.6 35.43,64.66 C35.73,64.21 36.43,63.73 37.22,63.73 C38.42,63.73 39.45,64.46 39.45,65.88 C39.45,67.12 38.48,68.12 36.99,68.12 C35.03,68.12 34.24,66.53 34.24,64.68 Z M38.27,65.92 C38.27,65.1 37.63,64.73 36.9,64.73 C36.33,64.73 35.78,65.04 35.44,65.52 C35.51,66.24 35.9,67.08 36.93,67.08 C37.81,67.08 38.27,66.46 38.27,65.92 Z M40.25,64.67 C40.25,62.99 41.05,61.23 42.92,61.23 C44.79,61.23 45.59,62.99 45.59,64.67 C45.59,66.35 44.79,68.12 42.92,68.12 C41.05,68.12 40.25,66.35 40.25,64.67 Z M44.4,64.67 C44.4,63.4 44.01,62.27 42.92,62.27 C41.83,62.27 41.44,63.4 41.44,64.67 C41.44,65.94 41.83,67.08 42.92,67.08 C44.01,67.08 44.4,65.94 44.4,64.67 Z" id="60" fill-opacity="0.75"></path>
                        <path d="M37.5,38 L37.5,36.49 L34.32,36.49 L34.32,35.55 L37.06,31.33 L38.67,31.33 L38.67,35.46 L39.56,35.46 L39.56,36.49 L38.67,36.49 L38.67,38 L37.5,38 Z M37.5,32.38 L35.47,35.46 L37.5,35.46 L37.5,32.38 Z M40.25,34.67 C40.25,32.99 41.05,31.23 42.92,31.23 C44.79,31.23 45.59,32.99 45.59,34.67 C45.59,36.35 44.79,38.12 42.92,38.12 C41.05,38.12 40.25,36.35 40.25,34.67 Z M44.4,34.67 C44.4,33.4 44.01,32.27 42.92,32.27 C41.83,32.27 41.44,33.4 41.44,34.67 C41.44,35.94 41.83,37.08 42.92,37.08 C44.01,37.08 44.4,35.94 44.4,34.67 Z" id="40" fill-opacity="0.75"></path>
                        <path d="M34.39,9 L34.39,8.08 C36.98,6.12 37.99,5.25 37.99,4.29 C37.99,3.59 37.39,3.27 36.78,3.27 C36,3.27 35.4,3.59 34.98,4.07 L34.3,3.3 C34.89,2.59 35.83,2.23 36.76,2.23 C38.05,2.23 39.18,2.96 39.18,4.29 C39.18,5.52 38.05,6.62 36.26,7.97 L39.22,7.97 L39.22,9 L34.39,9 Z M40.25,5.67 C40.25,3.99 41.05,2.23 42.92,2.23 C44.79,2.23 45.59,3.99 45.59,5.67 C45.59,7.35 44.79,9.12 42.92,9.12 C41.05,9.12 40.25,7.35 40.25,5.67 Z M44.4,5.67 C44.4,4.4 44.01,3.27 42.92,3.27 C41.83,3.27 41.44,4.4 41.44,5.67 C41.44,6.94 41.83,8.08 42.92,8.08 C44.01,8.08 44.4,6.94 44.4,5.67 Z" id="20" fill-opacity="0.75"></path>
                        <path d="M-26.49,47.5 L-28.73,44.69 L-29.31,45.37 L-29.31,47.5 L-30.48,47.5 L-30.48,40.83 L-29.31,40.83 L-29.31,44.01 L-26.7,40.83 L-25.25,40.83 L-27.96,43.98 L-25.05,47.5 L-26.49,47.5 Z M-24.6,45.08 C-24.6,43.68 -23.58,42.55 -22.15,42.55 C-20.7,42.55 -19.77,43.66 -19.77,45.18 L-19.77,45.43 L-23.5,45.43 C-23.42,46.16 -22.87,46.76 -21.96,46.76 C-21.49,46.76 -20.93,46.57 -20.59,46.23 L-20.11,46.92 C-20.59,47.38 -21.3,47.62 -22.07,47.62 C-23.52,47.62 -24.6,46.61 -24.6,45.08 Z M-22.15,43.41 C-23.05,43.41 -23.46,44.1 -23.51,44.69 L-20.79,44.69 C-20.81,44.12 -21.2,43.41 -22.15,43.41 Z M-18.78,48.45 C-18.67,48.5 -18.5,48.53 -18.38,48.53 C-18.05,48.53 -17.83,48.43 -17.69,48.11 L-17.45,47.56 L-19.43,42.67 L-18.31,42.67 L-16.9,46.29 L-15.49,42.67 L-14.36,42.67 L-16.69,48.37 C-17.02,49.19 -17.6,49.45 -18.35,49.46 C-18.5,49.46 -18.79,49.43 -18.94,49.39 L-18.78,48.45 Z M-9.49,47.5 L-10.61,43.96 L-11.73,47.5 L-12.83,47.5 L-14.33,42.67 L-13.24,42.67 L-12.22,46.18 L-11.07,42.67 L-10.15,42.67 L-9,46.18 L-7.98,42.67 L-6.89,42.67 L-8.39,47.5 L-9.49,47.5 Z M-3.98,47.62 C-5.51,47.62 -6.46,46.47 -6.46,45.08 C-6.46,43.7 -5.51,42.55 -3.98,42.55 C-2.43,42.55 -1.49,43.7 -1.49,45.08 C-1.49,46.47 -2.43,47.62 -3.98,47.62 Z M-3.98,46.69 C-3.08,46.69 -2.58,45.94 -2.58,45.08 C-2.58,44.23 -3.08,43.48 -3.98,43.48 C-4.87,43.48 -5.37,44.23 -5.37,45.08 C-5.37,45.94 -4.87,46.69 -3.98,46.69 Z M-0.43,47.5 L-0.43,42.67 L0.62,42.67 L0.62,43.38 C0.98,42.92 1.56,42.56 2.19,42.56 L2.19,43.6 C2.1,43.58 1.99,43.57 1.86,43.57 C1.42,43.57 0.83,43.87 0.62,44.21 L0.62,47.5 L-0.43,47.5 Z M6.44,47.5 L6.44,46.84 C6.07,47.32 5.51,47.62 4.89,47.62 C3.65,47.62 2.74,46.68 2.74,45.09 C2.74,43.53 3.64,42.55 4.89,42.55 C5.49,42.55 6.05,42.83 6.44,43.34 L6.44,40.83 L7.49,40.83 L7.49,47.5 L6.44,47.5 Z M6.44,46.05 L6.44,44.13 C6.2,43.77 5.69,43.48 5.19,43.48 C4.36,43.48 3.83,44.15 3.83,45.09 C3.83,46.02 4.36,46.69 5.19,46.69 C5.69,46.69 6.2,46.41 6.44,46.05 Z M15.26,47.5 L13.78,45.01 L12.62,45.01 L12.62,47.5 L11.45,47.5 L11.45,40.83 L14.38,40.83 C15.7,40.83 16.56,41.69 16.56,42.92 C16.56,44.11 15.78,44.75 14.98,44.88 L16.61,47.5 L15.26,47.5 Z M15.36,42.92 C15.36,42.28 14.88,41.86 14.22,41.86 L12.62,41.86 L12.62,43.98 L14.22,43.98 C14.88,43.98 15.36,43.56 15.36,42.92 Z M20.65,47.5 L20.65,46.98 C20.29,47.39 19.73,47.62 19.09,47.62 C18.3,47.62 17.41,47.09 17.41,46.02 C17.41,44.91 18.3,44.45 19.09,44.45 C19.74,44.45 20.3,44.66 20.65,45.07 L20.65,44.35 C20.65,43.79 20.19,43.45 19.52,43.45 C18.98,43.45 18.51,43.65 18.09,44.06 L17.66,43.33 C18.22,42.8 18.92,42.55 19.69,42.55 C20.76,42.55 21.7,43 21.7,44.3 L21.7,47.5 L20.65,47.5 Z M20.65,46.4 L20.65,45.67 C20.41,45.34 19.96,45.17 19.5,45.17 C18.91,45.17 18.47,45.51 18.47,46.04 C18.47,46.56 18.91,46.9 19.5,46.9 C19.96,46.9 20.41,46.73 20.65,46.4 Z M26.32,47.5 L26.32,44.48 C26.32,43.73 25.94,43.48 25.35,43.48 C24.81,43.48 24.35,43.8 24.11,44.13 L24.11,47.5 L23.06,47.5 L23.06,42.67 L24.11,42.67 L24.11,43.33 C24.43,42.95 25.05,42.55 25.81,42.55 C26.85,42.55 27.37,43.11 27.37,44.1 L27.37,47.5 L26.32,47.5 Z M31.93,47.5 L30.45,45.51 L29.78,46.2 L29.78,47.5 L28.73,47.5 L28.73,40.83 L29.78,40.83 L29.78,45 L31.91,42.67 L33.21,42.67 L31.2,44.86 L33.25,47.5 L31.93,47.5 Z M34.51,41.87 C34.16,41.87 33.86,41.58 33.86,41.22 C33.86,40.86 34.16,40.57 34.51,40.57 C34.87,40.57 35.16,40.86 35.16,41.22 C35.16,41.58 34.87,41.87 34.51,41.87 Z M33.99,47.5 L33.99,42.67 L35.04,42.67 L35.04,47.5 L33.99,47.5 Z M39.66,47.5 L39.66,44.48 C39.66,43.73 39.28,43.48 38.69,43.48 C38.15,43.48 37.69,43.8 37.45,44.13 L37.45,47.5 L36.4,47.5 L36.4,42.67 L37.45,42.67 L37.45,43.33 C37.77,42.95 38.39,42.55 39.15,42.55 C40.19,42.55 40.71,43.11 40.71,44.1 L40.71,47.5 L39.66,47.5 Z M42.01,48.74 L42.5,47.98 C42.89,48.43 43.39,48.6 44.03,48.6 C44.72,48.6 45.46,48.28 45.46,47.29 L45.46,46.71 C45.09,47.19 44.54,47.51 43.91,47.51 C42.68,47.51 41.77,46.62 41.77,45.03 C41.77,43.47 42.67,42.55 43.91,42.55 C44.52,42.55 45.07,42.83 45.46,43.34 L45.46,42.67 L46.51,42.67 L46.51,47.25 C46.51,48.99 45.22,49.46 44.03,49.46 C43.21,49.46 42.6,49.28 42.01,48.74 Z M45.46,45.93 L45.46,44.13 C45.23,43.77 44.71,43.48 44.22,43.48 C43.39,43.48 42.86,44.1 42.86,45.03 C42.86,45.96 43.39,46.58 44.22,46.58 C44.71,46.58 45.23,46.29 45.46,45.93 Z" id="Keyword-Ranking" transform="translate(8.015000, 45.015000) rotate(-90.000000) translate(-8.015000, -45.015000) "></path>
                    </g>
                    <g id="Group-2" transform="translate(97.000000, 0.000000)">
                        <g id="Rectangle" fill-rule="nonzero">
                            <use fill="black" fill-opacity="1" filter="url(#filter-3)" xlink:href="#path-2"></use>
                            <use fill="#95F3C7" xlink:href="#path-2"></use>
                        </g>
                        <g id="baseline-trending_up-24px" transform="translate(26.000000, 5.000000)">
                            <polygon id="Path" fill="#0A477F" points="9.33333333 3.5 10.6691667 4.83583333 7.8225 7.6825 5.48916667 5.34916667 1.16666667 9.6775 1.98916667 10.5 5.48916667 7 7.8225 9.33333333 11.4975 5.66416667 12.8333333 7 12.8333333 3.5"></polygon>
                            <polygon id="Path" points="0 0 14 0 14 14 0 14"></polygon>
                        </g>
                        <path d="M12.655,16 L12.655,15.08 C15.245,13.12 16.255,12.25 16.255,11.29 C16.255,10.59 15.655,10.27 15.045,10.27 C14.265,10.27 13.665,10.59 13.245,11.07 L12.565,10.3 C13.155,9.59 14.095,9.23 15.025,9.23 C16.315,9.23 17.445,9.96 17.445,11.29 C17.445,12.52 16.315,13.62 14.525,14.97 L17.485,14.97 L17.485,16 L12.655,16 Z M18.345,15.04 L18.975,14.27 C19.405,14.77 20.115,15.08 20.825,15.08 C21.705,15.08 22.215,14.68 22.215,14.06 C22.215,13.4 21.685,13.12 20.735,13.12 C20.455,13.12 20.065,13.12 19.965,13.13 L19.965,12.08 C20.085,12.09 20.475,12.09 20.735,12.09 C21.515,12.09 22.105,11.82 22.105,11.21 C22.105,10.59 21.505,10.27 20.755,10.27 C20.075,10.27 19.515,10.53 19.035,11.01 L18.435,10.28 C18.945,9.68 19.755,9.23 20.865,9.23 C22.305,9.23 23.275,9.91 23.275,11.03 C23.275,11.92 22.515,12.44 21.825,12.56 C22.475,12.62 23.375,13.15 23.375,14.18 C23.375,15.31 22.405,16.12 20.865,16.12 C19.675,16.12 18.795,15.64 18.345,15.04 Z" id="23" fill="#0A477F"></path>
                    </g>
                    <g id="Group-2" transform="translate(275.000000, 62.000000)">
                        <g id="Rectangle" fill-rule="nonzero">
                            <use fill="black" fill-opacity="1" filter="url(#filter-5)" xlink:href="#path-4"></use>
                            <use fill="#F7A09D" xlink:href="#path-4"></use>
                        </g>
                        <g id="baseline-trending_up-24px" transform="translate(31.000000, 13.000000) scale(1, -1) translate(-31.000000, -13.000000) translate(24.000000, 6.000000)">
                            <polygon id="Path" fill="#0A477F" points="9.33333333 3.5 10.6691667 4.83583333 7.8225 7.6825 5.48916667 5.34916667 1.16666667 9.6775 1.98916667 10.5 5.48916667 7 7.8225 9.33333333 11.4975 5.66416667 12.8333333 7 12.8333333 3.5"></polygon>
                            <polygon id="Path" points="0 0 14 0 14 14 0 14"></polygon>
                        </g>
                        <path d="M10.445,16 L10.445,15.08 C13.035,13.12 14.045,12.25 14.045,11.29 C14.045,10.59 13.445,10.27 12.835,10.27 C12.055,10.27 11.455,10.59 11.035,11.07 L10.355,10.3 C10.945,9.59 11.885,9.23 12.815,9.23 C14.105,9.23 15.235,9.96 15.235,11.29 C15.235,12.52 14.105,13.62 12.315,14.97 L15.275,14.97 L15.275,16 L10.445,16 Z M16.305,12.67 C16.305,10.99 17.105,9.23 18.975,9.23 C20.845,9.23 21.645,10.99 21.645,12.67 C21.645,14.35 20.845,16.12 18.975,16.12 C17.105,16.12 16.305,14.35 16.305,12.67 Z M20.455,12.67 C20.455,11.4 20.065,10.27 18.975,10.27 C17.885,10.27 17.495,11.4 17.495,12.67 C17.495,13.94 17.885,15.08 18.975,15.08 C20.065,15.08 20.455,13.94 20.455,12.67 Z" id="20" fill="#0A477F"></path>
                    </g>
                </g>
            </g>
        </g>
    </g>
</svg>