<?xml version="1.0" encoding="UTF-8"?>
<svg width="768px" height="140px" viewBox="0 0 768 140" version="1.1" xmlns="http://www.w3.org/2000/svg" xmlns:xlink="http://www.w3.org/1999/xlink">
    <!-- Generator: Sketch 54.1 (76490) - https://sketchapp.com -->
    <title>Rectangle</title>
    <desc>Created with Sketch.</desc>
    <g id="Page-1" stroke="none" stroke-width="1" fill="none" fill-rule="evenodd">
        <g id="Desktop-HD" transform="translate(-336.000000, -314.000000)" fill="#CC3D38">
            <g id="panel-2" transform="translate(336.000000, 314.000002)">
                <path d="M230.318496,105.000002 C312.533102,106.194403 457.372113,140.000002 578.165301,84.0000022 C602.112539,72.8980074 646.444648,35.0000022 681.910843,2.19971233e-06 C709.273906,1.50054362e-06 736.636969,8.01374922e-07 764.000033,1.02206218e-07 L764.000033,1.50990331e-14 C766.209172,-5.64469604e-08 768.000033,1.7908609 768.000033,3.9999999 C768.000033,3.99999994 768.000033,3.99999995 768.000033,4 L768.000033,136.000039 C768.000033,138.209178 766.209172,140.000039 764.000033,140.000039 C764.000033,140.000039 764.000033,140.000039 764.000033,140.000039 L4.00000269,140.000006 C1.7908621,140.000005 -1.05321063e-07,138.209143 1.06987752e-09,136.000002 C6.35858285e-08,134.701898 0.62992607,133.484515 1.68959237,132.734727 C30.3618094,112.447132 106.571444,103.202224 230.318496,105.000002 Z" id="Rectangle"></path>
            </g>
        </g>
    </g>
</svg>