<?xml version="1.0" encoding="UTF-8"?>
<svg width="97px" height="86px" viewBox="0 0 97 86" version="1.1" xmlns="http://www.w3.org/2000/svg" xmlns:xlink="http://www.w3.org/1999/xlink">
    <!-- Generator: Sketch 54.1 (76490) - https://sketchapp.com -->
    <title>strategy img</title>
    <desc>Created with Sketch.</desc>
    <g id="Page-1" stroke="none" stroke-width="1" fill="none" fill-rule="evenodd">
        <g id="Desktop-HD" transform="translate(-763.000000, -342.000000)">
            <g id="panel-2" transform="translate(336.000000, 314.000002)">
                <g id="strategy-img" transform="translate(428.000000, 28.000000)">
                    <path d="M18,86 C21.8659932,86 25,82.8659932 25,79 C25,75.1340068 21.8659932,72 18,72 C14.1340068,72 11,75.1340068 11,79 C11,82.8659932 14.1340068,86 18,86 Z M18,84 C15.2385763,84 13,81.7614237 13,79 C13,76.2385763 15.2385763,74 18,74 C20.7614237,74 23,76.2385763 23,79 C23,81.7614237 20.7614237,84 18,84 Z" id="Oval" fill="#E87975" fill-rule="nonzero"></path>
                    <path d="M59,85 C62.8659932,85 66,81.8659932 66,78 C66,74.1340068 62.8659932,71 59,71 C55.1340068,71 52,74.1340068 52,78 C52,81.8659932 55.1340068,85 59,85 Z M59,83 C56.2385763,83 54,80.7614237 54,78 C54,75.2385763 56.2385763,73 59,73 C61.7614237,73 64,75.2385763 64,78 C64,80.7614237 61.7614237,83 59,83 Z" id="Oval" fill="#E87975" fill-rule="nonzero"></path>
                    <g id="x" transform="translate(29.000000, 21.000000)" fill="#B23733" fill-rule="nonzero">
                        <path d="M-0.207106781,0.707106781 L8.97062759,9.88484116 C9.36115189,10.2753654 9.99431686,10.2753654 10.3848412,9.88484116 C10.7753654,9.49431686 10.7753654,8.86115189 10.3848412,8.47062759 L1.20710678,-0.707106781 C0.816582489,-1.09763107 0.183417511,-1.09763107 -0.207106781,-0.707106781 C-0.597631073,-0.316582489 -0.597631073,0.316582489 -0.207106781,0.707106781 Z" id="Line"></path>
                        <path d="M-0.207106781,0.707106781 L8.97062759,9.88484116 C9.36115189,10.2753654 9.99431686,10.2753654 10.3848412,9.88484116 C10.7753654,9.49431686 10.7753654,8.86115189 10.3848412,8.47062759 L1.20710678,-0.707106781 C0.816582489,-1.09763107 0.183417511,-1.09763107 -0.207106781,-0.707106781 C-0.597631073,-0.316582489 -0.597631073,0.316582489 -0.207106781,0.707106781 Z" id="Line" transform="translate(5.088867, 4.588867) scale(-1, 1) translate(-5.088867, -4.588867) "></path>
                    </g>
                    <g id="x" transform="translate(0.000000, 30.000000)" fill="#B23733" fill-rule="nonzero">
                        <path d="M-0.207106781,0.707106781 L8.97062759,9.88484116 C9.36115189,10.2753654 9.99431686,10.2753654 10.3848412,9.88484116 C10.7753654,9.49431686 10.7753654,8.86115189 10.3848412,8.47062759 L1.20710678,-0.707106781 C0.816582489,-1.09763107 0.183417511,-1.09763107 -0.207106781,-0.707106781 C-0.597631073,-0.316582489 -0.597631073,0.316582489 -0.207106781,0.707106781 Z" id="Line"></path>
                        <path d="M-0.207106781,0.707106781 L8.97062759,9.88484116 C9.36115189,10.2753654 9.99431686,10.2753654 10.3848412,9.88484116 C10.7753654,9.49431686 10.7753654,8.86115189 10.3848412,8.47062759 L1.20710678,-0.707106781 C0.816582489,-1.09763107 0.183417511,-1.09763107 -0.207106781,-0.707106781 C-0.597631073,-0.316582489 -0.597631073,0.316582489 -0.207106781,0.707106781 Z" id="Line" transform="translate(5.088867, 4.588867) scale(-1, 1) translate(-5.088867, -4.588867) "></path>
                    </g>
                    <g id="x" transform="translate(85.000000, 50.000000)" fill="#B23733" fill-rule="nonzero">
                        <path d="M-0.207106781,0.707106781 L8.97062759,9.88484116 C9.36115189,10.2753654 9.99431686,10.2753654 10.3848412,9.88484116 C10.7753654,9.49431686 10.7753654,8.86115189 10.3848412,8.47062759 L1.20710678,-0.707106781 C0.816582489,-1.09763107 0.183417511,-1.09763107 -0.207106781,-0.707106781 C-0.597631073,-0.316582489 -0.597631073,0.316582489 -0.207106781,0.707106781 Z" id="Line"></path>
                        <path d="M-0.207106781,0.707106781 L8.97062759,9.88484116 C9.36115189,10.2753654 9.99431686,10.2753654 10.3848412,9.88484116 C10.7753654,9.49431686 10.7753654,8.86115189 10.3848412,8.47062759 L1.20710678,-0.707106781 C0.816582489,-1.09763107 0.183417511,-1.09763107 -0.207106781,-0.707106781 C-0.597631073,-0.316582489 -0.597631073,0.316582489 -0.207106781,0.707106781 Z" id="Line" transform="translate(5.088867, 4.588867) scale(-1, 1) translate(-5.088867, -4.588867) "></path>
                    </g>
                    <path d="M26.1159079,74.4937506 L29.4305647,72.2547664 C29.8882233,71.9456272 30.008622,71.3240148 29.6994828,70.8663562 C29.3903436,70.4086976 28.7687312,70.2882988 28.3110726,70.597438 L24.9964158,72.8364222 C24.5387572,73.1455614 24.4183584,73.7671739 24.7274976,74.2248325 C25.0366368,74.6824911 25.6582493,74.8028898 26.1159079,74.4937506 Z M36.0598783,67.7767981 L39.3745351,65.5378139 C39.8321937,65.2286747 39.9525925,64.6070622 39.6434533,64.1494036 C39.3343141,63.691745 38.7127017,63.5713463 38.2550431,63.8804855 L34.9403862,66.1194697 C34.4827276,66.4286089 34.3623289,67.0502213 34.6714681,67.5078799 C34.9806073,67.9655385 35.6022197,68.0859373 36.0598783,67.7767981 Z M46.0038488,61.0598455 L49.3185056,58.8208613 C49.7761642,58.5117221 49.896563,57.8901097 49.5874238,57.4324511 C49.2782846,56.9747925 48.6566721,56.8543937 48.1990135,57.1635329 L44.8843567,59.4025171 C44.4266981,59.7116563 44.3062993,60.3332688 44.6154385,60.7909274 C44.9245777,61.248586 45.5461902,61.3689847 46.0038488,61.0598455 Z M55.9478192,54.342893 L59.2624761,52.1039088 C59.7201347,51.7947696 59.8405334,51.1731572 59.5313942,50.7154986 C59.222255,50.2578399 58.6006426,50.1374412 58.142984,50.4465804 L54.8283272,52.6855646 C54.3706686,52.9947038 54.2502698,53.6163162 54.559409,54.0739748 C54.8685482,54.5316334 55.4901606,54.6520322 55.9478192,54.342893 Z M63.0710678,45.0647801 L63.0710678,41.0647801 C63.0710678,40.5124954 62.6233526,40.0647801 62.0710678,40.0647801 C61.5187831,40.0647801 61.0710678,40.5124954 61.0710678,41.0647801 L61.0710678,45.0647801 C61.0710678,45.6170649 61.5187831,46.0647801 62.0710678,46.0647801 C62.6233526,46.0647801 63.0710678,45.6170649 63.0710678,45.0647801 Z M63.0710678,33.0647801 L63.0710678,29.0647801 C63.0710678,28.5124954 62.6233526,28.0647801 62.0710678,28.0647801 C61.5187831,28.0647801 61.0710678,28.5124954 61.0710678,29.0647801 L61.0710678,33.0647801 C61.0710678,33.6170649 61.5187831,34.0647801 62.0710678,34.0647801 C62.6233526,34.0647801 63.0710678,33.6170649 63.0710678,33.0647801 Z M63.0710678,21.0647801 L63.0710678,17.0647801 C63.0710678,16.5124954 62.6233526,16.0647801 62.0710678,16.0647801 C61.5187831,16.0647801 61.0710678,16.5124954 61.0710678,17.0647801 L61.0710678,21.0647801 C61.0710678,21.6170649 61.5187831,22.0647801 62.0710678,22.0647801 C62.6233526,22.0647801 63.0710678,21.6170649 63.0710678,21.0647801 Z M63.0710678,9.06478012 L63.0710678,7.71065091 C63.0710678,7.15836616 62.6233526,6.71065091 62.0710678,6.71065091 C61.5187831,6.71065091 61.0710678,7.15836616 61.0710678,7.71065091 L61.0710678,9.06478012 C61.0710678,9.61706487 61.5187831,10.0647801 62.0710678,10.0647801 C62.6233526,10.0647801 63.0710678,9.61706487 63.0710678,9.06478012 Z" id="Path" fill="#E87975" fill-rule="nonzero"></path>
                    <path d="M77.8064368,64.4009044 L64.6036706,74.3981241 C64.1633705,74.7315222 63.5361642,74.644861 63.2027662,74.2045609 C62.8693681,73.7642608 62.9560293,73.1370545 63.3963294,72.8036565 L76.5990956,62.8064368 L73.5807425,58.8202676 C73.2473444,58.3799675 73.3340057,57.7527612 73.7743058,57.4193631 C74.2146058,57.085965 74.8418121,57.1726263 75.1752102,57.6129263 L82.4192575,67.1797324 C82.7526556,67.6200325 82.6659943,68.2472388 82.2256942,68.5806369 C81.7853942,68.914035 81.1581879,68.8273737 80.8247898,68.3870737 L77.8064368,64.4009044 L77.8064368,64.4009044 Z" id="Path-2" fill="#E87975" fill-rule="nonzero"></path>
                    <path d="M58.0710678,2.27817459 L64.6568542,2.27817459 C65.209139,2.27817459 65.6568542,2.72588984 65.6568542,3.27817459 C65.6568542,3.54339108 65.5514974,3.797745 65.363961,3.98528137 L58.7781746,10.5710678 C58.3876503,10.9615921 57.7544853,10.9615921 57.363961,10.5710678 C57.1764247,10.3835314 57.0710678,10.1291775 57.0710678,9.86396103 L57.0710678,3.27817459 C57.0710678,2.72588984 57.5187831,2.27817459 58.0710678,2.27817459 Z" id="Rectangle" fill="#E87975" transform="translate(62.071068, 7.278175) rotate(45.000000) translate(-62.071068, -7.278175) "></path>
                </g>
            </g>
        </g>
    </g>
</svg>