<?xml version="1.0" encoding="UTF-8"?>
<svg width="540px" height="78px" viewBox="0 0 540 78" version="1.1" xmlns="http://www.w3.org/2000/svg" xmlns:xlink="http://www.w3.org/1999/xlink">
    <!-- Generator: Sketch 52.4 (67378) - http://www.bohemiancoding.com/sketch -->
    <title>img__kga</title>
    <desc>Created with Sketch.</desc>
    <g id="Page-1" stroke="none" stroke-width="1" fill="none" fill-rule="evenodd">
        <g id="Desktop-HD" transform="translate(-450.000000, -1213.000000)">
            <g id="section__competitive-gap" transform="translate(450.000000, 1098.000000)">
                <g id="img__kga" transform="translate(0.000000, 114.000000)">
                    <g id="label__your-keywords" transform="translate(0.000000, 67.000000)">
                        <path d="M34.57,9 L32.33,6.19 L31.75,6.87 L31.75,9 L30.58,9 L30.58,2.33 L31.75,2.33 L31.75,5.51 L34.36,2.33 L35.81,2.33 L33.1,5.48 L36.01,9 L34.57,9 Z M36.46,6.58 C36.46,5.18 37.48,4.05 38.91,4.05 C40.36,4.05 41.29,5.16 41.29,6.68 L41.29,6.93 L37.56,6.93 C37.64,7.66 38.19,8.26 39.1,8.26 C39.57,8.26 40.13,8.07 40.47,7.73 L40.95,8.42 C40.47,8.88 39.76,9.12 38.99,9.12 C37.54,9.12 36.46,8.11 36.46,6.58 Z M38.91,4.91 C38.01,4.91 37.6,5.6 37.55,6.19 L40.27,6.19 C40.25,5.62 39.86,4.91 38.91,4.91 Z M42.28,9.95 C42.39,10 42.56,10.03 42.68,10.03 C43.01,10.03 43.23,9.93 43.37,9.61 L43.61,9.06 L41.63,4.17 L42.75,4.17 L44.16,7.79 L45.57,4.17 L46.7,4.17 L44.37,9.87 C44.04,10.69 43.46,10.95 42.71,10.96 C42.56,10.96 42.27,10.93 42.12,10.89 L42.28,9.95 Z M51.57,9 L50.45,5.46 L49.33,9 L48.23,9 L46.73,4.17 L47.82,4.17 L48.84,7.68 L49.99,4.17 L50.91,4.17 L52.06,7.68 L53.08,4.17 L54.17,4.17 L52.67,9 L51.57,9 Z M57.08,9.12 C55.55,9.12 54.6,7.97 54.6,6.58 C54.6,5.2 55.55,4.05 57.08,4.05 C58.63,4.05 59.57,5.2 59.57,6.58 C59.57,7.97 58.63,9.12 57.08,9.12 Z M57.08,8.19 C57.98,8.19 58.48,7.44 58.48,6.58 C58.48,5.73 57.98,4.98 57.08,4.98 C56.19,4.98 55.69,5.73 55.69,6.58 C55.69,7.44 56.19,8.19 57.08,8.19 Z M60.63,9 L60.63,4.17 L61.68,4.17 L61.68,4.88 C62.04,4.42 62.62,4.06 63.25,4.06 L63.25,5.1 C63.16,5.08 63.05,5.07 62.92,5.07 C62.48,5.07 61.89,5.37 61.68,5.71 L61.68,9 L60.63,9 Z M67.5,9 L67.5,8.34 C67.13,8.82 66.57,9.12 65.95,9.12 C64.71,9.12 63.8,8.18 63.8,6.59 C63.8,5.03 64.7,4.05 65.95,4.05 C66.55,4.05 67.11,4.33 67.5,4.84 L67.5,2.33 L68.55,2.33 L68.55,9 L67.5,9 Z M67.5,7.55 L67.5,5.63 C67.26,5.27 66.75,4.98 66.25,4.98 C65.42,4.98 64.89,5.65 64.89,6.59 C64.89,7.52 65.42,8.19 66.25,8.19 C66.75,8.19 67.26,7.91 67.5,7.55 Z M69.49,8.37 L69.97,7.61 C70.31,7.96 70.98,8.29 71.61,8.29 C72.24,8.29 72.56,8.06 72.56,7.7 C72.56,7.28 72.05,7.13 71.46,7 C70.63,6.82 69.64,6.6 69.64,5.52 C69.64,4.73 70.32,4.05 71.54,4.05 C72.36,4.05 72.98,4.34 73.42,4.73 L72.98,5.47 C72.69,5.14 72.15,4.89 71.55,4.89 C71,4.89 70.65,5.09 70.65,5.43 C70.65,5.8 71.13,5.93 71.7,6.06 C72.54,6.24 73.57,6.48 73.57,7.62 C73.57,8.47 72.86,9.12 71.56,9.12 C70.74,9.12 69.99,8.86 69.49,8.37 Z M77.15,9.95 C77.26,10 77.43,10.03 77.55,10.03 C77.88,10.03 78.1,9.93 78.24,9.61 L78.48,9.06 L76.5,4.17 L77.62,4.17 L79.03,7.79 L80.44,4.17 L81.57,4.17 L79.24,9.87 C78.91,10.69 78.33,10.95 77.58,10.96 C77.43,10.96 77.14,10.93 76.99,10.89 L77.15,9.95 Z M84.41,9.12 C82.88,9.12 81.93,7.97 81.93,6.58 C81.93,5.2 82.88,4.05 84.41,4.05 C85.96,4.05 86.9,5.2 86.9,6.58 C86.9,7.97 85.96,9.12 84.41,9.12 Z M84.41,8.19 C85.31,8.19 85.81,7.44 85.81,6.58 C85.81,5.73 85.31,4.98 84.41,4.98 C83.52,4.98 83.02,5.73 83.02,6.58 C83.02,7.44 83.52,8.19 84.41,8.19 Z M91.22,9 L91.22,8.36 C90.87,8.75 90.27,9.12 89.51,9.12 C88.47,9.12 87.96,8.58 87.96,7.59 L87.96,4.17 L89.01,4.17 L89.01,7.21 C89.01,7.96 89.39,8.19 89.98,8.19 C90.51,8.19 90.97,7.89 91.22,7.56 L91.22,4.17 L92.27,4.17 L92.27,9 L91.22,9 Z M96.2,9 L96.2,4.17 L97.25,4.17 L97.25,4.88 C97.61,4.42 98.19,4.06 98.82,4.06 L98.82,5.1 C98.73,5.08 98.62,5.07 98.49,5.07 C98.05,5.07 97.46,5.37 97.25,5.71 L97.25,9 L96.2,9 Z M102.62,9 L102.62,8.48 C102.26,8.89 101.7,9.12 101.06,9.12 C100.27,9.12 99.38,8.59 99.38,7.52 C99.38,6.41 100.27,5.95 101.06,5.95 C101.71,5.95 102.27,6.16 102.62,6.57 L102.62,5.85 C102.62,5.29 102.16,4.95 101.49,4.95 C100.95,4.95 100.48,5.15 100.06,5.56 L99.63,4.83 C100.19,4.3 100.89,4.05 101.66,4.05 C102.73,4.05 103.67,4.5 103.67,5.8 L103.67,9 L102.62,9 Z M102.62,7.9 L102.62,7.17 C102.38,6.84 101.93,6.67 101.47,6.67 C100.88,6.67 100.44,7.01 100.44,7.54 C100.44,8.06 100.88,8.4 101.47,8.4 C101.93,8.4 102.38,8.23 102.62,7.9 Z M108.29,9 L108.29,5.98 C108.29,5.23 107.91,4.98 107.32,4.98 C106.78,4.98 106.32,5.3 106.08,5.63 L106.08,9 L105.03,9 L105.03,4.17 L106.08,4.17 L106.08,4.83 C106.4,4.45 107.02,4.05 107.78,4.05 C108.82,4.05 109.34,4.61 109.34,5.6 L109.34,9 L108.29,9 Z M113.9,9 L112.42,7.01 L111.75,7.7 L111.75,9 L110.7,9 L110.7,2.33 L111.75,2.33 L111.75,6.5 L113.88,4.17 L115.18,4.17 L113.17,6.36 L115.22,9 L113.9,9 Z M118.78,9 L118.78,5.09 L117.98,5.09 L117.98,4.17 L118.78,4.17 L118.78,3.9 C118.78,2.82 119.42,2.23 120.31,2.23 C120.64,2.23 120.94,2.3 121.15,2.42 L120.92,3.19 C120.8,3.12 120.65,3.09 120.5,3.09 C120.09,3.09 119.83,3.36 119.83,3.9 L119.83,4.17 L120.81,4.17 L120.81,5.09 L119.83,5.09 L119.83,9 L118.78,9 Z M123.79,9.12 C122.26,9.12 121.31,7.97 121.31,6.58 C121.31,5.2 122.26,4.05 123.79,4.05 C125.34,4.05 126.28,5.2 126.28,6.58 C126.28,7.97 125.34,9.12 123.79,9.12 Z M123.79,8.19 C124.69,8.19 125.19,7.44 125.19,6.58 C125.19,5.73 124.69,4.98 123.79,4.98 C122.9,4.98 122.4,5.73 122.4,6.58 C122.4,7.44 122.9,8.19 123.79,8.19 Z M127.34,9 L127.34,4.17 L128.39,4.17 L128.39,4.88 C128.75,4.42 129.33,4.06 129.96,4.06 L129.96,5.1 C129.87,5.08 129.76,5.07 129.63,5.07 C129.19,5.07 128.6,5.37 128.39,5.71 L128.39,9 L127.34,9 Z" id="Keywords-you-rank-fo" fill="#2EAA71"></path>
                        <g id="range" transform="translate(0.000000, 1.000000)" fill-rule="nonzero">
                            <path d="M0.5,5.5 L19.1231754,5.5" id="Line-8" stroke="#3BD48D" stroke-linecap="round"></path>
                            <rect id="Rectangle" fill="#3BD48D" x="0" y="0" width="1" height="11" rx="0.5"></rect>
                            <path d="M140.098825,5.5 L159.536056,5.5" id="Line-8" stroke="#3BD48D" stroke-linecap="round"></path>
                            <rect id="Rectangle" fill="#3BD48D" x="159" y="0" width="1" height="11" rx="0.5"></rect>
                        </g>
                    </g>
                    <g id="label__kga">
                        <g id="range" transform="translate(0.000000, 1.000000)" fill-rule="nonzero">
                            <path d="M0.5,5.5 L192.5,5.5" id="Line-8" stroke="#9B9B9B" stroke-linecap="round" stroke-dasharray="2"></path>
                            <path d="M349.37296,5.5 L539,5.5" id="Line-8" stroke="#9B9B9B" stroke-linecap="round" stroke-dasharray="2"></path>
                            <rect id="Rectangle" fill="#9B9B9B" x="0" y="0" width="1" height="11" rx="0.5"></rect>
                            <rect id="Rectangle" fill="#9B9B9B" x="539" y="0" width="1" height="11" rx="0.5"></rect>
                        </g>
                        <path d="M213.87,9 L213.38,7.72 L210.22,7.72 L209.73,9 L208.45,9 L211.07,2.33 L212.53,2.33 L215.15,9 L213.87,9 Z M211.8,3.32 L210.55,6.69 L213.05,6.69 L211.8,3.32 Z M215.85,9 L215.85,2.33 L216.9,2.33 L216.9,9 L215.85,9 Z M218.26,9 L218.26,2.33 L219.31,2.33 L219.31,9 L218.26,9 Z M226.44,9 L224.96,7.01 L224.29,7.7 L224.29,9 L223.24,9 L223.24,2.33 L224.29,2.33 L224.29,6.5 L226.42,4.17 L227.72,4.17 L225.71,6.36 L227.76,9 L226.44,9 Z M228.2,6.58 C228.2,5.18 229.22,4.05 230.65,4.05 C232.1,4.05 233.03,5.16 233.03,6.68 L233.03,6.93 L229.3,6.93 C229.38,7.66 229.93,8.26 230.84,8.26 C231.31,8.26 231.87,8.07 232.21,7.73 L232.69,8.42 C232.21,8.88 231.5,9.12 230.73,9.12 C229.28,9.12 228.2,8.11 228.2,6.58 Z M230.65,4.91 C229.75,4.91 229.34,5.6 229.29,6.19 L232.01,6.19 C231.99,5.62 231.6,4.91 230.65,4.91 Z M234.02,9.95 C234.13,10 234.3,10.03 234.42,10.03 C234.75,10.03 234.97,9.93 235.11,9.61 L235.35,9.06 L233.37,4.17 L234.49,4.17 L235.9,7.79 L237.31,4.17 L238.44,4.17 L236.11,9.87 C235.78,10.69 235.2,10.95 234.45,10.96 C234.3,10.96 234.01,10.93 233.86,10.89 L234.02,9.95 Z M243.31,9 L242.19,5.46 L241.07,9 L239.97,9 L238.47,4.17 L239.56,4.17 L240.58,7.68 L241.73,4.17 L242.65,4.17 L243.8,7.68 L244.82,4.17 L245.91,4.17 L244.41,9 L243.31,9 Z M248.82,9.12 C247.29,9.12 246.34,7.97 246.34,6.58 C246.34,5.2 247.29,4.05 248.82,4.05 C250.37,4.05 251.31,5.2 251.31,6.58 C251.31,7.97 250.37,9.12 248.82,9.12 Z M248.82,8.19 C249.72,8.19 250.22,7.44 250.22,6.58 C250.22,5.73 249.72,4.98 248.82,4.98 C247.93,4.98 247.43,5.73 247.43,6.58 C247.43,7.44 247.93,8.19 248.82,8.19 Z M252.37,9 L252.37,4.17 L253.42,4.17 L253.42,4.88 C253.78,4.42 254.36,4.06 254.99,4.06 L254.99,5.1 C254.9,5.08 254.79,5.07 254.66,5.07 C254.22,5.07 253.63,5.37 253.42,5.71 L253.42,9 L252.37,9 Z M259.24,9 L259.24,8.34 C258.87,8.82 258.31,9.12 257.69,9.12 C256.45,9.12 255.54,8.18 255.54,6.59 C255.54,5.03 256.44,4.05 257.69,4.05 C258.29,4.05 258.85,4.33 259.24,4.84 L259.24,2.33 L260.29,2.33 L260.29,9 L259.24,9 Z M259.24,7.55 L259.24,5.63 C259,5.27 258.49,4.98 257.99,4.98 C257.16,4.98 256.63,5.65 256.63,6.59 C256.63,7.52 257.16,8.19 257.99,8.19 C258.49,8.19 259,7.91 259.24,7.55 Z M261.23,8.37 L261.71,7.61 C262.05,7.96 262.72,8.29 263.35,8.29 C263.98,8.29 264.3,8.06 264.3,7.7 C264.3,7.28 263.79,7.13 263.2,7 C262.37,6.82 261.38,6.6 261.38,5.52 C261.38,4.73 262.06,4.05 263.28,4.05 C264.1,4.05 264.72,4.34 265.16,4.73 L264.72,5.47 C264.43,5.14 263.89,4.89 263.29,4.89 C262.74,4.89 262.39,5.09 262.39,5.43 C262.39,5.8 262.87,5.93 263.44,6.06 C264.28,6.24 265.31,6.48 265.31,7.62 C265.31,8.47 264.6,9.12 263.3,9.12 C262.48,9.12 261.73,8.86 261.23,8.37 Z M269.46,3.37 C269.11,3.37 268.81,3.08 268.81,2.72 C268.81,2.36 269.11,2.07 269.46,2.07 C269.82,2.07 270.11,2.36 270.11,2.72 C270.11,3.08 269.82,3.37 269.46,3.37 Z M268.94,9 L268.94,4.17 L269.99,4.17 L269.99,9 L268.94,9 Z M274.61,9 L274.61,5.98 C274.61,5.23 274.23,4.98 273.64,4.98 C273.1,4.98 272.64,5.3 272.4,5.63 L272.4,9 L271.35,9 L271.35,4.17 L272.4,4.17 L272.4,4.83 C272.72,4.45 273.34,4.05 274.1,4.05 C275.14,4.05 275.66,4.61 275.66,5.6 L275.66,9 L274.61,9 Z M279.54,9.95 C279.65,10 279.82,10.03 279.94,10.03 C280.27,10.03 280.49,9.93 280.63,9.61 L280.87,9.06 L278.89,4.17 L280.01,4.17 L281.42,7.79 L282.83,4.17 L283.96,4.17 L281.63,9.87 C281.3,10.69 280.72,10.95 279.97,10.96 C279.82,10.96 279.53,10.93 279.38,10.89 L279.54,9.95 Z M286.8,9.12 C285.27,9.12 284.32,7.97 284.32,6.58 C284.32,5.2 285.27,4.05 286.8,4.05 C288.35,4.05 289.29,5.2 289.29,6.58 C289.29,7.97 288.35,9.12 286.8,9.12 Z M286.8,8.19 C287.7,8.19 288.2,7.44 288.2,6.58 C288.2,5.73 287.7,4.98 286.8,4.98 C285.91,4.98 285.41,5.73 285.41,6.58 C285.41,7.44 285.91,8.19 286.8,8.19 Z M293.61,9 L293.61,8.36 C293.26,8.75 292.66,9.12 291.9,9.12 C290.86,9.12 290.35,8.58 290.35,7.59 L290.35,4.17 L291.4,4.17 L291.4,7.21 C291.4,7.96 291.78,8.19 292.37,8.19 C292.9,8.19 293.36,7.89 293.61,7.56 L293.61,4.17 L294.66,4.17 L294.66,9 L293.61,9 Z M296.02,9 L296.02,4.17 L297.07,4.17 L297.07,4.88 C297.43,4.42 298.01,4.06 298.64,4.06 L298.64,5.1 C298.55,5.08 298.44,5.07 298.31,5.07 C297.87,5.07 297.28,5.37 297.07,5.71 L297.07,9 L296.02,9 Z M307.98,9 L307.98,5.85 C307.98,5.33 307.75,4.98 307.19,4.98 C306.72,4.98 306.28,5.31 306.07,5.62 L306.07,9 L305.02,9 L305.02,5.85 C305.02,5.33 304.79,4.98 304.22,4.98 C303.76,4.98 303.33,5.31 303.11,5.63 L303.11,9 L302.06,9 L302.06,4.17 L303.11,4.17 L303.11,4.83 C303.31,4.53 303.95,4.05 304.68,4.05 C305.4,4.05 305.84,4.41 306,4.94 C306.28,4.5 306.92,4.05 307.64,4.05 C308.53,4.05 309.03,4.53 309.03,5.51 L309.03,9 L307.98,9 Z M313.34,9 L313.34,8.48 C312.98,8.89 312.42,9.12 311.78,9.12 C310.99,9.12 310.1,8.59 310.1,7.52 C310.1,6.41 310.99,5.95 311.78,5.95 C312.43,5.95 312.99,6.16 313.34,6.57 L313.34,5.85 C313.34,5.29 312.88,4.95 312.21,4.95 C311.67,4.95 311.2,5.15 310.78,5.56 L310.35,4.83 C310.91,4.3 311.61,4.05 312.38,4.05 C313.45,4.05 314.39,4.5 314.39,5.8 L314.39,9 L313.34,9 Z M313.34,7.9 L313.34,7.17 C313.1,6.84 312.65,6.67 312.19,6.67 C311.6,6.67 311.16,7.01 311.16,7.54 C311.16,8.06 311.6,8.4 312.19,8.4 C312.65,8.4 313.1,8.23 313.34,7.9 Z M315.75,9 L315.75,4.17 L316.8,4.17 L316.8,4.88 C317.16,4.42 317.74,4.06 318.37,4.06 L318.37,5.1 C318.28,5.08 318.17,5.07 318.04,5.07 C317.6,5.07 317.01,5.37 316.8,5.71 L316.8,9 L315.75,9 Z M322.42,9 L320.94,7.01 L320.27,7.7 L320.27,9 L319.22,9 L319.22,2.33 L320.27,2.33 L320.27,6.5 L322.4,4.17 L323.7,4.17 L321.69,6.36 L323.74,9 L322.42,9 Z M324.18,6.58 C324.18,5.18 325.2,4.05 326.63,4.05 C328.08,4.05 329.01,5.16 329.01,6.68 L329.01,6.93 L325.28,6.93 C325.36,7.66 325.91,8.26 326.82,8.26 C327.29,8.26 327.85,8.07 328.19,7.73 L328.67,8.42 C328.19,8.88 327.48,9.12 326.71,9.12 C325.26,9.12 324.18,8.11 324.18,6.58 Z M326.63,4.91 C325.73,4.91 325.32,5.6 325.27,6.19 L327.99,6.19 C327.97,5.62 327.58,4.91 326.63,4.91 Z M331.5,9.12 C330.69,9.12 330.26,8.68 330.26,7.88 L330.26,5.09 L329.46,5.09 L329.46,4.17 L330.26,4.17 L330.26,2.85 L331.31,2.85 L331.31,4.17 L332.29,4.17 L332.29,5.09 L331.31,5.09 L331.31,7.62 C331.31,7.95 331.47,8.19 331.77,8.19 C331.97,8.19 332.16,8.11 332.24,8.02 L332.49,8.81 C332.3,8.99 331.99,9.12 331.5,9.12 Z" id="All-keywords-in-your" fill="#646464"></path>
                    </g>
                    <g id="label__kga" transform="translate(162.000000, 67.000000)">
                        <g id="range" transform="translate(0.000000, 1.000000)" fill-rule="nonzero">
                            <path d="M0.5,5.5 L31.8723669,5.5" id="Line-8" stroke="#298EE9" stroke-linecap="round"></path>
                            <path d="M346.093289,5.5 L377,5.5" id="Line-8" stroke="#298EE9" stroke-linecap="round"></path>
                            <rect id="Rectangle" fill="#298EE9" x="0" y="0" width="1" height="11" rx="0.5"></rect>
                            <rect id="Rectangle" fill="#298EE9" x="377" y="0" width="1" height="11" rx="0.5"></rect>
                        </g>
                        <path d="M54.88,9 L52.64,6.19 L52.06,6.87 L52.06,9 L50.89,9 L50.89,2.33 L52.06,2.33 L52.06,5.51 L54.67,2.33 L56.12,2.33 L53.41,5.48 L56.32,9 L54.88,9 Z M56.77,6.58 C56.77,5.18 57.79,4.05 59.22,4.05 C60.67,4.05 61.6,5.16 61.6,6.68 L61.6,6.93 L57.87,6.93 C57.95,7.66 58.5,8.26 59.41,8.26 C59.88,8.26 60.44,8.07 60.78,7.73 L61.26,8.42 C60.78,8.88 60.07,9.12 59.3,9.12 C57.85,9.12 56.77,8.11 56.77,6.58 Z M59.22,4.91 C58.32,4.91 57.91,5.6 57.86,6.19 L60.58,6.19 C60.56,5.62 60.17,4.91 59.22,4.91 Z M62.59,9.95 C62.7,10 62.87,10.03 62.99,10.03 C63.32,10.03 63.54,9.93 63.68,9.61 L63.92,9.06 L61.94,4.17 L63.06,4.17 L64.47,7.79 L65.88,4.17 L67.01,4.17 L64.68,9.87 C64.35,10.69 63.77,10.95 63.02,10.96 C62.87,10.96 62.58,10.93 62.43,10.89 L62.59,9.95 Z M71.88,9 L70.76,5.46 L69.64,9 L68.54,9 L67.04,4.17 L68.13,4.17 L69.15,7.68 L70.3,4.17 L71.22,4.17 L72.37,7.68 L73.39,4.17 L74.48,4.17 L72.98,9 L71.88,9 Z M77.39,9.12 C75.86,9.12 74.91,7.97 74.91,6.58 C74.91,5.2 75.86,4.05 77.39,4.05 C78.94,4.05 79.88,5.2 79.88,6.58 C79.88,7.97 78.94,9.12 77.39,9.12 Z M77.39,8.19 C78.29,8.19 78.79,7.44 78.79,6.58 C78.79,5.73 78.29,4.98 77.39,4.98 C76.5,4.98 76,5.73 76,6.58 C76,7.44 76.5,8.19 77.39,8.19 Z M80.94,9 L80.94,4.17 L81.99,4.17 L81.99,4.88 C82.35,4.42 82.93,4.06 83.56,4.06 L83.56,5.1 C83.47,5.08 83.36,5.07 83.23,5.07 C82.79,5.07 82.2,5.37 81.99,5.71 L81.99,9 L80.94,9 Z M87.81,9 L87.81,8.34 C87.44,8.82 86.88,9.12 86.26,9.12 C85.02,9.12 84.11,8.18 84.11,6.59 C84.11,5.03 85.01,4.05 86.26,4.05 C86.86,4.05 87.42,4.33 87.81,4.84 L87.81,2.33 L88.86,2.33 L88.86,9 L87.81,9 Z M87.81,7.55 L87.81,5.63 C87.57,5.27 87.06,4.98 86.56,4.98 C85.73,4.98 85.2,5.65 85.2,6.59 C85.2,7.52 85.73,8.19 86.56,8.19 C87.06,8.19 87.57,7.91 87.81,7.55 Z M89.8,8.37 L90.28,7.61 C90.62,7.96 91.29,8.29 91.92,8.29 C92.55,8.29 92.87,8.06 92.87,7.7 C92.87,7.28 92.36,7.13 91.77,7 C90.94,6.82 89.95,6.6 89.95,5.52 C89.95,4.73 90.63,4.05 91.85,4.05 C92.67,4.05 93.29,4.34 93.73,4.73 L93.29,5.47 C93,5.14 92.46,4.89 91.86,4.89 C91.31,4.89 90.96,5.09 90.96,5.43 C90.96,5.8 91.44,5.93 92.01,6.06 C92.85,6.24 93.88,6.48 93.88,7.62 C93.88,8.47 93.17,9.12 91.87,9.12 C91.05,9.12 90.3,8.86 89.8,8.37 Z M97.46,9.95 C97.57,10 97.74,10.03 97.86,10.03 C98.19,10.03 98.41,9.93 98.55,9.61 L98.79,9.06 L96.81,4.17 L97.93,4.17 L99.34,7.79 L100.75,4.17 L101.88,4.17 L99.55,9.87 C99.22,10.69 98.64,10.95 97.89,10.96 C97.74,10.96 97.45,10.93 97.3,10.89 L97.46,9.95 Z M104.72,9.12 C103.19,9.12 102.24,7.97 102.24,6.58 C102.24,5.2 103.19,4.05 104.72,4.05 C106.27,4.05 107.21,5.2 107.21,6.58 C107.21,7.97 106.27,9.12 104.72,9.12 Z M104.72,8.19 C105.62,8.19 106.12,7.44 106.12,6.58 C106.12,5.73 105.62,4.98 104.72,4.98 C103.83,4.98 103.33,5.73 103.33,6.58 C103.33,7.44 103.83,8.19 104.72,8.19 Z M111.53,9 L111.53,8.36 C111.18,8.75 110.58,9.12 109.82,9.12 C108.78,9.12 108.27,8.58 108.27,7.59 L108.27,4.17 L109.32,4.17 L109.32,7.21 C109.32,7.96 109.7,8.19 110.29,8.19 C110.82,8.19 111.28,7.89 111.53,7.56 L111.53,4.17 L112.58,4.17 L112.58,9 L111.53,9 Z M113.94,9 L113.94,4.17 L114.99,4.17 L114.99,4.88 C115.35,4.42 115.93,4.06 116.56,4.06 L116.56,5.1 C116.47,5.08 116.36,5.07 116.23,5.07 C115.79,5.07 115.2,5.37 114.99,5.71 L114.99,9 L113.94,9 Z M119.68,6.58 C119.68,5.12 120.71,4.05 122.18,4.05 C123.12,4.05 123.69,4.45 124.03,4.91 L123.34,5.55 C123.07,5.17 122.7,4.98 122.23,4.98 C121.35,4.98 120.77,5.64 120.77,6.58 C120.77,7.52 121.35,8.19 122.23,8.19 C122.7,8.19 123.07,7.99 123.34,7.62 L124.03,8.26 C123.69,8.72 123.12,9.12 122.18,9.12 C120.71,9.12 119.68,8.05 119.68,6.58 Z M127.13,9.12 C125.6,9.12 124.65,7.97 124.65,6.58 C124.65,5.2 125.6,4.05 127.13,4.05 C128.68,4.05 129.62,5.2 129.62,6.58 C129.62,7.97 128.68,9.12 127.13,9.12 Z M127.13,8.19 C128.03,8.19 128.53,7.44 128.53,6.58 C128.53,5.73 128.03,4.98 127.13,4.98 C126.24,4.98 125.74,5.73 125.74,6.58 C125.74,7.44 126.24,8.19 127.13,8.19 Z M136.6,9 L136.6,5.85 C136.6,5.33 136.37,4.98 135.81,4.98 C135.34,4.98 134.9,5.31 134.69,5.62 L134.69,9 L133.64,9 L133.64,5.85 C133.64,5.33 133.41,4.98 132.84,4.98 C132.38,4.98 131.95,5.31 131.73,5.63 L131.73,9 L130.68,9 L130.68,4.17 L131.73,4.17 L131.73,4.83 C131.93,4.53 132.57,4.05 133.3,4.05 C134.02,4.05 134.46,4.41 134.62,4.94 C134.9,4.5 135.54,4.05 136.26,4.05 C137.15,4.05 137.65,4.53 137.65,5.51 L137.65,9 L136.6,9 Z M140.06,10.84 L139.01,10.84 L139.01,4.17 L140.06,4.17 L140.06,4.83 C140.42,4.35 140.98,4.05 141.61,4.05 C142.86,4.05 143.75,4.99 143.75,6.58 C143.75,8.17 142.86,9.12 141.61,9.12 C141,9.12 140.45,8.85 140.06,8.33 L140.06,10.84 Z M142.66,6.58 C142.66,5.65 142.13,4.98 141.3,4.98 C140.81,4.98 140.29,5.27 140.06,5.63 L140.06,7.54 C140.29,7.89 140.81,8.19 141.3,8.19 C142.13,8.19 142.66,7.52 142.66,6.58 Z M144.51,6.58 C144.51,5.18 145.53,4.05 146.96,4.05 C148.41,4.05 149.34,5.16 149.34,6.68 L149.34,6.93 L145.61,6.93 C145.69,7.66 146.24,8.26 147.15,8.26 C147.62,8.26 148.18,8.07 148.52,7.73 L149,8.42 C148.52,8.88 147.81,9.12 147.04,9.12 C145.59,9.12 144.51,8.11 144.51,6.58 Z M146.96,4.91 C146.06,4.91 145.65,5.6 145.6,6.19 L148.32,6.19 C148.3,5.62 147.91,4.91 146.96,4.91 Z M151.83,9.12 C151.02,9.12 150.59,8.68 150.59,7.88 L150.59,5.09 L149.79,5.09 L149.79,4.17 L150.59,4.17 L150.59,2.85 L151.64,2.85 L151.64,4.17 L152.62,4.17 L152.62,5.09 L151.64,5.09 L151.64,7.62 C151.64,7.95 151.8,8.19 152.1,8.19 C152.3,8.19 152.49,8.11 152.57,8.02 L152.82,8.81 C152.63,8.99 152.32,9.12 151.83,9.12 Z M154.09,3.37 C153.74,3.37 153.44,3.08 153.44,2.72 C153.44,2.36 153.74,2.07 154.09,2.07 C154.45,2.07 154.74,2.36 154.74,2.72 C154.74,3.08 154.45,3.37 154.09,3.37 Z M153.57,9 L153.57,4.17 L154.62,4.17 L154.62,9 L153.57,9 Z M157.43,9.12 C156.62,9.12 156.19,8.68 156.19,7.88 L156.19,5.09 L155.39,5.09 L155.39,4.17 L156.19,4.17 L156.19,2.85 L157.24,2.85 L157.24,4.17 L158.22,4.17 L158.22,5.09 L157.24,5.09 L157.24,7.62 C157.24,7.95 157.4,8.19 157.7,8.19 C157.9,8.19 158.09,8.11 158.17,8.02 L158.42,8.81 C158.23,8.99 157.92,9.12 157.43,9.12 Z M161.35,9.12 C159.82,9.12 158.87,7.97 158.87,6.58 C158.87,5.2 159.82,4.05 161.35,4.05 C162.9,4.05 163.84,5.2 163.84,6.58 C163.84,7.97 162.9,9.12 161.35,9.12 Z M161.35,8.19 C162.25,8.19 162.75,7.44 162.75,6.58 C162.75,5.73 162.25,4.98 161.35,4.98 C160.46,4.98 159.96,5.73 159.96,6.58 C159.96,7.44 160.46,8.19 161.35,8.19 Z M164.9,9 L164.9,4.17 L165.95,4.17 L165.95,4.88 C166.31,4.42 166.89,4.06 167.52,4.06 L167.52,5.1 C167.43,5.08 167.32,5.07 167.19,5.07 C166.75,5.07 166.16,5.37 165.95,5.71 L165.95,9 L164.9,9 Z M167.95,8.37 L168.43,7.61 C168.77,7.96 169.44,8.29 170.07,8.29 C170.7,8.29 171.02,8.06 171.02,7.7 C171.02,7.28 170.51,7.13 169.92,7 C169.09,6.82 168.1,6.6 168.1,5.52 C168.1,4.73 168.78,4.05 170,4.05 C170.82,4.05 171.44,4.34 171.88,4.73 L171.44,5.47 C171.15,5.14 170.61,4.89 170.01,4.89 C169.46,4.89 169.11,5.09 169.11,5.43 C169.11,5.8 169.59,5.93 170.16,6.06 C171,6.24 172.03,6.48 172.03,7.62 C172.03,8.47 171.32,9.12 170.02,9.12 C169.2,9.12 168.45,8.86 167.95,8.37 Z M175.66,9 L175.66,4.17 L176.71,4.17 L176.71,4.88 C177.07,4.42 177.65,4.06 178.28,4.06 L178.28,5.1 C178.19,5.08 178.08,5.07 177.95,5.07 C177.51,5.07 176.92,5.37 176.71,5.71 L176.71,9 L175.66,9 Z M182.08,9 L182.08,8.48 C181.72,8.89 181.16,9.12 180.52,9.12 C179.73,9.12 178.84,8.59 178.84,7.52 C178.84,6.41 179.73,5.95 180.52,5.95 C181.17,5.95 181.73,6.16 182.08,6.57 L182.08,5.85 C182.08,5.29 181.62,4.95 180.95,4.95 C180.41,4.95 179.94,5.15 179.52,5.56 L179.09,4.83 C179.65,4.3 180.35,4.05 181.12,4.05 C182.19,4.05 183.13,4.5 183.13,5.8 L183.13,9 L182.08,9 Z M182.08,7.9 L182.08,7.17 C181.84,6.84 181.39,6.67 180.93,6.67 C180.34,6.67 179.9,7.01 179.9,7.54 C179.9,8.06 180.34,8.4 180.93,8.4 C181.39,8.4 181.84,8.23 182.08,7.9 Z M187.75,9 L187.75,5.98 C187.75,5.23 187.37,4.98 186.78,4.98 C186.24,4.98 185.78,5.3 185.54,5.63 L185.54,9 L184.49,9 L184.49,4.17 L185.54,4.17 L185.54,4.83 C185.86,4.45 186.48,4.05 187.24,4.05 C188.28,4.05 188.8,4.61 188.8,5.6 L188.8,9 L187.75,9 Z M193.36,9 L191.88,7.01 L191.21,7.7 L191.21,9 L190.16,9 L190.16,2.33 L191.21,2.33 L191.21,6.5 L193.34,4.17 L194.64,4.17 L192.63,6.36 L194.68,9 L193.36,9 Z M198.24,9 L198.24,5.09 L197.44,5.09 L197.44,4.17 L198.24,4.17 L198.24,3.9 C198.24,2.82 198.88,2.23 199.77,2.23 C200.1,2.23 200.4,2.3 200.61,2.42 L200.38,3.19 C200.26,3.12 200.11,3.09 199.96,3.09 C199.55,3.09 199.29,3.36 199.29,3.9 L199.29,4.17 L200.27,4.17 L200.27,5.09 L199.29,5.09 L199.29,9 L198.24,9 Z M203.25,9.12 C201.72,9.12 200.77,7.97 200.77,6.58 C200.77,5.2 201.72,4.05 203.25,4.05 C204.8,4.05 205.74,5.2 205.74,6.58 C205.74,7.97 204.8,9.12 203.25,9.12 Z M203.25,8.19 C204.15,8.19 204.65,7.44 204.65,6.58 C204.65,5.73 204.15,4.98 203.25,4.98 C202.36,4.98 201.86,5.73 201.86,6.58 C201.86,7.44 202.36,8.19 203.25,8.19 Z M206.8,9 L206.8,4.17 L207.85,4.17 L207.85,4.88 C208.21,4.42 208.79,4.06 209.42,4.06 L209.42,5.1 C209.33,5.08 209.22,5.07 209.09,5.07 C208.65,5.07 208.06,5.37 207.85,5.71 L207.85,9 L206.8,9 Z M214.29,9.12 C213.48,9.12 213.05,8.68 213.05,7.88 L213.05,5.09 L212.25,5.09 L212.25,4.17 L213.05,4.17 L213.05,2.85 L214.1,2.85 L214.1,4.17 L215.08,4.17 L215.08,5.09 L214.1,5.09 L214.1,7.62 C214.1,7.95 214.26,8.19 214.56,8.19 C214.76,8.19 214.95,8.11 215.03,8.02 L215.28,8.81 C215.09,8.99 214.78,9.12 214.29,9.12 Z M219.3,9 L219.3,5.96 C219.3,5.21 218.91,4.98 218.32,4.98 C217.79,4.98 217.33,5.3 217.08,5.63 L217.08,9 L216.03,9 L216.03,2.33 L217.08,2.33 L217.08,4.83 C217.4,4.45 218.03,4.05 218.79,4.05 C219.83,4.05 220.35,4.59 220.35,5.58 L220.35,9 L219.3,9 Z M224.66,9 L224.66,8.48 C224.3,8.89 223.74,9.12 223.1,9.12 C222.31,9.12 221.42,8.59 221.42,7.52 C221.42,6.41 222.31,5.95 223.1,5.95 C223.75,5.95 224.31,6.16 224.66,6.57 L224.66,5.85 C224.66,5.29 224.2,4.95 223.53,4.95 C222.99,4.95 222.52,5.15 222.1,5.56 L221.67,4.83 C222.23,4.3 222.93,4.05 223.7,4.05 C224.77,4.05 225.71,4.5 225.71,5.8 L225.71,9 L224.66,9 Z M224.66,7.9 L224.66,7.17 C224.42,6.84 223.97,6.67 223.51,6.67 C222.92,6.67 222.48,7.01 222.48,7.54 C222.48,8.06 222.92,8.4 223.51,8.4 C223.97,8.4 224.42,8.23 224.66,7.9 Z M228.52,9.12 C227.71,9.12 227.28,8.68 227.28,7.88 L227.28,5.09 L226.48,5.09 L226.48,4.17 L227.28,4.17 L227.28,2.85 L228.33,2.85 L228.33,4.17 L229.31,4.17 L229.31,5.09 L228.33,5.09 L228.33,7.62 C228.33,7.95 228.49,8.19 228.79,8.19 C228.99,8.19 229.18,8.11 229.26,8.02 L229.51,8.81 C229.32,8.99 229.01,9.12 228.52,9.12 Z M232.78,9.95 C232.89,10 233.06,10.03 233.18,10.03 C233.51,10.03 233.73,9.93 233.87,9.61 L234.11,9.06 L232.13,4.17 L233.25,4.17 L234.66,7.79 L236.07,4.17 L237.2,4.17 L234.87,9.87 C234.54,10.69 233.96,10.95 233.21,10.96 C233.06,10.96 232.77,10.93 232.62,10.89 L232.78,9.95 Z M240.04,9.12 C238.51,9.12 237.56,7.97 237.56,6.58 C237.56,5.2 238.51,4.05 240.04,4.05 C241.59,4.05 242.53,5.2 242.53,6.58 C242.53,7.97 241.59,9.12 240.04,9.12 Z M240.04,8.19 C240.94,8.19 241.44,7.44 241.44,6.58 C241.44,5.73 240.94,4.98 240.04,4.98 C239.15,4.98 238.65,5.73 238.65,6.58 C238.65,7.44 239.15,8.19 240.04,8.19 Z M246.85,9 L246.85,8.36 C246.5,8.75 245.9,9.12 245.14,9.12 C244.1,9.12 243.59,8.58 243.59,7.59 L243.59,4.17 L244.64,4.17 L244.64,7.21 C244.64,7.96 245.02,8.19 245.61,8.19 C246.14,8.19 246.6,7.89 246.85,7.56 L246.85,4.17 L247.9,4.17 L247.9,9 L246.85,9 Z M249.62,4.85 L249.15,4.46 C249.47,4.27 249.8,3.86 249.87,3.52 C249.84,3.53 249.76,3.55 249.7,3.55 C249.36,3.55 249.1,3.29 249.1,2.92 C249.1,2.54 249.41,2.23 249.78,2.23 C250.19,2.23 250.56,2.56 250.56,3.14 C250.56,3.83 250.17,4.46 249.62,4.85 Z M251.7,9 L251.7,4.17 L252.75,4.17 L252.75,4.88 C253.11,4.42 253.69,4.06 254.32,4.06 L254.32,5.1 C254.23,5.08 254.12,5.07 253.99,5.07 C253.55,5.07 252.96,5.37 252.75,5.71 L252.75,9 L251.7,9 Z M254.87,6.58 C254.87,5.18 255.89,4.05 257.32,4.05 C258.77,4.05 259.7,5.16 259.7,6.68 L259.7,6.93 L255.97,6.93 C256.05,7.66 256.6,8.26 257.51,8.26 C257.98,8.26 258.54,8.07 258.88,7.73 L259.36,8.42 C258.88,8.88 258.17,9.12 257.4,9.12 C255.95,9.12 254.87,8.11 254.87,6.58 Z M257.32,4.91 C256.42,4.91 256.01,5.6 255.96,6.19 L258.68,6.19 C258.66,5.62 258.27,4.91 257.32,4.91 Z M269.23,9 L269.23,5.85 C269.23,5.33 269,4.98 268.44,4.98 C267.97,4.98 267.53,5.31 267.32,5.62 L267.32,9 L266.27,9 L266.27,5.85 C266.27,5.33 266.04,4.98 265.47,4.98 C265.01,4.98 264.58,5.31 264.36,5.63 L264.36,9 L263.31,9 L263.31,4.17 L264.36,4.17 L264.36,4.83 C264.56,4.53 265.2,4.05 265.93,4.05 C266.65,4.05 267.09,4.41 267.25,4.94 C267.53,4.5 268.17,4.05 268.89,4.05 C269.78,4.05 270.28,4.53 270.28,5.51 L270.28,9 L269.23,9 Z M272.16,3.37 C271.81,3.37 271.51,3.08 271.51,2.72 C271.51,2.36 271.81,2.07 272.16,2.07 C272.52,2.07 272.81,2.36 272.81,2.72 C272.81,3.08 272.52,3.37 272.16,3.37 Z M271.64,9 L271.64,4.17 L272.69,4.17 L272.69,9 L271.64,9 Z M273.63,8.37 L274.11,7.61 C274.45,7.96 275.12,8.29 275.75,8.29 C276.38,8.29 276.7,8.06 276.7,7.7 C276.7,7.28 276.19,7.13 275.6,7 C274.77,6.82 273.78,6.6 273.78,5.52 C273.78,4.73 274.46,4.05 275.68,4.05 C276.5,4.05 277.12,4.34 277.56,4.73 L277.12,5.47 C276.83,5.14 276.29,4.89 275.69,4.89 C275.14,4.89 274.79,5.09 274.79,5.43 C274.79,5.8 275.27,5.93 275.84,6.06 C276.68,6.24 277.71,6.48 277.71,7.62 C277.71,8.47 277,9.12 275.7,9.12 C274.88,9.12 274.13,8.86 273.63,8.37 Z M278.35,8.37 L278.83,7.61 C279.17,7.96 279.84,8.29 280.47,8.29 C281.1,8.29 281.42,8.06 281.42,7.7 C281.42,7.28 280.91,7.13 280.32,7 C279.49,6.82 278.5,6.6 278.5,5.52 C278.5,4.73 279.18,4.05 280.4,4.05 C281.22,4.05 281.84,4.34 282.28,4.73 L281.84,5.47 C281.55,5.14 281.01,4.89 280.41,4.89 C279.86,4.89 279.51,5.09 279.51,5.43 C279.51,5.8 279.99,5.93 280.56,6.06 C281.4,6.24 282.43,6.48 282.43,7.62 C282.43,8.47 281.72,9.12 280.42,9.12 C279.6,9.12 278.85,8.86 278.35,8.37 Z M284.01,3.37 C283.66,3.37 283.36,3.08 283.36,2.72 C283.36,2.36 283.66,2.07 284.01,2.07 C284.37,2.07 284.66,2.36 284.66,2.72 C284.66,3.08 284.37,3.37 284.01,3.37 Z M283.49,9 L283.49,4.17 L284.54,4.17 L284.54,9 L283.49,9 Z M289.16,9 L289.16,5.98 C289.16,5.23 288.78,4.98 288.19,4.98 C287.65,4.98 287.19,5.3 286.95,5.63 L286.95,9 L285.9,9 L285.9,4.17 L286.95,4.17 L286.95,4.83 C287.27,4.45 287.89,4.05 288.65,4.05 C289.69,4.05 290.21,4.61 290.21,5.6 L290.21,9 L289.16,9 Z M291.51,10.24 L292,9.48 C292.39,9.93 292.89,10.1 293.53,10.1 C294.22,10.1 294.96,9.78 294.96,8.79 L294.96,8.21 C294.59,8.69 294.04,9.01 293.41,9.01 C292.18,9.01 291.27,8.12 291.27,6.53 C291.27,4.97 292.17,4.05 293.41,4.05 C294.02,4.05 294.57,4.33 294.96,4.84 L294.96,4.17 L296.01,4.17 L296.01,8.75 C296.01,10.49 294.72,10.96 293.53,10.96 C292.71,10.96 292.1,10.78 291.51,10.24 Z M294.96,7.43 L294.96,5.63 C294.73,5.27 294.21,4.98 293.72,4.98 C292.89,4.98 292.36,5.6 292.36,6.53 C292.36,7.46 292.89,8.08 293.72,8.08 C294.21,8.08 294.73,7.79 294.96,7.43 Z M302.12,9.12 C300.59,9.12 299.64,7.97 299.64,6.58 C299.64,5.2 300.59,4.05 302.12,4.05 C303.67,4.05 304.61,5.2 304.61,6.58 C304.61,7.97 303.67,9.12 302.12,9.12 Z M302.12,8.19 C303.02,8.19 303.52,7.44 303.52,6.58 C303.52,5.73 303.02,4.98 302.12,4.98 C301.23,4.98 300.73,5.73 300.73,6.58 C300.73,7.44 301.23,8.19 302.12,8.19 Z M308.93,9 L308.93,8.36 C308.58,8.75 307.98,9.12 307.22,9.12 C306.18,9.12 305.67,8.58 305.67,7.59 L305.67,4.17 L306.72,4.17 L306.72,7.21 C306.72,7.96 307.1,8.19 307.69,8.19 C308.22,8.19 308.68,7.89 308.93,7.56 L308.93,4.17 L309.98,4.17 L309.98,9 L308.93,9 Z M312.79,9.12 C311.98,9.12 311.55,8.68 311.55,7.88 L311.55,5.09 L310.75,5.09 L310.75,4.17 L311.55,4.17 L311.55,2.85 L312.6,2.85 L312.6,4.17 L313.58,4.17 L313.58,5.09 L312.6,5.09 L312.6,7.62 C312.6,7.95 312.76,8.19 313.06,8.19 C313.26,8.19 313.45,8.11 313.53,8.02 L313.78,8.81 C313.59,8.99 313.28,9.12 312.79,9.12 Z M319.28,9.12 C317.75,9.12 316.8,7.97 316.8,6.58 C316.8,5.2 317.75,4.05 319.28,4.05 C320.83,4.05 321.77,5.2 321.77,6.58 C321.77,7.97 320.83,9.12 319.28,9.12 Z M319.28,8.19 C320.18,8.19 320.68,7.44 320.68,6.58 C320.68,5.73 320.18,4.98 319.28,4.98 C318.39,4.98 317.89,5.73 317.89,6.58 C317.89,7.44 318.39,8.19 319.28,8.19 Z M326.09,9 L326.09,5.98 C326.09,5.23 325.71,4.98 325.12,4.98 C324.58,4.98 324.12,5.3 323.88,5.63 L323.88,9 L322.83,9 L322.83,4.17 L323.88,4.17 L323.88,4.83 C324.2,4.45 324.82,4.05 325.58,4.05 C326.62,4.05 327.14,4.61 327.14,5.6 L327.14,9 L326.09,9 Z" id="Keywords-your-compet" fill="#145FA4"></path>
                    </g>
                    <g id="boxes" transform="translate(0.000000, 21.000000)">
                        <rect id="box__yk" fill="#70E7AF" fill-rule="nonzero" x="0" y="0" width="160" height="36"></rect>
                        <g id="box__ck" transform="translate(162.000000, 0.000000)">
                            <rect id="Rectangle" fill="#BDDDFA" fill-rule="nonzero" x="0" y="0" width="188" height="36"></rect>
                            <path d="M49.415,21.12 C47.495,21.12 45.965,19.72 45.965,17.67 C45.965,15.62 47.495,14.22 49.415,14.22 C50.815,14.22 51.645,14.92 52.145,15.72 L51.145,16.23 C50.825,15.68 50.185,15.26 49.415,15.26 C48.145,15.26 47.165,16.27 47.165,17.67 C47.165,19.07 48.145,20.08 49.415,20.08 C50.185,20.08 50.825,19.67 51.145,19.11 L52.145,19.62 C51.635,20.42 50.815,21.12 49.415,21.12 Z M55.235,21.12 C53.705,21.12 52.755,19.97 52.755,18.58 C52.755,17.2 53.705,16.05 55.235,16.05 C56.785,16.05 57.725,17.2 57.725,18.58 C57.725,19.97 56.785,21.12 55.235,21.12 Z M55.235,20.19 C56.135,20.19 56.635,19.44 56.635,18.58 C56.635,17.73 56.135,16.98 55.235,16.98 C54.345,16.98 53.845,17.73 53.845,18.58 C53.845,19.44 54.345,20.19 55.235,20.19 Z M64.705,21 L64.705,17.85 C64.705,17.33 64.475,16.98 63.915,16.98 C63.445,16.98 63.005,17.31 62.795,17.62 L62.795,21 L61.745,21 L61.745,17.85 C61.745,17.33 61.515,16.98 60.945,16.98 C60.485,16.98 60.055,17.31 59.835,17.63 L59.835,21 L58.785,21 L58.785,16.17 L59.835,16.17 L59.835,16.83 C60.035,16.53 60.675,16.05 61.405,16.05 C62.125,16.05 62.565,16.41 62.725,16.94 C63.005,16.5 63.645,16.05 64.365,16.05 C65.255,16.05 65.755,16.53 65.755,17.51 L65.755,21 L64.705,21 Z M68.165,22.84 L67.115,22.84 L67.115,16.17 L68.165,16.17 L68.165,16.83 C68.525,16.35 69.085,16.05 69.715,16.05 C70.965,16.05 71.855,16.99 71.855,18.58 C71.855,20.17 70.965,21.12 69.715,21.12 C69.105,21.12 68.555,20.85 68.165,20.33 L68.165,22.84 Z M70.765,18.58 C70.765,17.65 70.235,16.98 69.405,16.98 C68.915,16.98 68.395,17.27 68.165,17.63 L68.165,19.54 C68.395,19.89 68.915,20.19 69.405,20.19 C70.235,20.19 70.765,19.52 70.765,18.58 Z M72.615,18.58 C72.615,17.18 73.635,16.05 75.065,16.05 C76.515,16.05 77.445,17.16 77.445,18.68 L77.445,18.93 L73.715,18.93 C73.795,19.66 74.345,20.26 75.255,20.26 C75.725,20.26 76.285,20.07 76.625,19.73 L77.105,20.42 C76.625,20.88 75.915,21.12 75.145,21.12 C73.695,21.12 72.615,20.11 72.615,18.58 Z M75.065,16.91 C74.165,16.91 73.755,17.6 73.705,18.19 L76.425,18.19 C76.405,17.62 76.015,16.91 75.065,16.91 Z M79.935,21.12 C79.125,21.12 78.695,20.68 78.695,19.88 L78.695,17.09 L77.895,17.09 L77.895,16.17 L78.695,16.17 L78.695,14.85 L79.745,14.85 L79.745,16.17 L80.725,16.17 L80.725,17.09 L79.745,17.09 L79.745,19.62 C79.745,19.95 79.905,20.19 80.205,20.19 C80.405,20.19 80.595,20.11 80.675,20.02 L80.925,20.81 C80.735,20.99 80.425,21.12 79.935,21.12 Z M82.195,15.37 C81.845,15.37 81.545,15.08 81.545,14.72 C81.545,14.36 81.845,14.07 82.195,14.07 C82.555,14.07 82.845,14.36 82.845,14.72 C82.845,15.08 82.555,15.37 82.195,15.37 Z M81.675,21 L81.675,16.17 L82.725,16.17 L82.725,21 L81.675,21 Z M85.535,21.12 C84.725,21.12 84.295,20.68 84.295,19.88 L84.295,17.09 L83.495,17.09 L83.495,16.17 L84.295,16.17 L84.295,14.85 L85.345,14.85 L85.345,16.17 L86.325,16.17 L86.325,17.09 L85.345,17.09 L85.345,19.62 C85.345,19.95 85.505,20.19 85.805,20.19 C86.005,20.19 86.195,20.11 86.275,20.02 L86.525,20.81 C86.335,20.99 86.025,21.12 85.535,21.12 Z M89.455,21.12 C87.925,21.12 86.975,19.97 86.975,18.58 C86.975,17.2 87.925,16.05 89.455,16.05 C91.005,16.05 91.945,17.2 91.945,18.58 C91.945,19.97 91.005,21.12 89.455,21.12 Z M89.455,20.19 C90.355,20.19 90.855,19.44 90.855,18.58 C90.855,17.73 90.355,16.98 89.455,16.98 C88.565,16.98 88.065,17.73 88.065,18.58 C88.065,19.44 88.565,20.19 89.455,20.19 Z M93.005,21 L93.005,16.17 L94.055,16.17 L94.055,16.88 C94.415,16.42 94.995,16.06 95.625,16.06 L95.625,17.1 C95.535,17.08 95.425,17.07 95.295,17.07 C94.855,17.07 94.265,17.37 94.055,17.71 L94.055,21 L93.005,21 Z M103.065,21 L100.825,18.19 L100.245,18.87 L100.245,21 L99.075,21 L99.075,14.33 L100.245,14.33 L100.245,17.51 L102.855,14.33 L104.305,14.33 L101.595,17.48 L104.505,21 L103.065,21 Z M104.955,18.58 C104.955,17.18 105.975,16.05 107.405,16.05 C108.855,16.05 109.785,17.16 109.785,18.68 L109.785,18.93 L106.055,18.93 C106.135,19.66 106.685,20.26 107.595,20.26 C108.065,20.26 108.625,20.07 108.965,19.73 L109.445,20.42 C108.965,20.88 108.255,21.12 107.485,21.12 C106.035,21.12 104.955,20.11 104.955,18.58 Z M107.405,16.91 C106.505,16.91 106.095,17.6 106.045,18.19 L108.765,18.19 C108.745,17.62 108.355,16.91 107.405,16.91 Z M110.775,21.95 C110.885,22 111.055,22.03 111.175,22.03 C111.505,22.03 111.725,21.93 111.865,21.61 L112.105,21.06 L110.125,16.17 L111.245,16.17 L112.655,19.79 L114.065,16.17 L115.195,16.17 L112.865,21.87 C112.535,22.69 111.955,22.95 111.205,22.96 C111.055,22.96 110.765,22.93 110.615,22.89 L110.775,21.95 Z M120.065,21 L118.945,17.46 L117.825,21 L116.725,21 L115.225,16.17 L116.315,16.17 L117.335,19.68 L118.485,16.17 L119.405,16.17 L120.555,19.68 L121.575,16.17 L122.665,16.17 L121.165,21 L120.065,21 Z M125.575,21.12 C124.045,21.12 123.095,19.97 123.095,18.58 C123.095,17.2 124.045,16.05 125.575,16.05 C127.125,16.05 128.065,17.2 128.065,18.58 C128.065,19.97 127.125,21.12 125.575,21.12 Z M125.575,20.19 C126.475,20.19 126.975,19.44 126.975,18.58 C126.975,17.73 126.475,16.98 125.575,16.98 C124.685,16.98 124.185,17.73 124.185,18.58 C124.185,19.44 124.685,20.19 125.575,20.19 Z M129.125,21 L129.125,16.17 L130.175,16.17 L130.175,16.88 C130.535,16.42 131.115,16.06 131.745,16.06 L131.745,17.1 C131.655,17.08 131.545,17.07 131.415,17.07 C130.975,17.07 130.385,17.37 130.175,17.71 L130.175,21 L129.125,21 Z M135.995,21 L135.995,20.34 C135.625,20.82 135.065,21.12 134.445,21.12 C133.205,21.12 132.295,20.18 132.295,18.59 C132.295,17.03 133.195,16.05 134.445,16.05 C135.045,16.05 135.605,16.33 135.995,16.84 L135.995,14.33 L137.045,14.33 L137.045,21 L135.995,21 Z M135.995,19.55 L135.995,17.63 C135.755,17.27 135.245,16.98 134.745,16.98 C133.915,16.98 133.385,17.65 133.385,18.59 C133.385,19.52 133.915,20.19 134.745,20.19 C135.245,20.19 135.755,19.91 135.995,19.55 Z M137.985,20.37 L138.465,19.61 C138.805,19.96 139.475,20.29 140.105,20.29 C140.735,20.29 141.055,20.06 141.055,19.7 C141.055,19.28 140.545,19.13 139.955,19 C139.125,18.82 138.135,18.6 138.135,17.52 C138.135,16.73 138.815,16.05 140.035,16.05 C140.855,16.05 141.475,16.34 141.915,16.73 L141.475,17.47 C141.185,17.14 140.645,16.89 140.045,16.89 C139.495,16.89 139.145,17.09 139.145,17.43 C139.145,17.8 139.625,17.93 140.195,18.06 C141.035,18.24 142.065,18.48 142.065,19.62 C142.065,20.47 141.355,21.12 140.055,21.12 C139.235,21.12 138.485,20.86 137.985,20.37 Z" id="Competitor-Keywords" fill="#0A477F"></path>
                        </g>
                        <g id="box__sk" transform="translate(352.000000, 0.000000)">
                            <rect id="Rectangle" fill="#84BFF4" fill-rule="nonzero" x="0" y="0" width="188" height="36"></rect>
                            <path d="M27.87,20.06 L28.52,19.16 C28.98,19.65 29.7,20.08 30.63,20.08 C31.59,20.08 31.97,19.61 31.97,19.17 C31.97,18.57 31.26,18.39 30.45,18.18 C29.36,17.91 28.08,17.59 28.08,16.18 C28.08,15.08 29.05,14.23 30.51,14.23 C31.55,14.23 32.39,14.56 33.01,15.16 L32.34,16.03 C31.82,15.51 31.11,15.27 30.41,15.27 C29.72,15.27 29.28,15.6 29.28,16.1 C29.28,16.62 29.96,16.79 30.75,16.99 C31.85,17.27 33.16,17.61 33.16,19.06 C33.16,20.17 32.38,21.12 30.58,21.12 C29.35,21.12 28.46,20.69 27.87,20.06 Z M34.73,15.37 C34.38,15.37 34.08,15.08 34.08,14.72 C34.08,14.36 34.38,14.07 34.73,14.07 C35.09,14.07 35.38,14.36 35.38,14.72 C35.38,15.08 35.09,15.37 34.73,15.37 Z M34.21,21 L34.21,16.17 L35.26,16.17 L35.26,21 L34.21,21 Z M42.54,21 L42.54,17.85 C42.54,17.33 42.31,16.98 41.75,16.98 C41.28,16.98 40.84,17.31 40.63,17.62 L40.63,21 L39.58,21 L39.58,17.85 C39.58,17.33 39.35,16.98 38.78,16.98 C38.32,16.98 37.89,17.31 37.67,17.63 L37.67,21 L36.62,21 L36.62,16.17 L37.67,16.17 L37.67,16.83 C37.87,16.53 38.51,16.05 39.24,16.05 C39.96,16.05 40.4,16.41 40.56,16.94 C40.84,16.5 41.48,16.05 42.2,16.05 C43.09,16.05 43.59,16.53 43.59,17.51 L43.59,21 L42.54,21 Z M45.47,15.37 C45.12,15.37 44.82,15.08 44.82,14.72 C44.82,14.36 45.12,14.07 45.47,14.07 C45.83,14.07 46.12,14.36 46.12,14.72 C46.12,15.08 45.83,15.37 45.47,15.37 Z M44.95,21 L44.95,16.17 L46,16.17 L46,21 L44.95,21 Z M47.36,21 L47.36,14.33 L48.41,14.33 L48.41,21 L47.36,21 Z M52.72,21 L52.72,20.48 C52.36,20.89 51.8,21.12 51.16,21.12 C50.37,21.12 49.48,20.59 49.48,19.52 C49.48,18.41 50.37,17.95 51.16,17.95 C51.81,17.95 52.37,18.16 52.72,18.57 L52.72,17.85 C52.72,17.29 52.26,16.95 51.59,16.95 C51.05,16.95 50.58,17.15 50.16,17.56 L49.73,16.83 C50.29,16.3 50.99,16.05 51.76,16.05 C52.83,16.05 53.77,16.5 53.77,17.8 L53.77,21 L52.72,21 Z M52.72,19.9 L52.72,19.17 C52.48,18.84 52.03,18.67 51.57,18.67 C50.98,18.67 50.54,19.01 50.54,19.54 C50.54,20.06 50.98,20.4 51.57,20.4 C52.03,20.4 52.48,20.23 52.72,19.9 Z M55.13,21 L55.13,16.17 L56.18,16.17 L56.18,16.88 C56.54,16.42 57.12,16.06 57.75,16.06 L57.75,17.1 C57.66,17.08 57.55,17.07 57.42,17.07 C56.98,17.07 56.39,17.37 56.18,17.71 L56.18,21 L55.13,21 Z M58.96,22.33 L58.49,21.94 C58.81,21.75 59.14,21.34 59.21,21 C59.18,21.01 59.1,21.03 59.04,21.03 C58.7,21.03 58.44,20.77 58.44,20.4 C58.44,20.02 58.75,19.71 59.12,19.71 C59.53,19.71 59.9,20.04 59.9,20.62 C59.9,21.31 59.51,21.94 58.96,22.33 Z M63.65,18.37 L63.65,14.33 L64.83,14.33 L64.83,18.33 C64.83,19.39 65.42,20.08 66.54,20.08 C67.65,20.08 68.24,19.39 68.24,18.33 L68.24,14.33 L69.42,14.33 L69.42,18.36 C69.42,20.02 68.47,21.12 66.54,21.12 C64.6,21.12 63.65,20.01 63.65,18.37 Z M74.07,21 L74.07,17.98 C74.07,17.23 73.69,16.98 73.1,16.98 C72.56,16.98 72.1,17.3 71.86,17.63 L71.86,21 L70.81,21 L70.81,16.17 L71.86,16.17 L71.86,16.83 C72.18,16.45 72.8,16.05 73.56,16.05 C74.6,16.05 75.12,16.61 75.12,17.6 L75.12,21 L74.07,21 Z M77.93,21.12 C77.12,21.12 76.69,20.68 76.69,19.88 L76.69,17.09 L75.89,17.09 L75.89,16.17 L76.69,16.17 L76.69,14.85 L77.74,14.85 L77.74,16.17 L78.72,16.17 L78.72,17.09 L77.74,17.09 L77.74,19.62 C77.74,19.95 77.9,20.19 78.2,20.19 C78.4,20.19 78.59,20.11 78.67,20.02 L78.92,20.81 C78.73,20.99 78.42,21.12 77.93,21.12 Z M82.62,21 L82.62,20.48 C82.26,20.89 81.7,21.12 81.06,21.12 C80.27,21.12 79.38,20.59 79.38,19.52 C79.38,18.41 80.27,17.95 81.06,17.95 C81.71,17.95 82.27,18.16 82.62,18.57 L82.62,17.85 C82.62,17.29 82.16,16.95 81.49,16.95 C80.95,16.95 80.48,17.15 80.06,17.56 L79.63,16.83 C80.19,16.3 80.89,16.05 81.66,16.05 C82.73,16.05 83.67,16.5 83.67,17.8 L83.67,21 L82.62,21 Z M82.62,19.9 L82.62,19.17 C82.38,18.84 81.93,18.67 81.47,18.67 C80.88,18.67 80.44,19.01 80.44,19.54 C80.44,20.06 80.88,20.4 81.47,20.4 C81.93,20.4 82.38,20.23 82.62,19.9 Z M85.03,21 L85.03,16.17 L86.08,16.17 L86.08,16.88 C86.44,16.42 87.02,16.06 87.65,16.06 L87.65,17.1 C87.56,17.08 87.45,17.07 87.32,17.07 C86.88,17.07 86.29,17.37 86.08,17.71 L86.08,21 L85.03,21 Z M88.44,22.24 L88.93,21.48 C89.32,21.93 89.82,22.1 90.46,22.1 C91.15,22.1 91.89,21.78 91.89,20.79 L91.89,20.21 C91.52,20.69 90.97,21.01 90.34,21.01 C89.11,21.01 88.2,20.12 88.2,18.53 C88.2,16.97 89.1,16.05 90.34,16.05 C90.95,16.05 91.5,16.33 91.89,16.84 L91.89,16.17 L92.94,16.17 L92.94,20.75 C92.94,22.49 91.65,22.96 90.46,22.96 C89.64,22.96 89.03,22.78 88.44,22.24 Z M91.89,19.43 L91.89,17.63 C91.66,17.27 91.14,16.98 90.65,16.98 C89.82,16.98 89.29,17.6 89.29,18.53 C89.29,19.46 89.82,20.08 90.65,20.08 C91.14,20.08 91.66,19.79 91.89,19.43 Z M94,18.58 C94,17.18 95.02,16.05 96.45,16.05 C97.9,16.05 98.83,17.16 98.83,18.68 L98.83,18.93 L95.1,18.93 C95.18,19.66 95.73,20.26 96.64,20.26 C97.11,20.26 97.67,20.07 98.01,19.73 L98.49,20.42 C98.01,20.88 97.3,21.12 96.53,21.12 C95.08,21.12 94,20.11 94,18.58 Z M96.45,16.91 C95.55,16.91 95.14,17.6 95.09,18.19 L97.81,18.19 C97.79,17.62 97.4,16.91 96.45,16.91 Z M101.32,21.12 C100.51,21.12 100.08,20.68 100.08,19.88 L100.08,17.09 L99.28,17.09 L99.28,16.17 L100.08,16.17 L100.08,14.85 L101.13,14.85 L101.13,16.17 L102.11,16.17 L102.11,17.09 L101.13,17.09 L101.13,19.62 C101.13,19.95 101.29,20.19 101.59,20.19 C101.79,20.19 101.98,20.11 102.06,20.02 L102.31,20.81 C102.12,20.99 101.81,21.12 101.32,21.12 Z M102.76,18.58 C102.76,17.18 103.78,16.05 105.21,16.05 C106.66,16.05 107.59,17.16 107.59,18.68 L107.59,18.93 L103.86,18.93 C103.94,19.66 104.49,20.26 105.4,20.26 C105.87,20.26 106.43,20.07 106.77,19.73 L107.25,20.42 C106.77,20.88 106.06,21.12 105.29,21.12 C103.84,21.12 102.76,20.11 102.76,18.58 Z M105.21,16.91 C104.31,16.91 103.9,17.6 103.85,18.19 L106.57,18.19 C106.55,17.62 106.16,16.91 105.21,16.91 Z M112.03,21 L112.03,20.34 C111.66,20.82 111.1,21.12 110.48,21.12 C109.24,21.12 108.33,20.18 108.33,18.59 C108.33,17.03 109.23,16.05 110.48,16.05 C111.08,16.05 111.64,16.33 112.03,16.84 L112.03,14.33 L113.08,14.33 L113.08,21 L112.03,21 Z M112.03,19.55 L112.03,17.63 C111.79,17.27 111.28,16.98 110.78,16.98 C109.95,16.98 109.42,17.65 109.42,18.59 C109.42,19.52 109.95,20.19 110.78,20.19 C111.28,20.19 111.79,19.91 112.03,19.55 Z M121.03,21 L118.79,18.19 L118.21,18.87 L118.21,21 L117.04,21 L117.04,14.33 L118.21,14.33 L118.21,17.51 L120.82,14.33 L122.27,14.33 L119.56,17.48 L122.47,21 L121.03,21 Z M122.92,18.58 C122.92,17.18 123.94,16.05 125.37,16.05 C126.82,16.05 127.75,17.16 127.75,18.68 L127.75,18.93 L124.02,18.93 C124.1,19.66 124.65,20.26 125.56,20.26 C126.03,20.26 126.59,20.07 126.93,19.73 L127.41,20.42 C126.93,20.88 126.22,21.12 125.45,21.12 C124,21.12 122.92,20.11 122.92,18.58 Z M125.37,16.91 C124.47,16.91 124.06,17.6 124.01,18.19 L126.73,18.19 C126.71,17.62 126.32,16.91 125.37,16.91 Z M128.74,21.95 C128.85,22 129.02,22.03 129.14,22.03 C129.47,22.03 129.69,21.93 129.83,21.61 L130.07,21.06 L128.09,16.17 L129.21,16.17 L130.62,19.79 L132.03,16.17 L133.16,16.17 L130.83,21.87 C130.5,22.69 129.92,22.95 129.17,22.96 C129.02,22.96 128.73,22.93 128.58,22.89 L128.74,21.95 Z M138.03,21 L136.91,17.46 L135.79,21 L134.69,21 L133.19,16.17 L134.28,16.17 L135.3,19.68 L136.45,16.17 L137.37,16.17 L138.52,19.68 L139.54,16.17 L140.63,16.17 L139.13,21 L138.03,21 Z M143.54,21.12 C142.01,21.12 141.06,19.97 141.06,18.58 C141.06,17.2 142.01,16.05 143.54,16.05 C145.09,16.05 146.03,17.2 146.03,18.58 C146.03,19.97 145.09,21.12 143.54,21.12 Z M143.54,20.19 C144.44,20.19 144.94,19.44 144.94,18.58 C144.94,17.73 144.44,16.98 143.54,16.98 C142.65,16.98 142.15,17.73 142.15,18.58 C142.15,19.44 142.65,20.19 143.54,20.19 Z M147.09,21 L147.09,16.17 L148.14,16.17 L148.14,16.88 C148.5,16.42 149.08,16.06 149.71,16.06 L149.71,17.1 C149.62,17.08 149.51,17.07 149.38,17.07 C148.94,17.07 148.35,17.37 148.14,17.71 L148.14,21 L147.09,21 Z M153.96,21 L153.96,20.34 C153.59,20.82 153.03,21.12 152.41,21.12 C151.17,21.12 150.26,20.18 150.26,18.59 C150.26,17.03 151.16,16.05 152.41,16.05 C153.01,16.05 153.57,16.33 153.96,16.84 L153.96,14.33 L155.01,14.33 L155.01,21 L153.96,21 Z M153.96,19.55 L153.96,17.63 C153.72,17.27 153.21,16.98 152.71,16.98 C151.88,16.98 151.35,17.65 151.35,18.59 C151.35,19.52 151.88,20.19 152.71,20.19 C153.21,20.19 153.72,19.91 153.96,19.55 Z M155.95,20.37 L156.43,19.61 C156.77,19.96 157.44,20.29 158.07,20.29 C158.7,20.29 159.02,20.06 159.02,19.7 C159.02,19.28 158.51,19.13 157.92,19 C157.09,18.82 156.1,18.6 156.1,17.52 C156.1,16.73 156.78,16.05 158,16.05 C158.82,16.05 159.44,16.34 159.88,16.73 L159.44,17.47 C159.15,17.14 158.61,16.89 158.01,16.89 C157.46,16.89 157.11,17.09 157.11,17.43 C157.11,17.8 157.59,17.93 158.16,18.06 C159,18.24 160.03,18.48 160.03,19.62 C160.03,20.47 159.32,21.12 158.02,21.12 C157.2,21.12 156.45,20.86 155.95,20.37 Z" id="Similar,-Untargeted" fill="#0A477F"></path>
                        </g>
                    </g>
                </g>
            </g>
        </g>
    </g>
</svg>