<?xml version="1.0" encoding="UTF-8"?>
<svg width="120px" height="29px" viewBox="0 0 120 29" version="1.1" xmlns="http://www.w3.org/2000/svg" xmlns:xlink="http://www.w3.org/1999/xlink">
    <!-- Generator: Sketch 55.2 (78181) - https://sketchapp.com -->
    <title>logo__white-bg</title>
    <desc>Created with Sketch.</desc>
    <g id="Page-1" stroke="none" stroke-width="1" fill="none" fill-rule="evenodd">
        <g id="Syndication---Grey-Niche-Rejection" transform="translate(-78.000000, -37.000000)">
            <g id="header" transform="translate(75.000000, 37.000000)">
                <g id="logo__white-bg" transform="translate(3.000000, 0.000000)">
                    <polygon id="Path" fill="#989898" points="37.7205069 7.14040059 34 7.14040059 34 4 45 4 45 7.14040059 41.2794931 7.14040059 41.2794931 26 37.7205069 26"></polygon>
                    <polygon id="Path" fill="#989898" points="46 4 49.5798685 4 49.5798685 12.9579873 53.4201315 12.9579873 53.4201315 4 57 4 57 26 53.4201315 26 53.4201315 16.0983879 49.5798685 16.0983879 49.5798685 26 46 26"></polygon>
                    <polygon id="Path" fill="#989898" points="59 4 69 4 69 7.14040059 62.6665147 7.14040059 62.6665147 12.9547631 67.6995669 12.9547631 67.6995669 16.0983879 62.6665147 16.0983879 62.6665147 22.8563752 69 22.8563752 69 26 59 26"></polygon>
                    <polygon id="Path" fill="#222222" points="71 4 74.5798685 4 74.5798685 12.9579873 78.4201315 12.9579873 78.4201315 4 82 4 82 26 78.4201315 26 78.4201315 16.0983879 74.5798685 16.0983879 74.5798685 26 71 26"></polygon>
                    <path d="M84,20.6225008 L84,9.37749917 C84,5.95583416 85.9436937,4 89.5,4 C93.0563063,4 95,5.95583416 95,9.37749917 L95,20.6225008 C95,24.0441658 93.0574324,26 89.5,26 C85.9425676,26 84,24.0441658 84,20.6225008 Z M91.3772523,20.8314575 L91.3772523,9.16331861 C91.3772523,7.63584556 90.6531532,7.0549461 89.5,7.0549461 C88.3468468,7.0549461 87.6227477,7.63584556 87.6227477,9.16331861 L87.6227477,20.8356366 C87.6227477,22.3641544 88.347973,22.9450539 89.5,22.9450539 C90.652027,22.9450539 91.375,22.3641544 91.375,20.8356366 L91.3772523,20.8314575 Z" id="Shape" fill="#222222" fill-rule="nonzero"></path>
                    <polygon id="Path" fill="#222222" points="99.7201327 7.14040059 96 7.14040059 96 4 107 4 107 7.14040059 103.278761 7.14040059 103.278761 26 99.7201327 26"></polygon>
                    <polygon id="Path" fill="#222222" points="109 4 112.579868 4 112.579868 12.9579873 116.420132 12.9579873 116.420132 4 120 4 120 26 116.420132 26 116.420132 16.0983879 112.579868 16.0983879 112.579868 26 109 26"></polygon>
                    <g id="Group">
                        <polygon id="Path" fill="#C3996B" points="21.4903448 22.7655273 22.0798276 23.1884 22.8542241 23.6355273 23.7496552 24.4253818 24.2718966 24.4833818 24.6069828 24.7491273 25.1527586 24.6679273 25.5875862 24.3948 25.624569 24.0847636 25.3511207 23.4878909 25.0967241 23.3107273 24.519569 23.142 24.2999138 23.0238909 23.8426724 22.9205455 23.2487069 22.8467273 22.7757759 22.5514545 22.2849138 22.4850182 21.4343103 22.272"></polygon>
                        <path d="M24.5206897,25.0380727 L24.1508621,24.7449091 L23.6207759,24.6848 L22.6771552,23.8538182 L21.9038793,23.4056364 L21.2146552,22.9121091 L21.1025862,21.9060727 L22.3443103,22.2224364 L22.8822414,22.2952 L23.3540517,22.5894182 L23.9143966,22.6600727 L24.4119828,22.7729091 L24.6361207,22.8952364 L25.2300862,23.0692364 L25.5864655,23.3181091 L25.9226724,24.0489091 L25.8621552,24.5572 L25.2625862,24.9336727 L24.5206897,25.0380727 Z M23.8785345,24.1638545 L24.3918103,24.2229091 L24.6921552,24.4601818 L25.0451724,24.4074545 L25.3141379,24.2387273 L25.3275862,24.1269455 L25.1157759,23.664 L24.9633621,23.5585455 L24.4030172,23.3940364 L24.1923276,23.2801455 L23.79,23.1894545 L23.1444828,23.1093091 L22.6693103,22.8129818 L22.2098276,22.7497091 L21.8052586,22.6442545 L22.244569,22.9606182 L23.0290517,23.4151273 L23.8785345,24.1638545 Z" id="Shape" fill="#402415" fill-rule="nonzero"></path>
                        <g>
                            <path d="M20.9389655,24.4570182 C21.1210809,24.581547 21.328675,24.6691635 21.5486207,24.7143273 C22.6917241,24.9610909 23.7418103,23.9265818 24.360431,21.3777455 C26.112069,14.1309091 26.1389655,7.85847273 23.8348276,4.12854545 C22.407069,1.81803636 19.352069,0.364872727 13.2017241,0.364872727 C7.98603448,0.364872727 4.53991379,1.7284 3.12672414,3.87756364 C0.672413793,7.60538182 0.536810345,16.4108364 1.95560345,21.3777455 C2.67732759,23.9023273 3.62318966,24.9632 4.7662931,24.7143273 C4.98729343,24.6692271 5.19599966,24.5816243 5.37931034,24.4570182 C5.82707407,24.5271524 6.28616425,24.4282485 6.65689655,24.1817818 C6.7603557,24.1997376 6.86551987,24.2075128 6.97068966,24.2049818 C7.10453965,25.2188856 7.31653502,26.2222931 7.605,27.2072727 L7.56241379,27.2072727 C5.63706897,27.144 4.61724138,27.4635273 4.64862069,27.9507273 C4.62060345,28.4389818 5.64043103,28.7585091 7.56241379,28.6952364 C9.48439655,28.6319636 10.9132759,28.304 10.8841379,27.9507273 C10.8841379,27.9317455 11.3066379,26.2634545 11.6686207,24.1744 C12.2289655,24.1585818 12.805,24.1480364 13.4023276,24.1480364 C14.5824138,24.1480364 15.3388793,24.1902182 16.1289655,24.2281818 C16.4898276,26.2919273 16.9044828,27.9317455 16.9056034,27.9507273 C16.8764655,28.304 18.3143103,28.6340727 20.2273276,28.6952364 C22.1403448,28.7564 23.1736207,28.4389818 23.1411207,27.9507273 C23.1691379,27.4635273 22.1493103,27.144 20.2273276,27.2072727 L20.1858621,27.2072727 C20.4491834,26.3123528 20.6494747,25.4020609 20.785431,24.4823273 C20.8369828,24.4770545 20.8874138,24.4717818 20.9367241,24.4622909" id="Path" fill="#EF402F"></path>
                            <path d="M20.7013793,28.9683636 C20.5467241,28.9683636 20.3842241,28.9683636 20.2194828,28.9599273 C18.8219828,28.9156364 17.1768103,28.7078909 16.7453448,28.2586545 C16.6678145,28.1805391 16.6214745,28.0795397 16.6142241,27.9728727 C16.6142241,27.9581091 16.6063793,27.9380727 16.5996552,27.9117091 C16.2634483,26.5102182 16.0281034,25.3048727 15.8801724,24.4823273 C15.1842241,24.4485818 14.4580172,24.4137818 13.4012069,24.4137818 C12.9361207,24.4137818 12.4575862,24.4201091 11.9140517,24.4338182 C11.7661207,25.2658545 11.5274138,26.4880727 11.1867241,27.9138182 C11.18,27.9401818 11.1755172,27.9612727 11.1710345,27.9760364 C11.1648212,28.0829353 11.1183348,28.1842538 11.0399138,28.2618182 C10.612931,28.7110545 8.96663793,28.9188 7.56577586,28.9630909 C7.40103448,28.9694182 7.23853448,28.9715273 7.08387931,28.9715273 C6.18732759,28.9715273 5.00948276,28.8766182 4.55,28.42 C4.27727266,28.1556804 4.27727266,27.7352287 4.55,27.4709091 C5.00948276,27.0142909 6.18172414,26.9183273 7.085,26.9183273 L7.21724138,26.9183273 C6.99723776,26.1134073 6.82661123,25.2972477 6.7062069,24.4738909 C6.32613226,24.690128 5.88175749,24.7844887 5.43982759,24.7428 C5.25049361,24.8538607 5.0424283,24.9337438 4.82456897,24.9790182 C4.69886221,25.0063781 4.57031671,25.0205254 4.4412931,25.0212 C3.26232759,25.0212 2.35568966,23.8517091 1.6687069,21.4473455 C0.211810345,16.3285818 0.413534483,7.47461818 2.87344828,3.73098182 C4.41663793,1.38250909 8.08241379,0.0885818182 13.195,0.0885818182 C18.9766379,0.0885818182 22.4350862,1.32767273 24.0791379,3.9904 C26.3261207,7.62858182 26.5188793,13.6616364 24.6394828,21.4368 C23.9211207,24.4000727 22.7343103,25.0222545 21.8713793,25.0222545 C21.7396872,25.0218129 21.6084739,25.007308 21.4802586,24.9790182 C21.321843,24.9456066 21.1683112,24.894263 21.0230172,24.8261091 C20.9074637,25.5302815 20.7544833,26.2285631 20.5646552,26.9183273 L20.6968966,26.9183273 C21.6001724,26.9183273 22.7735345,27.0142909 23.2330172,27.4709091 C23.5039928,27.7358951 23.5039928,28.155014 23.2330172,28.42 C22.7735345,28.8766182 21.6012931,28.9715273 20.6980172,28.9715273 M17.1925,27.9117091 C17.3718103,28.0688364 18.3905172,28.3588364 20.2362931,28.4178909 C20.395431,28.4231636 20.5500862,28.4252727 20.6980172,28.4252727 C21.9733621,28.4252727 22.6256034,28.2280727 22.8116379,28.0445818 C22.8564655,27.9992364 22.8553448,27.9728727 22.8542241,27.9612727 L22.8542241,27.9328 C22.8542241,27.9212 22.8542241,27.8948364 22.8116379,27.8494909 C22.6256034,27.6649455 21.9733621,27.4688 20.6968966,27.4688 C20.5500862,27.4688 20.3943103,27.4688 20.2362931,27.4761818 L19.7992241,27.4898909 L19.904569,27.1324 C20.1642815,26.2488016 20.3623188,25.3501696 20.4974138,24.4422545 L20.5287931,24.2260727 L20.7596552,24.2070909 C20.8011207,24.2070909 20.8414655,24.1986545 20.8818103,24.1923273 L21.0062069,24.1701818 L21.107069,24.2408364 C21.2576975,24.3427937 21.4289605,24.4145776 21.6102586,24.4517455 C21.6957656,24.4711974 21.7834092,24.4811081 21.8713793,24.4812727 C22.7836207,24.4812727 23.5871552,23.3286545 24.0735345,21.3176364 C25.8968966,13.7881818 25.722069,7.73298182 23.580431,4.26774545 C22.0551724,1.79272727 18.7558621,0.638 13.2017241,0.638 C8.29310345,0.638 4.80775862,1.83912727 3.37327586,4.02098182 C0.988448276,7.65072727 0.803534483,16.2927273 2.24137931,21.3018182 C2.83422414,23.3761091 3.59853448,24.4717818 4.45362069,24.4717818 C4.53892243,24.4713921 4.62389799,24.4618394 4.70689655,24.4433091 C4.88819472,24.4061412 5.05945764,24.3343573 5.21008621,24.2324 L5.31206897,24.1617455 L5.43534483,24.1838909 C5.80444652,24.2395198 6.18208917,24.1582421 6.4887931,23.9571636 L6.58965517,23.8865091 L6.71405172,23.9086545 C6.78806398,23.9209028 6.86304261,23.9272526 6.93818966,23.9276364 L7.22732759,23.9213091 L7.26094828,24.1659636 C7.39486021,25.1631404 7.60497346,26.149939 7.88965517,27.1186909 L7.995,27.4761818 L7.55793103,27.4624727 C7.3987931,27.4624727 7.24413793,27.4550909 7.0962069,27.4550909 C5.82086207,27.4550909 5.1675,27.6512364 4.98258621,27.8357818 C4.93663793,27.8800727 4.93887931,27.9074909 4.93887931,27.9190909 L4.93887931,27.9475636 C4.93887931,27.9591636 4.93887931,27.9855273 4.98258621,28.0308727 C5.1675,28.2143636 5.82086207,28.4115636 7.09508621,28.4115636 C7.24301724,28.4115636 7.3987931,28.4115636 7.55681034,28.4041818 C9.40258621,28.3451273 10.4224138,28.0551273 10.6006034,27.898 C10.6006034,27.8832364 10.6084483,27.8610909 10.6275,27.7798909 C10.9973276,26.2370909 11.2461207,24.9326182 11.3884483,24.1132364 L11.4276724,23.8907273 L11.6663793,23.8833455 C12.3175,23.8654182 12.8711207,23.8569818 13.4090517,23.8569818 C14.5062069,23.8569818 15.2492241,23.8938909 15.9687069,23.9286909 L16.3844828,23.9487273 L16.4225862,24.1659636 C16.5649138,24.9779636 16.8103448,26.2645091 17.174569,27.7809455 C17.1936207,27.8610909 17.1992241,27.8864 17.2003448,27.898" id="Shape" fill="#941B1F" fill-rule="nonzero"></path>
                            <path d="M6.89672414,11.8003636 C6.89672414,11.8003636 5.81862069,15.3963636 7.55568966,19.5185818 C8.77051724,22.4017091 8.51724138,23.9982909 7.32258621,24.1585818 C7.10109342,24.1997504 6.87388956,24.2061642 6.65017241,24.1775636 C6.46745166,24.301559 6.25953559,24.3887914 6.03939655,24.4338182 C5.81915973,24.484491 5.59005167,24.4909586 5.36698276,24.4528 C5.18445249,24.577328 4.97649386,24.6649373 4.7562069,24.7101091 C3.61310345,24.9579273 2.66724138,23.8981091 1.94551724,21.3735273" id="Path" fill="#EF402F"></path>
                            <path d="M4.42784483,25.0254182 C3.26456897,25.0254182 2.3612931,23.8485455 1.67543103,21.4484 L2.12931034,20.9148 C2.81517241,23.3560727 3.71844828,24.6605455 4.69793103,24.4475273 C4.87939045,24.4108234 5.05075079,24.3389986 5.20112069,24.2366182 L5.30310345,24.1659636 L5.4275,24.1881091 C5.79624102,24.2435676 6.17346853,24.1622927 6.47982759,23.9613818 L6.58068966,23.8907273 L6.70508621,23.9128727 C6.89601387,23.9341957 7.08933414,23.9267199 7.27775862,23.8907273 C7.52286973,23.8644639 7.73904094,23.727544 7.85715517,23.5237455 C8.26172414,22.8667636 8.05215517,21.4431273 7.28224138,19.6219273 C5.52948276,15.4638545 6.56948276,11.8784 6.60982759,11.7286545 L7.17017241,11.8762909 C7.16008621,11.9110909 6.14137931,15.4417091 7.81905172,19.4205091 C8.67862069,21.4589455 8.86465517,22.9732727 8.35698276,23.8000364 C8.14864075,24.1471784 7.77863057,24.3816375 7.35844828,24.4327636 C7.14918654,24.4676938 6.93620204,24.4786705 6.72413793,24.4654545 C6.34149832,24.687706 5.89171567,24.7851763 5.44431034,24.7428 C5.25487714,24.8536778 5.04684605,24.9335479 4.82905172,24.9790182 C4.69689006,25.00879 4.561499,25.0240072 4.42560345,25.0243636" id="Path" fill="#941B1F"></path>
                            <path d="M19.4383621,11.6674909 C19.4383621,11.6674909 20.5164655,15.2677091 18.7805172,19.3867636 C17.564569,22.2698909 17.8178448,23.8664727 19.0125,24.0267636 C19.2339495,24.0681294 19.4611266,24.0748987 19.6849138,24.0468 C19.8676345,24.1707953 20.0755506,24.2580277 20.2956897,24.3030545 C20.5159219,24.3537588 20.7450371,24.3602266 20.9681034,24.3220364 C21.1500314,24.4466488 21.3577258,24.5339484 21.5777586,24.5782909 C22.7219828,24.8261091 23.7933621,23.6692727 24.422069,21.1510182" id="Path" fill="#EF402F"></path>
                            <path d="M21.8814655,24.8872727 C21.7543365,24.8868942 21.6276538,24.8730989 21.5037931,24.8461455 C21.2862909,24.8003129 21.0786306,24.7200832 20.8896552,24.6088727 C20.6677672,24.631883 20.4433233,24.6186832 20.2262069,24.5698545 C20.0074924,24.5245013 19.7986427,24.4442514 19.6087069,24.3325818 C19.39548,24.3453258 19.1813984,24.3339967 18.9710345,24.2988364 C18.5504401,24.2480247 18.1799504,24.0135248 17.9713793,23.6661091 C17.4648276,22.8404 17.6508621,21.3260727 18.510431,19.2876364 C20.1914655,15.3004 19.1693966,11.7782182 19.1581897,11.7434182 L19.7185345,11.5947273 C19.7633621,11.7455273 20.8033621,15.3320364 19.0461207,19.488 C18.2773276,21.3134182 18.0677586,22.736 18.4712069,23.3898182 C18.589051,23.5940222 18.8052688,23.7313651 19.0506034,23.7578545 C19.2391758,23.7927958 19.4323781,23.7999113 19.6232759,23.7789455 L19.7476724,23.7568 L19.8496552,23.8274545 C20.1560476,24.0283252 20.5331119,24.1099428 20.9019828,24.0552364 L21.0263793,24.0330909 L21.1283621,24.1037455 C21.2787201,24.2054685 21.4495646,24.2772369 21.630431,24.3146545 C22.6390517,24.5329455 23.6555172,23.0745091 24.2606897,20.5182909 L24.6921552,21.2164 C24.1015517,23.5806909 23.089569,24.8893818 21.8781034,24.8893818" id="Path" fill="#941B1F"></path>
                            <path d="M7.60612069,12.8485818 C7.26677437,12.0830226 6.64684764,11.4574028 5.85896552,11.0853818" id="Path" fill="#EF402F"></path>
                            <path d="M7.3337931,12.9424364 C7.3337931,12.9318909 6.89560345,11.8562545 5.73344828,11.3321455 L5.98448276,10.8396727 C6.84265711,11.242478 7.51611534,11.9249062 7.87956897,12.76 L7.3337931,12.9424364 Z" id="Path" fill="#941B1F"></path>
                            <path d="M18.6796552,12.8485818 C19.0188082,12.0832508 19.6382891,11.4576797 20.4256897,11.0853818" id="Path" fill="#EF402F"></path>
                            <path d="M18.9519828,12.9424364 L18.4062069,12.76 C18.7712285,11.927142 19.4444297,11.2468473 20.3012931,10.8449455 L20.5523276,11.3374182 C19.3890517,11.8646909 18.9564655,12.9371636 18.9519828,12.9477091" id="Path" fill="#941B1F"></path>
                            <path d="M11.2685345,7.01483636 C9.93318803,7.01464341 8.78018121,6.13506884 8.5037931,4.90574545 C7.57610597,5.32793361 7.09555688,6.3087849 7.3568575,7.24676179 C7.61815813,8.18473869 8.54826213,8.8176307 9.57675435,8.75729716 C10.6052466,8.69696361 11.444613,7.96027067 11.5800862,6.99901818 C11.4766886,7.01050971 11.3726505,7.01614411 11.2685345,7.01589091" id="Path" fill="#FFFFFF"></path>
                            <path d="M9.035,5.98981818 C8.66175583,6.16798102 8.47207895,6.56774158 8.5802842,6.9481714 C8.68848945,7.32860122 9.06501502,7.58576642 9.48293575,7.56467819 C9.90085649,7.54358995 10.245996,7.25000961 10.3103448,6.86087273 C9.80635623,6.68965172 9.36418771,6.38765269 9.035,5.98981818" id="Path" fill="#941B1F"></path>
                            <path d="M14.9410345,6.96 C16.2768014,6.96030536 17.4304214,6.08061959 17.7068966,4.85090909 C18.6345837,5.27309725 19.1151328,6.25394854 18.8538322,7.19192543 C18.5925315,8.12990232 17.6624275,8.76279434 16.6339353,8.70246079 C15.6054431,8.64212724 14.7660766,7.90543431 14.6306034,6.94418182 C14.7340701,6.95479329 14.8380758,6.9600739 14.9421552,6.96" id="Path" fill="#FFFFFF"></path>
                            <path d="M17.174569,5.93392727 C17.5462654,6.11339382 17.7340549,6.51293359 17.6250837,6.89243976 C17.5161125,7.27194593 17.1400398,7.52812644 16.7228698,7.50702745 C16.3056997,7.48592846 15.9609755,7.19329258 15.8958621,6.80498182 C16.4010753,6.63428477 16.844471,6.33224381 17.174569,5.93392727" id="Path" fill="#941B1F"></path>
                            <path d="M14.5218966,10.8048727 C14.4775209,10.8046064 14.4333971,10.7985737 14.3907759,10.7869455 C13.5490986,10.5560585 12.654867,10.5560585 11.8131897,10.7869455 C11.574187,10.8330333 11.3376063,10.6987933 11.2693847,10.4783811 C11.2011632,10.257969 11.3241441,10.0251875 11.552069,9.94330909 C12.5625839,9.66704356 13.6357782,9.66704356 14.6462931,9.94330909 C14.871329,10.0036394 15.0145416,10.2109714 14.9817668,10.4289814 C14.9489919,10.6469915 14.7502827,10.8088088 14.5162931,10.8080391" id="Path" fill="#941B1F"></path>
                            <polygon id="Path" fill="#C3996B" points="19.5526724 21.576 19.1010345 20.3896364 16.4192241 18.4672 12.9013793 16.4340364 8.82655172 12.8464727 6.45517241 12.5786182 4.93103448 11.3711636 2.44758621 11.7402545 0.471810345 12.9804 0.301465517 14.3882182 1.54318966 17.1047273 2.70086207 17.9093455 5.32663793 18.6802182 6.32517241 19.2169818 8.40293103 19.6862545 11.1071552 20.0205455 13.2577586 21.3619273 15.487931 21.6635273 18.9217241 22.5240364"></polygon>
                            <path d="M19.0517241,22.8393455 L15.4296552,21.9345455 L13.1524138,21.6255636 L11.002931,20.2862909 L8.33568966,19.9530545 L6.21758621,19.4753455 L5.20896552,18.9343636 L2.56637931,18.1582182 L1.30672414,17.2818909 L0,14.4293455 L0.19387931,12.8232727 L2.33439655,11.4797818 L5.01172414,11.0822182 L6.5762069,12.3170909 L8.95543103,12.586 L13.0784483,16.2157455 L16.5962931,18.2499636 L19.3453448,20.2219636 L19.8743103,21.6086909 L19.0517241,22.8393455 Z M13.3619828,21.1004 L15.5607759,21.3998909 L18.7872414,22.2087273 L19.2355172,21.5433091 L18.8567241,20.5636364 L16.2556034,18.6970909 L12.7243103,16.6576 L8.69767241,13.1069455 L6.33525862,12.8401455 L4.84586207,11.6601091 L2.55517241,12.0007273 L0.744137931,13.1375273 L0.598448276,14.3470909 L1.77965517,16.9286182 L2.83422414,17.6668 L5.44318966,18.4324 L6.43275862,18.9596727 L8.45672414,19.4173455 L11.2068966,19.7590182 L13.3619828,21.1004 Z" id="Shape" fill="#402415" fill-rule="nonzero"></path>
                        </g>
                    </g>
                </g>
            </g>
        </g>
    </g>
</svg>