<?xml version="1.0" encoding="UTF-8"?>
<svg width="74px" height="20px" viewBox="0 0 74 20" version="1.1" xmlns="http://www.w3.org/2000/svg" xmlns:xlink="http://www.w3.org/1999/xlink">
    <!-- Generator: Sketch 52.3 (67297) - http://www.bohemiancoding.com/sketch -->
    <title>logo__thehoth</title>
    <desc>Created with Sketch.</desc>
    <g id="Guest-Post" stroke="none" stroke-width="1" fill="none" fill-rule="evenodd">
        <g transform="translate(-165.000000, -126.000000)" id="component__toc">
            <g transform="translate(165.000000, 126.000000)">
                <g id="logo__thehoth">
                    <polygon id="Path" fill="#9B9B9B" points="0 0 9 0 9 2.85714286 5.95588235 2.85714286 5.95588235 20 3.01470588 20 3.01470588 2.85714286 0 2.85714286"></polygon>
                    <polygon id="Path" fill="#9B9B9B" points="13.88 20 11 20 11 0 13.88 0 13.88 8.57142857 17.12 8.57142857 17.12 0 20 0 20 20 17.12 20 17.12 11.4285714 13.88 11.4285714"></polygon>
                    <polygon id="Path" fill="#9B9B9B" points="24.9333333 8.42857143 28.962963 8.42857143 28.962963 11.2857143 24.9333333 11.2857143 24.9333333 17.1428571 30 17.1428571 30 20 22 20 22 0 30 0 30 2.85714286 24.9333333 2.85714286"></polygon>
                    <polygon id="Path" fill="#E1443D" points="35.88 20 33 20 33 0 35.88 0 35.88 8.57142857 39.12 8.57142857 39.12 0 42 0 42 20 39.12 20 39.12 11.4285714 35.88 11.4285714"></polygon>
                    <path d="M44,4.91854151 C44,1.81536074 45.59,0 48.5,0 C51.41,0 53,1.79208689 53,4.91854151 L53,15.0814585 C53,18.1846393 51.41,20 48.5,20 C45.59,20 44,18.2079131 44,15.0814585 L44,4.91854151 Z M47,15.2754073 C47,16.6718386 47.5925,17.2071373 48.5,17.2071373 C49.4075,17.2071373 50,16.6718386 50,15.2754073 L50,4.72459271 C50,3.32816137 49.415,2.79286268 48.5,2.79286268 C47.585,2.79286268 47,3.32816137 47,4.72459271 L47,15.2754073 Z" id="Shape" fill="#E1443D" fill-rule="nonzero"></path>
                    <polygon id="Path" fill="#E1443D" points="54 0 63 0 63 2.85714286 59.9533933 2.85714286 59.9533933 20 57.0098119 20 57.0098119 2.85714286 54 2.85714286"></polygon>
                    <polygon id="Path" fill="#E1443D" points="67.88 20 65 20 65 0 67.88 0 67.88 8.57142857 71.12 8.57142857 71.12 0 74 0 74 20 71.12 20 71.12 11.4285714 67.88 11.4285714"></polygon>
                </g>
            </g>
        </g>
    </g>
</svg>