<?xml version="1.0" encoding="utf-8"?>
<!-- Generator: Adobe Illustrator 23.0.1, SVG Export Plug-In . SVG Version: 6.00 Build 0)  -->
<svg version="1.1" id="Layer_1" xmlns="http://www.w3.org/2000/svg" xmlns:xlink="http://www.w3.org/1999/xlink" x="0px" y="0px"
	 viewBox="0 0 74 20" style="enable-background:new 0 0 74 20;" xml:space="preserve">
<style type="text/css">
	.st0{fill-rule:evenodd;clip-rule:evenodd;fill:#B6B4B4;fill-opacity:0.501;}
	.st1{fill-rule:evenodd;clip-rule:evenodd;fill:#464646;}
	.st2{fill:#464646;}
</style>
<title>logo__thehoth</title>
<desc>Created with Sketch.</desc>
<g id="Page-1">
	<g id="Desktop-HD" transform="translate(-32.000000, -33.000000)">
		<g id="section__welcome">
			<g id="logo__thehoth" transform="translate(32.000000, 33.000000)">
				<polygon id="Path" class="st0" points="0,0 9,0 9,2.9 6,2.9 6,20 3,20 3,2.9 0,2.9 				"/>
				<polygon class="st0" points="13.9,20 11,20 11,0 13.9,0 13.9,8.6 17.1,8.6 17.1,0 20,0 20,20 17.1,20 17.1,11.4 13.9,11.4 				
					"/>
				<polygon class="st0" points="24.9,8.4 29,8.4 29,11.3 24.9,11.3 24.9,17.1 30,17.1 30,20 22,20 22,0 30,0 30,2.9 24.9,2.9 				
					"/>
				<polygon class="st1" points="35.9,20 33,20 33,0 35.9,0 35.9,8.6 39.1,8.6 39.1,0 42,0 42,20 39.1,20 39.1,11.4 35.9,11.4 				
					"/>
				<path id="Shape" class="st2" d="M44,4.9C44,1.8,45.6,0,48.5,0S53,1.8,53,4.9v10.2c0,3.1-1.6,4.9-4.5,4.9S44,18.2,44,15.1V4.9z
					 M47,15.3c0,1.4,0.6,1.9,1.5,1.9s1.5-0.5,1.5-1.9V4.7c0-1.4-0.6-1.9-1.5-1.9S47,3.3,47,4.7V15.3z"/>
				<polygon class="st1" points="54,0 63,0 63,2.9 60,2.9 60,20 57,20 57,2.9 54,2.9 				"/>
				<polygon class="st1" points="67.9,20 65,20 65,0 67.9,0 67.9,8.6 71.1,8.6 71.1,0 74,0 74,20 71.1,20 71.1,11.4 67.9,11.4 				
					"/>
			</g>
		</g>
	</g>
</g>
</svg>
